{"glyphs":{"0":{"ha":863,"x_min":0,"x_max":0,"o":"m 444 -14 b 796 474 657 -14 796 189 b 425 986 796 769 649 986 b 68 501 211 986 68 785 b 444 -14 68 206 217 -14 z m 467 58 b 240 585 321 58 240 361 b 394 911 240 754 276 911 b 624 389 542 911 624 613 b 467 58 624 221 582 58 z "},"1":{"ha":482,"x_min":0,"x_max":0,"o":"m 349 950 b 318 986 349 976 339 988 b 146 929 297 985 207 954 b 75 881 83 904 75 897 b 119 844 75 865 83 854 b 186 744 179 826 186 801 l 186 167 b 93 29 186 71 93 75 b 156 0 93 8 110 0 l 353 0 b 414 28 396 0 414 7 b 349 167 414 69 349 69 z "},"2":{"ha":828,"x_min":0,"x_max":0,"o":"m 653 0 b 746 69 714 0 729 22 b 771 188 758 110 768 144 b 747 233 772 214 767 233 b 519 139 707 233 668 150 b 247 140 424 133 335 133 b 704 725 549 383 703 557 b 424 986 707 882 585 986 b 107 775 257 986 143 871 b 149 746 93 738 125 717 b 363 863 215 829 286 863 b 529 697 463 863 529 799 b 78 78 529 525 332 321 b 115 0 33 35 51 0 z "},"3":{"ha":831,"x_min":0,"x_max":0,"o":"m 411 -15 b 768 303 636 -15 768 135 b 436 590 768 492 588 578 b 728 917 546 686 644 801 b 697 972 750 949 733 972 l 257 972 b 140 914 167 972 151 954 b 119 779 129 874 121 826 b 143 732 118 756 122 732 b 201 790 165 732 174 757 b 310 839 229 826 264 835 b 572 838 388 846 490 844 b 296 564 492 733 400 649 b 310 497 268 542 267 501 b 592 285 479 479 592 417 b 381 101 592 163 494 101 b 114 228 269 101 182 150 b 65 196 89 254 51 233 b 411 -15 104 97 226 -15 z "},"4":{"ha":835,"x_min":0,"x_max":0,"o":"m 547 -35 b 649 -8 568 -35 621 -24 b 679 46 674 6 679 25 l 679 172 l 721 172 b 781 238 750 172 772 186 b 767 331 792 300 790 331 b 679 313 746 331 729 313 l 679 942 b 633 986 679 974 664 986 b 525 919 590 986 568 965 b 263 585 482 871 350 701 b 49 238 139 421 49 301 b 108 178 49 186 68 178 l 510 179 l 510 3 b 547 -35 510 -25 522 -35 z m 217 313 b 197 363 181 313 175 331 b 518 793 279 482 381 625 l 518 315 z "},"5":{"ha":818,"x_min":0,"x_max":0,"o":"m 408 -14 b 753 310 615 -14 753 139 b 254 668 753 510 586 625 l 304 838 b 615 836 410 831 522 831 b 707 888 676 840 693 853 b 728 975 719 921 726 946 b 706 1018 729 1000 724 1018 b 561 972 669 1018 665 978 b 301 972 467 967 385 967 b 258 940 276 974 265 964 l 154 594 b 185 549 146 565 154 551 b 572 286 424 519 572 451 b 372 103 572 181 490 103 b 92 228 251 103 160 151 b 42 197 67 256 28 235 b 408 -14 82 99 203 -14 z "},"6":{"ha":825,"x_min":0,"x_max":0,"o":"m 419 -14 b 769 356 611 -14 769 146 b 479 681 769 533 647 681 b 256 567 386 681 297 632 b 485 892 258 779 361 892 b 647 851 547 892 586 882 b 679 897 675 836 701 864 b 468 986 650 942 574 986 b 69 436 238 986 67 742 b 419 -14 71 156 208 -14 z m 456 68 b 251 369 324 68 251 222 b 407 572 251 476 300 572 b 608 271 533 572 608 419 b 456 68 608 167 565 68 z "},"7":{"ha":731,"x_min":0,"x_max":0,"o":"m 306 -14 b 338 17 326 -15 338 -6 b 697 919 338 324 540 626 b 656 972 718 958 697 972 l 163 972 b 86 922 113 972 97 958 b 58 776 72 879 60 814 b 82 731 57 754 63 731 b 236 831 129 731 138 822 b 569 831 347 840 458 840 b 161 72 417 589 161 294 b 192 18 161 51 168 32 b 306 -14 225 -1 275 -12 z "},"8":{"ha":818,"x_min":0,"x_max":0,"o":"m 544 532 b 724 772 647 586 724 661 b 433 985 724 914 579 985 b 107 739 253 985 107 893 b 251 514 107 640 171 571 b 65 251 156 460 65 369 b 407 -14 65 72 232 -14 b 751 258 606 -14 751 92 b 544 532 751 383 675 453 z m 418 911 b 579 754 515 911 579 850 b 488 565 579 689 550 625 l 479 569 b 274 783 374 631 274 693 b 418 911 274 864 342 911 z m 428 60 b 215 272 297 60 215 150 b 304 478 215 364 256 429 b 369 439 326 465 347 451 b 586 213 518 354 586 292 b 428 60 586 136 529 60 z "},"9":{"ha":832,"x_min":0,"x_max":0,"o":"m 411 986 b 63 617 219 986 63 825 b 353 292 63 438 183 292 b 575 406 446 292 535 340 b 346 81 574 193 469 81 b 185 121 285 81 244 89 b 151 75 157 135 131 108 b 363 -14 182 29 258 -15 b 763 535 594 -14 764 229 b 411 986 760 817 624 986 z m 375 904 b 581 603 507 904 581 750 b 424 400 581 496 532 400 b 222 701 297 400 222 553 b 375 904 222 806 265 904 z "},"A":{"ha":974,"x_min":0,"x_max":0,"o":"m 236 244 b 447 285 251 285 251 285 b 653 243 636 285 636 285 l 679 174 b 633 32 722 65 633 82 b 694 0 633 8 656 0 l 888 0 b 958 35 939 0 958 8 b 856 174 958 82 901 60 l 553 942 b 508 972 544 963 531 972 l 367 972 b 325 939 338 972 325 961 b 372 815 325 890 406 899 l 117 171 b 1 32 74 60 1 81 b 65 0 1 7 26 0 l 185 0 b 242 33 217 0 242 7 b 207 171 242 79 164 60 z m 449 358 b 294 394 281 358 281 358 l 443 776 l 593 394 b 449 358 607 358 607 358 z "},"Á":{"ha":974,"x_min":0,"x_max":0,"o":"m 419 1056 b 640 1181 489 1044 631 1111 b 590 1257 647 1219 621 1251 b 474 1189 554 1264 521 1232 b 382 1082 432 1149 385 1101 b 419 1056 381 1068 397 1058 z m 236 244 b 447 285 251 285 251 285 b 653 243 636 285 636 285 l 679 174 b 633 32 722 65 633 82 b 694 0 633 8 656 0 l 888 0 b 958 35 939 0 958 8 b 856 174 958 82 901 60 l 553 942 b 508 972 544 963 531 972 l 367 972 b 325 939 338 972 325 961 b 372 815 325 890 406 899 l 117 171 b 1 32 74 60 1 81 b 65 0 1 7 26 0 l 185 0 b 242 33 217 0 242 7 b 207 171 242 79 164 60 z m 449 358 b 294 394 281 358 281 358 l 443 776 l 593 394 b 449 358 607 358 607 358 z "},"Ă":{"ha":974,"x_min":0,"x_max":0,"o":"m 453 1050 b 638 1217 563 1050 635 1125 b 617 1253 638 1239 631 1253 b 593 1236 608 1253 603 1249 b 454 1161 557 1186 517 1161 b 314 1236 389 1161 350 1188 b 290 1253 306 1249 299 1253 b 269 1217 276 1253 268 1239 b 453 1050 272 1128 338 1050 z m 236 244 b 447 285 251 285 251 285 b 653 243 636 285 636 285 l 679 174 b 633 32 722 65 633 82 b 694 0 633 8 656 0 l 888 0 b 958 35 939 0 958 8 b 856 174 958 82 901 60 l 553 942 b 508 972 544 963 531 972 l 367 972 b 325 939 338 972 325 961 b 372 815 325 890 406 899 l 117 171 b 1 32 74 60 1 81 b 65 0 1 7 26 0 l 185 0 b 242 33 217 0 242 7 b 207 171 242 79 164 60 z m 449 358 b 294 394 281 358 281 358 l 443 776 l 593 394 b 449 358 607 358 607 358 z "},"Â":{"ha":974,"x_min":0,"x_max":0,"o":"m 288 1044 b 461 1110 326 1043 417 1079 b 633 1044 506 1079 594 1043 b 653 1064 650 1046 654 1054 b 576 1151 651 1079 618 1108 b 460 1231 510 1217 507 1231 b 342 1149 414 1231 404 1211 b 268 1064 300 1107 269 1079 b 288 1044 267 1054 271 1046 z m 236 244 b 447 285 251 285 251 285 b 653 243 636 285 636 285 l 679 174 b 633 32 722 65 633 82 b 694 0 633 8 656 0 l 888 0 b 958 35 939 0 958 8 b 856 174 958 82 901 60 l 553 942 b 508 972 544 963 531 972 l 367 972 b 325 939 338 972 325 961 b 372 815 325 890 406 899 l 117 171 b 1 32 74 60 1 81 b 65 0 1 7 26 0 l 185 0 b 242 33 217 0 242 7 b 207 171 242 79 164 60 z m 449 358 b 294 394 281 358 281 358 l 443 776 l 593 394 b 449 358 607 358 607 358 z "},"Ä":{"ha":974,"x_min":0,"x_max":0,"o":"m 351 1071 b 447 1157 401 1071 447 1107 b 376 1226 447 1199 418 1226 b 286 1132 325 1226 286 1179 b 351 1071 286 1094 315 1071 z m 567 1071 b 663 1157 615 1071 663 1107 b 590 1226 663 1199 632 1226 b 500 1132 540 1226 500 1179 b 567 1071 500 1094 529 1071 z m 236 244 b 447 285 251 285 251 285 b 653 243 636 285 636 285 l 679 174 b 633 32 722 65 633 82 b 694 0 633 8 656 0 l 888 0 b 958 35 939 0 958 8 b 856 174 958 82 901 60 l 553 942 b 508 972 544 963 531 972 l 367 972 b 325 939 338 972 325 961 b 372 815 325 890 406 899 l 117 171 b 1 32 74 60 1 81 b 65 0 1 7 26 0 l 185 0 b 242 33 217 0 242 7 b 207 171 242 79 164 60 z m 449 358 b 294 394 281 358 281 358 l 443 776 l 593 394 b 449 358 607 358 607 358 z "},"À":{"ha":974,"x_min":0,"x_max":0,"o":"m 517 1056 b 553 1082 538 1058 556 1068 b 463 1189 551 1101 504 1149 b 346 1257 415 1232 382 1264 b 296 1181 315 1251 289 1219 b 517 1056 306 1111 446 1044 z m 236 244 b 447 285 251 285 251 285 b 653 243 636 285 636 285 l 679 174 b 633 32 722 65 633 82 b 694 0 633 8 656 0 l 888 0 b 958 35 939 0 958 8 b 856 174 958 82 901 60 l 553 942 b 508 972 544 963 531 972 l 367 972 b 325 939 338 972 325 961 b 372 815 325 890 406 899 l 117 171 b 1 32 74 60 1 81 b 65 0 1 7 26 0 l 185 0 b 242 33 217 0 242 7 b 207 171 242 79 164 60 z m 449 358 b 294 394 281 358 281 358 l 443 776 l 593 394 b 449 358 607 358 607 358 z "},"Ā":{"ha":974,"x_min":0,"x_max":0,"o":"m 601 1074 b 660 1117 650 1074 656 1082 b 613 1154 664 1144 660 1154 l 299 1154 b 244 1113 253 1154 249 1146 b 288 1074 240 1083 243 1074 z m 236 244 b 447 285 251 285 251 285 b 653 243 636 285 636 285 l 679 174 b 633 32 722 65 633 82 b 694 0 633 8 656 0 l 888 0 b 958 35 939 0 958 8 b 856 174 958 82 901 60 l 553 942 b 508 972 544 963 531 972 l 367 972 b 325 939 338 972 325 961 b 372 815 325 890 406 899 l 117 171 b 1 32 74 60 1 81 b 65 0 1 7 26 0 l 185 0 b 242 33 217 0 242 7 b 207 171 242 79 164 60 z m 449 358 b 294 394 281 358 281 358 l 443 776 l 593 394 b 449 358 607 358 607 358 z "},"Ą":{"ha":974,"x_min":0,"x_max":0,"o":"m 943 -183 b 889 -196 926 -190 904 -196 b 814 -124 839 -196 814 -167 b 874 0 814 -89 831 -49 l 888 0 b 958 35 939 0 958 8 b 856 174 958 82 901 60 l 553 942 b 508 972 544 963 531 972 l 367 972 b 325 939 338 972 325 961 b 372 815 325 890 406 899 l 117 171 b 1 32 74 60 1 81 b 65 0 1 7 26 0 l 185 0 b 242 33 217 0 242 7 b 207 171 242 79 164 60 l 236 244 b 447 285 251 285 251 285 b 653 243 636 285 636 285 l 679 174 b 633 32 722 65 633 82 b 694 0 633 8 656 0 l 814 0 b 713 -144 750 -42 713 -89 b 849 -257 713 -215 772 -257 b 965 -214 890 -257 936 -243 b 943 -183 982 -196 974 -169 z m 449 358 b 294 394 281 358 281 358 l 443 776 l 593 394 b 449 358 607 358 607 358 z "},"Å":{"ha":974,"x_min":0,"x_max":0,"o":"m 456 1038 b 600 1174 535 1038 600 1090 b 461 1306 600 1254 539 1306 b 317 1169 381 1306 317 1251 b 456 1038 317 1090 376 1038 z m 463 1103 b 390 1171 424 1103 396 1131 b 456 1244 388 1214 413 1244 b 525 1176 493 1244 519 1215 b 463 1103 528 1136 504 1103 z m 236 244 b 447 285 251 285 251 285 b 653 243 636 285 636 285 l 679 174 b 633 32 722 65 633 82 b 694 0 633 8 656 0 l 888 0 b 958 35 939 0 958 8 b 856 174 958 82 901 60 l 553 942 b 508 972 544 963 531 972 l 367 972 b 325 939 338 972 325 961 b 372 815 325 890 406 899 l 117 171 b 1 32 74 60 1 81 b 65 0 1 7 26 0 l 185 0 b 242 33 217 0 242 7 b 207 171 242 79 164 60 z m 449 358 b 294 394 281 358 281 358 l 443 776 l 593 394 b 449 358 607 358 607 358 z "},"Ã":{"ha":974,"x_min":0,"x_max":0,"o":"m 561 1053 b 664 1143 629 1053 664 1094 b 618 1185 664 1200 618 1219 b 569 1144 618 1156 600 1144 b 339 1203 524 1144 424 1203 b 238 1113 271 1203 238 1160 b 282 1069 238 1056 282 1036 b 332 1111 282 1100 301 1111 b 561 1053 406 1111 493 1053 z m 236 244 b 447 285 251 285 251 285 b 653 243 636 285 636 285 l 679 174 b 633 32 722 65 633 82 b 694 0 633 8 656 0 l 888 0 b 958 35 939 0 958 8 b 856 174 958 82 901 60 l 553 942 b 508 972 544 963 531 972 l 367 972 b 325 939 338 972 325 961 b 372 815 325 890 406 899 l 117 171 b 1 32 74 60 1 81 b 65 0 1 7 26 0 l 185 0 b 242 33 217 0 242 7 b 207 171 242 79 164 60 z m 449 358 b 294 394 281 358 281 358 l 443 776 l 593 394 b 449 358 607 358 607 358 z "},"Æ":{"ha":1350,"x_min":0,"x_max":0,"o":"m 1275 268 b 1217 214 1254 272 1238 261 b 1039 76 1175 122 1147 76 l 940 75 b 794 142 814 75 794 94 l 794 469 b 893 538 794 532 831 538 l 918 538 b 1128 407 1061 536 1069 393 b 1144 476 1151 414 1156 425 l 1114 614 b 1075 657 1108 643 1097 657 b 918 611 1032 657 1047 611 l 893 611 b 794 679 831 611 794 617 l 794 833 b 935 897 794 878 814 897 l 1006 897 b 1210 765 1101 897 1160 853 b 1271 722 1231 729 1246 715 b 1289 782 1293 729 1294 750 b 1254 928 1281 843 1267 890 b 1146 974 1240 965 1225 974 l 567 972 b 526 944 536 972 526 961 b 556 904 526 926 542 915 b 568 813 582 886 597 856 l 110 131 b 1 31 71 71 1 79 b 67 0 1 7 26 0 l 185 0 b 242 33 217 0 242 6 b 211 132 242 79 169 69 l 306 275 l 632 275 l 632 213 b 544 33 632 46 544 96 b 618 0 544 6 567 0 l 1164 0 b 1279 53 1251 0 1269 17 b 1300 213 1290 93 1296 140 b 1275 268 1301 243 1300 263 z m 632 769 l 632 347 l 353 347 z "},"B":{"ha":875,"x_min":0,"x_max":0,"o":"m 575 579 b 724 760 675 608 724 676 b 378 972 722 906 589 972 l 124 972 b 50 939 72 972 50 967 b 138 760 50 876 138 926 l 138 213 b 50 33 138 46 50 96 b 124 0 50 6 72 0 l 413 0 b 839 313 681 0 839 107 b 575 579 839 449 740 550 z m 299 847 b 371 897 299 889 324 897 b 560 739 485 897 560 831 b 375 613 560 654 507 613 b 299 642 339 613 299 611 z m 410 75 b 299 172 315 75 299 104 l 299 485 b 368 533 299 518 307 533 b 660 282 556 533 660 429 b 410 75 660 136 578 75 z "},"":{"ha":875,"x_min":0,"x_max":0,"o":"m 575 579 b 724 760 675 608 724 676 b 378 972 722 906 589 972 l 124 972 b 50 939 72 972 50 967 b 138 760 50 876 138 926 l 138 213 b 50 33 138 46 50 96 b 124 0 50 6 72 0 l 413 0 b 839 313 681 0 839 107 b 575 579 839 449 740 550 z m 299 847 b 371 897 299 889 324 897 b 560 739 485 897 560 831 b 375 613 560 654 507 613 b 299 642 339 613 299 611 z m 410 75 b 299 172 315 75 299 104 l 299 485 b 368 533 299 518 307 533 b 660 282 556 533 660 429 b 410 75 660 136 578 75 z "},"C":{"ha":961,"x_min":0,"x_max":0,"o":"m 529 -14 b 908 176 729 -14 864 93 b 868 222 933 219 899 256 b 585 92 797 146 714 92 b 222 539 363 92 222 290 b 528 901 222 735 336 901 b 803 728 661 901 742 822 b 867 672 828 692 840 669 b 893 728 893 675 899 696 b 853 911 879 811 865 865 b 797 983 835 969 824 983 b 725 964 769 983 757 964 b 556 986 688 964 639 986 b 54 464 272 986 54 756 b 529 -14 54 175 243 -14 z "},"Ć":{"ha":961,"x_min":0,"x_max":0,"o":"m 463 1056 b 683 1181 532 1044 674 1111 b 633 1257 690 1219 664 1251 b 517 1189 597 1264 564 1232 b 425 1082 475 1149 428 1101 b 463 1056 424 1068 440 1058 z m 529 -14 b 908 176 729 -14 864 93 b 868 222 933 219 899 256 b 585 92 797 146 714 92 b 222 539 363 92 222 290 b 528 901 222 735 336 901 b 803 728 661 901 742 822 b 867 672 828 692 840 669 b 893 728 893 675 899 696 b 853 911 879 811 865 865 b 797 983 835 969 824 983 b 725 964 769 983 757 964 b 556 986 688 964 639 986 b 54 464 272 986 54 756 b 529 -14 54 175 243 -14 z "},"Č":{"ha":961,"x_min":0,"x_max":0,"o":"m 340 1235 b 321 1214 324 1233 319 1225 b 394 1129 322 1200 353 1172 b 513 1047 457 1068 467 1047 b 629 1128 560 1047 563 1063 b 706 1214 671 1169 704 1199 b 686 1235 707 1225 703 1233 b 514 1168 647 1236 558 1200 b 340 1235 469 1200 379 1236 z m 529 -14 b 908 176 729 -14 864 93 b 868 222 933 219 899 256 b 585 92 797 146 714 92 b 222 539 363 92 222 290 b 528 901 222 735 336 901 b 803 728 661 901 742 822 b 867 672 828 692 840 669 b 893 728 893 675 899 696 b 853 911 879 811 865 865 b 797 983 835 969 824 983 b 725 964 769 983 757 964 b 556 986 688 964 639 986 b 54 464 272 986 54 756 b 529 -14 54 175 243 -14 z "},"Ç":{"ha":961,"x_min":0,"x_max":0,"o":"m 868 222 b 585 92 797 146 714 92 b 222 539 363 92 222 290 b 528 901 222 735 336 901 b 803 728 661 901 742 822 b 867 672 828 692 840 669 b 893 728 893 675 899 696 b 853 911 879 811 865 865 b 797 983 835 969 824 983 b 725 964 769 983 757 964 b 556 986 688 964 639 986 b 54 464 272 986 54 756 b 475 -11 54 194 219 11 l 431 -93 b 447 -118 422 -107 433 -115 b 539 -190 490 -128 539 -144 b 478 -246 539 -219 519 -246 b 410 -225 447 -246 428 -235 b 383 -250 386 -210 369 -232 b 499 -296 401 -272 439 -296 b 631 -182 571 -296 631 -250 b 501 -72 631 -114 572 -85 l 532 -14 b 908 176 731 -12 864 93 b 868 222 933 219 899 256 z "},"Ċ":{"ha":961,"x_min":0,"x_max":0,"o":"m 499 1060 b 633 1174 561 1057 631 1115 b 558 1253 635 1215 601 1251 b 425 1136 494 1258 426 1194 b 499 1060 422 1094 453 1061 z m 529 -14 b 908 176 729 -14 864 93 b 868 222 933 219 899 256 b 585 92 797 146 714 92 b 222 539 363 92 222 290 b 528 901 222 735 336 901 b 803 728 661 901 742 822 b 867 672 828 692 840 669 b 893 728 893 675 899 696 b 853 911 879 811 865 865 b 797 983 835 969 824 983 b 725 964 769 983 757 964 b 556 986 688 964 639 986 b 54 464 272 986 54 756 b 529 -14 54 175 243 -14 z "},"D":{"ha":1035,"x_min":0,"x_max":0,"o":"m 124 972 b 50 939 72 972 50 967 b 138 760 50 876 138 926 l 138 213 b 50 33 138 46 50 96 b 124 0 50 6 72 0 l 469 0 b 978 503 819 0 978 236 b 432 972 978 726 824 972 z m 453 72 b 299 156 322 72 299 100 l 299 842 b 386 903 299 893 319 903 b 807 431 647 903 807 697 b 453 72 807 238 725 72 z "},"Ď":{"ha":1035,"x_min":0,"x_max":0,"o":"m 325 1129 b 443 1047 388 1068 397 1047 b 560 1128 490 1047 493 1063 b 636 1214 601 1169 635 1199 b 617 1235 638 1225 633 1233 b 444 1168 578 1236 489 1200 b 271 1235 400 1200 310 1236 b 251 1214 254 1233 250 1225 b 325 1129 253 1200 283 1172 z m 124 972 b 50 939 72 972 50 967 b 138 760 50 876 138 926 l 138 213 b 50 33 138 46 50 96 b 124 0 50 6 72 0 l 469 0 b 978 503 819 0 978 236 b 432 972 978 726 824 972 z m 453 72 b 299 156 322 72 299 100 l 299 842 b 386 903 299 893 319 903 b 807 431 647 903 807 697 b 453 72 807 238 725 72 z "},"Đ":{"ha":1035,"x_min":0,"x_max":0,"o":"m 124 972 b 50 939 72 972 50 967 b 138 760 50 876 138 926 l 138 522 l 63 522 b 25 489 33 522 25 510 b 63 447 25 461 29 447 l 138 447 l 138 213 b 50 33 138 46 50 96 b 124 0 50 6 72 0 l 469 0 b 978 503 819 0 978 236 b 432 972 978 726 824 972 z m 453 72 b 299 156 322 72 299 100 l 299 447 l 379 447 b 417 489 411 447 417 460 b 379 522 417 510 408 522 l 299 522 l 299 842 b 386 903 299 893 319 903 b 807 431 647 903 807 697 b 453 72 807 238 725 72 z "},"Ð":{"ha":1035,"x_min":0,"x_max":0,"o":"m 124 972 b 50 939 72 972 50 967 b 138 760 50 876 138 926 l 138 522 l 63 522 b 25 489 33 522 25 510 b 63 447 25 461 29 447 l 138 447 l 138 213 b 50 33 138 46 50 96 b 124 0 50 6 72 0 l 469 0 b 978 503 819 0 978 236 b 432 972 978 726 824 972 z m 453 72 b 299 156 322 72 299 100 l 299 447 l 379 447 b 417 489 411 447 417 460 b 379 522 417 510 408 522 l 299 522 l 299 842 b 386 903 299 893 319 903 b 807 431 647 903 807 697 b 453 72 807 238 725 72 z "},"E":{"ha":856,"x_min":0,"x_max":0,"o":"m 781 268 b 721 214 760 272 743 261 b 544 76 679 122 653 76 l 444 75 b 299 142 318 75 299 94 l 299 469 b 397 538 299 532 336 538 l 424 538 b 632 407 567 536 575 393 b 650 476 656 414 661 425 l 619 614 b 581 657 613 643 603 657 b 424 611 538 657 553 611 l 397 611 b 299 679 336 611 299 617 l 299 833 b 440 897 299 878 318 897 l 511 897 b 715 765 606 897 664 853 b 776 722 736 729 751 715 b 794 782 799 729 800 750 b 758 928 785 843 772 890 b 650 974 746 965 731 974 l 124 972 b 50 939 72 972 50 967 b 138 760 50 876 138 926 l 138 213 b 50 33 138 46 50 96 b 124 0 50 6 72 0 l 669 0 b 783 53 757 0 774 17 b 806 213 794 93 801 140 b 781 268 807 243 804 263 z "},"":{"ha":856,"x_min":0,"x_max":0,"o":"m 781 268 b 721 214 760 272 743 261 b 544 76 679 122 653 76 l 444 75 b 299 142 318 75 299 94 l 299 469 b 397 538 299 532 336 538 l 424 538 b 632 407 567 536 575 393 b 650 476 656 414 661 425 l 619 614 b 581 657 613 643 603 657 b 424 611 538 657 553 611 l 397 611 b 299 679 336 611 299 617 l 299 833 b 440 897 299 878 318 897 l 511 897 b 715 765 606 897 664 853 b 776 722 736 729 751 715 b 794 782 799 729 800 750 b 758 928 785 843 772 890 b 650 974 746 965 731 974 l 124 972 b 50 939 72 972 50 967 b 138 760 50 876 138 926 l 138 213 b 50 33 138 46 50 96 b 124 0 50 6 72 0 l 669 0 b 783 53 757 0 774 17 b 806 213 794 93 801 140 b 781 268 807 243 804 263 z "},"É":{"ha":856,"x_min":0,"x_max":0,"o":"m 360 1056 b 581 1181 429 1044 571 1111 b 531 1257 588 1219 561 1251 b 414 1189 494 1264 461 1232 b 322 1082 372 1149 325 1101 b 360 1056 321 1068 338 1058 z m 781 268 b 721 214 760 272 743 261 b 544 76 679 122 653 76 l 444 75 b 299 142 318 75 299 94 l 299 469 b 397 538 299 532 336 538 l 424 538 b 632 407 567 536 575 393 b 650 476 656 414 661 425 l 619 614 b 581 657 613 643 603 657 b 424 611 538 657 553 611 l 397 611 b 299 679 336 611 299 617 l 299 833 b 440 897 299 878 318 897 l 511 897 b 715 765 606 897 664 853 b 776 722 736 729 751 715 b 794 782 799 729 800 750 b 758 928 785 843 772 890 b 650 974 746 965 731 974 l 124 972 b 50 939 72 972 50 967 b 138 760 50 876 138 926 l 138 213 b 50 33 138 46 50 96 b 124 0 50 6 72 0 l 669 0 b 783 53 757 0 774 17 b 806 213 794 93 801 140 b 781 268 807 243 804 263 z "},"Ě":{"ha":856,"x_min":0,"x_max":0,"o":"m 317 1129 b 435 1047 379 1068 389 1047 b 551 1128 482 1047 485 1063 b 628 1214 593 1169 626 1199 b 608 1235 629 1225 625 1233 b 436 1168 569 1236 481 1200 b 263 1235 392 1200 301 1236 b 243 1214 246 1233 242 1225 b 317 1129 244 1200 275 1172 z m 781 268 b 721 214 760 272 743 261 b 544 76 679 122 653 76 l 444 75 b 299 142 318 75 299 94 l 299 469 b 397 538 299 532 336 538 l 424 538 b 632 407 567 536 575 393 b 650 476 656 414 661 425 l 619 614 b 581 657 613 643 603 657 b 424 611 538 657 553 611 l 397 611 b 299 679 336 611 299 617 l 299 833 b 440 897 299 878 318 897 l 511 897 b 715 765 606 897 664 853 b 776 722 736 729 751 715 b 794 782 799 729 800 750 b 758 928 785 843 772 890 b 650 974 746 965 731 974 l 124 972 b 50 939 72 972 50 967 b 138 760 50 876 138 926 l 138 213 b 50 33 138 46 50 96 b 124 0 50 6 72 0 l 669 0 b 783 53 757 0 774 17 b 806 213 794 93 801 140 b 781 268 807 243 804 263 z "},"Ê":{"ha":856,"x_min":0,"x_max":0,"o":"m 256 1044 b 429 1110 294 1043 385 1079 b 601 1044 474 1079 563 1043 b 621 1064 618 1046 622 1054 b 544 1151 619 1079 586 1108 b 428 1231 478 1217 475 1231 b 310 1149 382 1231 372 1211 b 236 1064 268 1107 238 1079 b 256 1044 235 1054 239 1046 z m 781 268 b 721 214 760 272 743 261 b 544 76 679 122 653 76 l 444 75 b 299 142 318 75 299 94 l 299 469 b 397 538 299 532 336 538 l 424 538 b 632 407 567 536 575 393 b 650 476 656 414 661 425 l 619 614 b 581 657 613 643 603 657 b 424 611 538 657 553 611 l 397 611 b 299 679 336 611 299 617 l 299 833 b 440 897 299 878 318 897 l 511 897 b 715 765 606 897 664 853 b 776 722 736 729 751 715 b 794 782 799 729 800 750 b 758 928 785 843 772 890 b 650 974 746 965 731 974 l 124 972 b 50 939 72 972 50 967 b 138 760 50 876 138 926 l 138 213 b 50 33 138 46 50 96 b 124 0 50 6 72 0 l 669 0 b 783 53 757 0 774 17 b 806 213 794 93 801 140 b 781 268 807 243 804 263 z "},"Ë":{"ha":856,"x_min":0,"x_max":0,"o":"m 292 1071 b 388 1157 342 1071 388 1107 b 317 1226 388 1199 358 1226 b 226 1132 265 1226 226 1179 b 292 1071 226 1094 256 1071 z m 507 1071 b 603 1157 556 1071 603 1107 b 531 1226 603 1199 572 1226 b 440 1132 481 1226 440 1179 b 507 1071 440 1094 469 1071 z m 781 268 b 721 214 760 272 743 261 b 544 76 679 122 653 76 l 444 75 b 299 142 318 75 299 94 l 299 469 b 397 538 299 532 336 538 l 424 538 b 632 407 567 536 575 393 b 650 476 656 414 661 425 l 619 614 b 581 657 613 643 603 657 b 424 611 538 657 553 611 l 397 611 b 299 679 336 611 299 617 l 299 833 b 440 897 299 878 318 897 l 511 897 b 715 765 606 897 664 853 b 776 722 736 729 751 715 b 794 782 799 729 800 750 b 758 928 785 843 772 890 b 650 974 746 965 731 974 l 124 972 b 50 939 72 972 50 967 b 138 760 50 876 138 926 l 138 213 b 50 33 138 46 50 96 b 124 0 50 6 72 0 l 669 0 b 783 53 757 0 774 17 b 806 213 794 93 801 140 b 781 268 807 243 804 263 z "},"Ė":{"ha":856,"x_min":0,"x_max":0,"o":"m 431 1056 b 565 1169 493 1053 563 1111 b 490 1249 567 1211 533 1247 b 357 1132 426 1254 358 1190 b 431 1056 354 1090 385 1057 z m 781 268 b 721 214 760 272 743 261 b 544 76 679 122 653 76 l 444 75 b 299 142 318 75 299 94 l 299 469 b 397 538 299 532 336 538 l 424 538 b 632 407 567 536 575 393 b 650 476 656 414 661 425 l 619 614 b 581 657 613 643 603 657 b 424 611 538 657 553 611 l 397 611 b 299 679 336 611 299 617 l 299 833 b 440 897 299 878 318 897 l 511 897 b 715 765 606 897 664 853 b 776 722 736 729 751 715 b 794 782 799 729 800 750 b 758 928 785 843 772 890 b 650 974 746 965 731 974 l 124 972 b 50 939 72 972 50 967 b 138 760 50 876 138 926 l 138 213 b 50 33 138 46 50 96 b 124 0 50 6 72 0 l 669 0 b 783 53 757 0 774 17 b 806 213 794 93 801 140 b 781 268 807 243 804 263 z "},"È":{"ha":856,"x_min":0,"x_max":0,"o":"m 499 1056 b 535 1082 519 1058 538 1068 b 444 1189 533 1101 486 1149 b 328 1257 397 1232 364 1264 b 278 1181 297 1251 271 1219 b 499 1056 288 1111 428 1044 z m 781 268 b 721 214 760 272 743 261 b 544 76 679 122 653 76 l 444 75 b 299 142 318 75 299 94 l 299 469 b 397 538 299 532 336 538 l 424 538 b 632 407 567 536 575 393 b 650 476 656 414 661 425 l 619 614 b 581 657 613 643 603 657 b 424 611 538 657 553 611 l 397 611 b 299 679 336 611 299 617 l 299 833 b 440 897 299 878 318 897 l 511 897 b 715 765 606 897 664 853 b 776 722 736 729 751 715 b 794 782 799 729 800 750 b 758 928 785 843 772 890 b 650 974 746 965 731 974 l 124 972 b 50 939 72 972 50 967 b 138 760 50 876 138 926 l 138 213 b 50 33 138 46 50 96 b 124 0 50 6 72 0 l 669 0 b 783 53 757 0 774 17 b 806 213 794 93 801 140 b 781 268 807 243 804 263 z "},"Ē":{"ha":856,"x_min":0,"x_max":0,"o":"m 556 1074 b 614 1117 604 1074 610 1082 b 567 1154 618 1144 614 1154 l 253 1154 b 199 1113 207 1154 203 1146 b 242 1074 194 1083 197 1074 z m 781 268 b 721 214 760 272 743 261 b 544 76 679 122 653 76 l 444 75 b 299 142 318 75 299 94 l 299 469 b 397 538 299 532 336 538 l 424 538 b 632 407 567 536 575 393 b 650 476 656 414 661 425 l 619 614 b 581 657 613 643 603 657 b 424 611 538 657 553 611 l 397 611 b 299 679 336 611 299 617 l 299 833 b 440 897 299 878 318 897 l 511 897 b 715 765 606 897 664 853 b 776 722 736 729 751 715 b 794 782 799 729 800 750 b 758 928 785 843 772 890 b 650 974 746 965 731 974 l 124 972 b 50 939 72 972 50 967 b 138 760 50 876 138 926 l 138 213 b 50 33 138 46 50 96 b 124 0 50 6 72 0 l 669 0 b 783 53 757 0 774 17 b 806 213 794 93 801 140 b 781 268 807 243 804 263 z "},"Ę":{"ha":856,"x_min":0,"x_max":0,"o":"m 781 268 b 721 214 760 272 743 261 b 544 76 679 122 653 76 l 444 75 b 299 142 318 75 299 94 l 299 469 b 397 538 299 532 336 538 l 424 538 b 632 407 567 536 575 393 b 650 476 656 414 661 425 l 619 614 b 581 657 613 643 603 657 b 424 611 538 657 553 611 l 397 611 b 299 679 336 611 299 617 l 299 833 b 440 897 299 878 318 897 l 511 897 b 715 765 606 897 664 853 b 776 722 736 729 751 715 b 794 782 799 729 800 750 b 758 928 785 843 772 890 b 650 974 746 965 731 974 l 124 972 b 50 939 72 972 50 967 b 138 760 50 876 138 926 l 138 213 b 50 33 138 46 50 96 b 124 0 50 6 72 0 l 582 0 b 481 -144 518 -42 481 -89 b 617 -257 481 -215 540 -257 b 733 -214 658 -257 704 -243 b 711 -183 750 -196 742 -169 b 657 -196 694 -190 672 -196 b 582 -124 607 -196 582 -167 b 642 0 582 -89 599 -49 l 669 0 b 783 53 757 0 774 17 b 806 213 794 93 801 140 b 781 268 807 243 804 263 z "},"F":{"ha":803,"x_min":0,"x_max":0,"o":"m 788 782 b 753 928 779 843 765 890 b 644 974 739 965 724 974 l 124 972 b 50 939 72 972 50 967 b 138 760 50 876 138 926 l 138 217 b 50 33 138 54 50 93 b 124 0 50 8 72 0 l 310 0 b 383 33 364 0 383 8 b 299 217 383 93 299 54 l 299 456 b 397 524 299 519 336 524 l 432 524 b 640 394 575 524 582 379 b 658 464 664 400 669 411 l 628 601 b 589 644 621 629 611 644 b 432 599 546 644 561 599 l 397 599 b 299 667 336 599 299 603 l 299 832 b 440 897 299 878 318 897 l 504 897 b 708 765 600 897 658 853 b 769 722 729 729 744 715 b 788 782 792 729 793 750 z "},"G":{"ha":1060,"x_min":0,"x_max":0,"o":"m 542 -12 b 935 186 754 -11 935 94 l 935 299 b 986 458 935 435 986 407 b 931 492 986 483 964 492 l 701 490 b 629 457 649 490 629 482 b 774 297 629 396 774 431 l 774 179 b 581 78 774 114 667 78 b 222 547 357 78 221 279 b 522 901 222 733 331 901 b 807 724 681 901 746 810 b 874 669 833 686 849 667 b 903 725 901 672 907 692 b 867 911 890 807 878 865 b 813 983 854 969 838 983 b 743 965 785 983 776 965 b 558 986 707 965 660 986 b 54 465 267 986 54 756 b 542 -12 54 188 244 -15 z "},"Ğ":{"ha":1060,"x_min":0,"x_max":0,"o":"m 549 1050 b 733 1217 658 1050 731 1125 b 713 1253 733 1239 726 1253 b 689 1236 704 1253 699 1249 b 550 1161 653 1186 613 1161 b 410 1236 485 1161 446 1188 b 386 1253 401 1249 394 1253 b 365 1217 372 1253 364 1239 b 549 1050 368 1128 433 1050 z m 542 -12 b 935 186 754 -11 935 94 l 935 299 b 986 458 935 435 986 407 b 931 492 986 483 964 492 l 701 490 b 629 457 649 490 629 482 b 774 297 629 396 774 431 l 774 179 b 581 78 774 114 667 78 b 222 547 357 78 221 279 b 522 901 222 733 331 901 b 807 724 681 901 746 810 b 874 669 833 686 849 667 b 903 725 901 672 907 692 b 867 911 890 807 878 865 b 813 983 854 969 838 983 b 743 965 785 983 776 965 b 558 986 707 965 660 986 b 54 465 267 986 54 756 b 542 -12 54 188 244 -15 z "},"Ġ":{"ha":1060,"x_min":0,"x_max":0,"o":"m 513 1057 b 647 1171 575 1054 644 1113 b 572 1250 649 1213 615 1249 b 439 1133 508 1256 440 1192 b 513 1057 436 1092 467 1058 z m 542 -12 b 935 186 754 -11 935 94 l 935 299 b 986 458 935 435 986 407 b 931 492 986 483 964 492 l 701 490 b 629 457 649 490 629 482 b 774 297 629 396 774 431 l 774 179 b 581 78 774 114 667 78 b 222 547 357 78 221 279 b 522 901 222 733 331 901 b 807 724 681 901 746 810 b 874 669 833 686 849 667 b 903 725 901 672 907 692 b 867 911 890 807 878 865 b 813 983 854 969 838 983 b 743 965 785 983 776 965 b 558 986 707 965 660 986 b 54 465 267 986 54 756 b 542 -12 54 188 244 -15 z "},"H":{"ha":1092,"x_min":0,"x_max":0,"o":"m 956 756 b 1042 939 956 918 1042 879 b 969 972 1042 964 1019 972 l 782 972 b 710 939 729 972 710 964 b 793 756 710 879 793 918 l 793 617 b 553 554 793 554 793 554 b 299 617 299 554 299 554 l 299 756 b 386 939 299 918 386 879 b 313 972 386 964 364 972 l 126 972 b 53 939 72 972 53 964 b 138 756 53 879 138 918 l 138 217 b 50 33 138 54 50 93 b 124 0 50 8 72 0 l 310 0 b 383 33 364 0 383 8 b 299 217 383 93 299 54 l 299 415 b 551 478 299 478 299 478 b 793 415 793 478 793 478 l 793 217 b 707 33 793 54 707 93 b 779 0 707 8 729 0 l 967 0 b 1039 33 1019 0 1039 8 b 956 217 1039 93 956 54 z "},"Ħ":{"ha":1092,"x_min":0,"x_max":0,"o":"m 956 758 b 1042 939 957 918 1042 879 b 969 972 1042 964 1019 972 l 782 972 b 710 939 729 972 710 964 b 793 758 710 879 792 918 l 299 758 b 386 939 300 918 386 879 b 313 972 386 964 364 972 l 126 972 b 53 939 72 972 53 964 b 138 758 53 879 136 918 l 85 758 b 54 728 64 758 54 747 l 54 715 b 85 683 54 696 64 683 l 138 683 l 138 217 b 50 33 138 54 50 93 b 124 0 50 8 72 0 l 310 0 b 383 33 364 0 383 8 b 299 217 383 93 299 54 l 299 415 b 551 478 299 478 299 478 b 793 415 793 478 793 478 l 793 217 b 707 33 793 54 707 93 b 779 0 707 8 729 0 l 967 0 b 1039 33 1019 0 1039 8 b 956 217 1039 93 956 54 l 956 683 l 1028 683 b 1058 715 1049 683 1058 696 l 1058 728 b 1028 758 1058 747 1049 758 z m 793 617 b 553 554 793 554 793 554 b 299 617 299 554 299 554 l 299 683 l 793 683 z "},"I":{"ha":436,"x_min":0,"x_max":0,"o":"m 138 217 b 50 33 138 54 50 93 b 124 0 50 8 72 0 l 310 0 b 383 33 364 0 383 8 b 299 217 383 93 299 54 l 299 756 b 386 939 299 918 386 879 b 313 972 386 964 364 972 l 126 972 b 53 939 72 972 53 964 b 138 756 53 879 138 918 z "},"Í":{"ha":436,"x_min":0,"x_max":0,"o":"m 185 1056 b 406 1181 254 1044 396 1111 b 356 1257 413 1219 386 1251 b 239 1189 319 1264 286 1232 b 147 1082 197 1149 150 1101 b 185 1056 146 1068 163 1058 z m 138 217 b 50 33 138 54 50 93 b 124 0 50 8 72 0 l 310 0 b 383 33 364 0 383 8 b 299 217 383 93 299 54 l 299 756 b 386 939 299 918 386 879 b 313 972 386 964 364 972 l 126 972 b 53 939 72 972 53 964 b 138 756 53 879 138 918 z "},"Î":{"ha":436,"x_min":0,"x_max":0,"o":"m 53 1044 b 226 1110 92 1043 182 1079 b 399 1044 271 1079 360 1043 b 418 1064 415 1046 419 1054 b 342 1151 417 1079 383 1108 b 225 1231 275 1217 272 1231 b 107 1149 179 1231 169 1211 b 33 1064 65 1107 35 1079 b 53 1044 32 1054 36 1046 z m 138 217 b 50 33 138 54 50 93 b 124 0 50 8 72 0 l 310 0 b 383 33 364 0 383 8 b 299 217 383 93 299 54 l 299 756 b 386 939 299 918 386 879 b 313 972 386 964 364 972 l 126 972 b 53 939 72 972 53 964 b 138 756 53 879 138 918 z "},"Ï":{"ha":436,"x_min":0,"x_max":0,"o":"m 117 1071 b 213 1157 167 1071 213 1107 b 142 1226 213 1199 183 1226 b 51 1132 90 1226 51 1179 b 117 1071 51 1094 81 1071 z m 332 1071 b 428 1157 381 1071 428 1107 b 356 1226 428 1199 397 1226 b 265 1132 306 1226 265 1179 b 332 1071 265 1094 294 1071 z m 138 217 b 50 33 138 54 50 93 b 124 0 50 8 72 0 l 310 0 b 383 33 364 0 383 8 b 299 217 383 93 299 54 l 299 756 b 386 939 299 918 386 879 b 313 972 386 964 364 972 l 126 972 b 53 939 72 972 53 964 b 138 756 53 879 138 918 z "},"İ":{"ha":436,"x_min":0,"x_max":0,"o":"m 214 1057 b 349 1171 276 1054 346 1113 b 274 1250 350 1213 317 1249 b 140 1133 210 1256 142 1192 b 214 1057 138 1092 168 1058 z m 138 217 b 50 33 138 54 50 93 b 124 0 50 8 72 0 l 310 0 b 383 33 364 0 383 8 b 299 217 383 93 299 54 l 299 756 b 386 939 299 918 386 879 b 313 972 386 964 364 972 l 126 972 b 53 939 72 972 53 964 b 138 756 53 879 138 918 z "},"Ì":{"ha":436,"x_min":0,"x_max":0,"o":"m 282 1056 b 318 1082 303 1058 321 1068 b 228 1189 317 1101 269 1149 b 111 1257 181 1232 147 1264 b 61 1181 81 1251 54 1219 b 282 1056 71 1111 211 1044 z m 138 217 b 50 33 138 54 50 93 b 124 0 50 8 72 0 l 310 0 b 383 33 364 0 383 8 b 299 217 383 93 299 54 l 299 756 b 386 939 299 918 386 879 b 313 972 386 964 364 972 l 126 972 b 53 939 72 972 53 964 b 138 756 53 879 138 918 z "},"Ī":{"ha":436,"x_min":0,"x_max":0,"o":"m 367 1074 b 425 1117 415 1074 421 1082 b 378 1154 429 1144 425 1154 l 64 1154 b 10 1113 18 1154 14 1146 b 53 1074 6 1083 8 1074 z m 138 217 b 50 33 138 54 50 93 b 124 0 50 8 72 0 l 310 0 b 383 33 364 0 383 8 b 299 217 383 93 299 54 l 299 756 b 386 939 299 918 386 879 b 313 972 386 964 364 972 l 126 972 b 53 939 72 972 53 964 b 138 756 53 879 138 918 z "},"Į":{"ha":436,"x_min":0,"x_max":0,"o":"m 400 -183 b 346 -196 383 -190 361 -196 b 271 -124 296 -196 271 -167 b 332 0 271 -89 288 -47 b 383 33 369 3 383 13 b 299 217 383 93 299 54 l 299 756 b 386 939 299 918 386 879 b 313 972 386 964 364 972 l 126 972 b 53 939 72 972 53 964 b 138 756 53 879 138 918 l 138 217 b 50 33 138 54 50 93 b 124 0 50 8 72 0 l 271 0 b 169 -144 207 -42 169 -89 b 306 -257 169 -215 229 -257 b 422 -214 347 -257 393 -243 b 400 -183 439 -196 431 -169 z "},"J":{"ha":718,"x_min":0,"x_max":0,"o":"m 435 344 b 301 71 435 175 394 71 b 176 225 224 71 192 135 b 94 303 171 268 146 303 b 18 218 53 303 18 274 b 283 -12 18 104 106 -12 b 597 400 531 -12 597 147 l 597 756 b 683 939 597 918 683 879 b 611 972 683 964 661 972 l 424 972 b 350 939 369 972 350 964 b 435 756 350 879 435 918 z "},"K":{"ha":997,"x_min":0,"x_max":0,"o":"m 757 821 b 911 939 854 911 911 885 b 838 972 911 964 888 972 l 679 972 b 626 938 646 972 626 964 b 643 821 626 889 724 896 l 299 500 l 299 756 b 386 939 299 918 386 879 b 313 972 386 964 364 972 l 126 972 b 53 939 72 972 53 964 b 138 756 53 879 138 918 l 138 217 b 50 33 138 54 50 93 b 124 0 50 8 72 0 l 310 0 b 383 33 364 0 383 8 b 299 217 383 93 299 54 l 299 394 l 522 601 l 713 167 b 681 36 751 79 681 78 b 754 0 681 8 703 0 l 936 0 b 999 33 979 0 999 8 b 885 171 999 86 935 64 l 640 713 z "},"L":{"ha":782,"x_min":0,"x_max":0,"o":"m 725 268 b 665 214 704 272 688 261 b 489 76 624 122 597 76 l 414 75 b 299 142 318 75 299 94 l 299 756 b 386 939 299 918 386 879 b 313 972 386 964 364 972 l 126 972 b 53 939 72 972 53 964 b 138 756 53 879 138 918 l 138 213 b 50 33 138 46 50 96 b 124 0 50 6 72 0 l 614 0 b 728 53 701 0 718 17 b 750 213 739 93 746 140 b 725 268 751 243 749 263 z "},"Ĺ":{"ha":782,"x_min":0,"x_max":0,"o":"m 189 1056 b 410 1181 258 1044 400 1111 b 360 1257 417 1219 390 1251 b 243 1189 324 1264 290 1232 b 151 1082 201 1149 154 1101 b 189 1056 150 1068 167 1058 z m 725 268 b 665 214 704 272 688 261 b 489 76 624 122 597 76 l 414 75 b 299 142 318 75 299 94 l 299 756 b 386 939 299 918 386 879 b 313 972 386 964 364 972 l 126 972 b 53 939 72 972 53 964 b 138 756 53 879 138 918 l 138 213 b 50 33 138 46 50 96 b 124 0 50 6 72 0 l 614 0 b 728 53 701 0 718 17 b 750 213 739 93 746 140 b 725 268 751 243 749 263 z "},"Ľ":{"ha":782,"x_min":0,"x_max":0,"o":"m 553 664 b 675 910 596 664 675 849 b 615 978 675 954 649 978 b 551 906 582 978 556 956 b 532 690 549 886 536 746 b 553 664 529 674 539 664 z m 725 268 b 665 214 704 272 688 261 b 489 76 624 122 597 76 l 414 75 b 299 142 318 75 299 94 l 299 756 b 386 939 299 918 386 879 b 313 972 386 964 364 972 l 126 972 b 53 939 72 972 53 964 b 138 756 53 879 138 918 l 138 213 b 50 33 138 46 50 96 b 124 0 50 6 72 0 l 614 0 b 728 53 701 0 718 17 b 750 213 739 93 746 140 b 725 268 751 243 749 263 z "},"Ł":{"ha":782,"x_min":0,"x_max":0,"o":"m 725 268 b 665 214 704 272 688 261 b 489 76 624 122 597 76 l 414 75 b 299 142 318 75 299 94 l 299 483 l 417 551 b 426 599 439 565 438 579 b 382 614 414 621 400 625 l 299 565 l 299 756 b 386 939 299 918 386 879 b 313 972 386 964 364 972 l 126 972 b 53 939 72 972 53 964 b 138 756 53 879 138 918 l 138 474 l 54 425 b 46 379 35 414 32 400 b 89 363 57 357 71 351 l 138 390 l 138 213 b 50 33 138 46 50 96 b 124 0 50 6 72 0 l 614 0 b 728 53 701 0 718 17 b 750 213 739 93 746 140 b 725 268 751 243 749 263 z "},"M":{"ha":1240,"x_min":0,"x_max":0,"o":"m 1079 803 b 1151 940 1075 906 1151 890 b 1090 972 1151 964 1135 972 l 963 972 b 917 942 940 972 926 963 l 611 276 l 331 942 b 285 972 321 963 307 972 l 149 972 b 89 940 104 972 89 964 b 161 803 89 893 165 899 l 135 171 b 53 33 131 67 53 79 b 117 0 53 8 74 0 l 225 0 b 288 33 268 0 288 7 b 219 171 288 81 215 67 l 239 757 l 524 78 b 572 60 531 63 544 53 b 617 93 597 65 607 75 l 926 767 l 939 189 b 861 35 942 74 861 93 b 935 0 861 8 883 0 l 1117 0 b 1185 35 1165 0 1185 8 b 1099 189 1185 97 1103 69 z "},"N":{"ha":1053,"x_min":0,"x_max":0,"o":"m 838 972 b 775 939 794 972 775 965 b 850 801 775 892 850 906 l 851 315 l 261 944 b 206 972 243 963 229 972 l 118 972 b 46 939 68 972 46 967 b 132 760 46 876 132 926 l 132 171 b 58 33 132 67 58 79 b 121 0 58 8 78 0 l 229 0 b 293 33 272 0 293 7 b 217 171 293 81 218 67 l 215 757 l 813 126 b 851 38 840 96 851 69 b 892 0 851 18 865 0 b 935 50 921 0 935 13 l 935 801 b 1010 939 935 906 1010 893 b 946 972 1010 965 989 972 z "},"Ń":{"ha":1053,"x_min":0,"x_max":0,"o":"m 490 1056 b 711 1181 560 1044 701 1111 b 661 1257 718 1219 692 1251 b 544 1189 625 1264 592 1232 b 453 1082 503 1149 456 1101 b 490 1056 451 1068 468 1058 z m 838 972 b 775 939 794 972 775 965 b 850 801 775 892 850 906 l 851 315 l 261 944 b 206 972 243 963 229 972 l 118 972 b 46 939 68 972 46 967 b 132 760 46 876 132 926 l 132 171 b 58 33 132 67 58 79 b 121 0 58 8 78 0 l 229 0 b 293 33 272 0 293 7 b 217 171 293 81 218 67 l 215 757 l 813 126 b 851 38 840 96 851 69 b 892 0 851 18 865 0 b 935 50 921 0 935 13 l 935 801 b 1010 939 935 906 1010 893 b 946 972 1010 965 989 972 z "},"Ň":{"ha":1053,"x_min":0,"x_max":0,"o":"m 414 1129 b 532 1047 476 1068 486 1047 b 649 1128 579 1047 582 1063 b 725 1214 690 1169 724 1199 b 706 1235 726 1225 722 1233 b 533 1168 667 1236 578 1200 b 360 1235 489 1200 399 1236 b 340 1214 343 1233 339 1225 b 414 1129 342 1200 372 1172 z m 838 972 b 775 939 794 972 775 965 b 850 801 775 892 850 906 l 851 315 l 261 944 b 206 972 243 963 229 972 l 118 972 b 46 939 68 972 46 967 b 132 760 46 876 132 926 l 132 171 b 58 33 132 67 58 79 b 121 0 58 8 78 0 l 229 0 b 293 33 272 0 293 7 b 217 171 293 81 218 67 l 215 757 l 813 126 b 851 38 840 96 851 69 b 892 0 851 18 865 0 b 935 50 921 0 935 13 l 935 801 b 1010 939 935 906 1010 893 b 946 972 1010 965 989 972 z "},"Ñ":{"ha":1053,"x_min":0,"x_max":0,"o":"m 353 1069 b 403 1111 353 1100 372 1111 b 632 1053 476 1111 564 1053 b 735 1143 700 1053 735 1094 b 689 1185 735 1200 689 1219 b 640 1144 689 1156 671 1144 b 410 1203 594 1144 494 1203 b 308 1113 342 1203 308 1160 b 353 1069 308 1056 353 1036 z m 838 972 b 775 939 794 972 775 965 b 850 801 775 892 850 906 l 851 315 l 261 944 b 206 972 243 963 229 972 l 118 972 b 46 939 68 972 46 967 b 132 760 46 876 132 926 l 132 171 b 58 33 132 67 58 79 b 121 0 58 8 78 0 l 229 0 b 293 33 272 0 293 7 b 217 171 293 81 218 67 l 215 757 l 813 126 b 851 38 840 96 851 69 b 892 0 851 18 865 0 b 935 50 921 0 935 13 l 935 801 b 1010 939 935 906 1010 893 b 946 972 1010 965 989 972 z "},"O":{"ha":1081,"x_min":0,"x_max":0,"o":"m 511 -14 b 1024 517 814 -14 1024 214 b 569 986 1024 783 846 986 b 54 449 271 986 54 746 b 511 -14 54 179 242 -14 z m 576 81 b 215 563 353 81 215 307 b 510 900 215 732 315 900 b 864 425 728 900 864 668 b 576 81 864 243 771 81 z "},"Ó":{"ha":1081,"x_min":0,"x_max":0,"o":"m 506 1056 b 726 1181 575 1044 717 1111 b 676 1257 733 1219 707 1251 b 560 1189 640 1264 607 1232 b 468 1082 518 1149 471 1101 b 506 1056 467 1068 483 1058 z m 511 -14 b 1024 517 814 -14 1024 214 b 569 986 1024 783 846 986 b 54 449 271 986 54 746 b 511 -14 54 179 242 -14 z m 576 81 b 215 563 353 81 215 307 b 510 900 215 732 315 900 b 864 425 728 900 864 668 b 576 81 864 243 771 81 z "},"Ô":{"ha":1081,"x_min":0,"x_max":0,"o":"m 374 1044 b 547 1110 413 1043 503 1079 b 719 1044 592 1079 681 1043 b 739 1064 736 1046 740 1054 b 663 1151 738 1079 704 1108 b 546 1231 596 1217 593 1231 b 428 1149 500 1231 490 1211 b 354 1064 386 1107 356 1079 b 374 1044 353 1054 357 1046 z m 511 -14 b 1024 517 814 -14 1024 214 b 569 986 1024 783 846 986 b 54 449 271 986 54 746 b 511 -14 54 179 242 -14 z m 576 81 b 215 563 353 81 215 307 b 510 900 215 732 315 900 b 864 425 728 900 864 668 b 576 81 864 243 771 81 z "},"Ö":{"ha":1081,"x_min":0,"x_max":0,"o":"m 438 1071 b 533 1157 488 1071 533 1107 b 463 1226 533 1199 504 1226 b 372 1132 411 1226 372 1179 b 438 1071 372 1094 401 1071 z m 653 1071 b 749 1157 701 1071 749 1107 b 676 1226 749 1199 718 1226 b 586 1132 626 1226 586 1179 b 653 1071 586 1094 615 1071 z m 511 -14 b 1024 517 814 -14 1024 214 b 569 986 1024 783 846 986 b 54 449 271 986 54 746 b 511 -14 54 179 242 -14 z m 576 81 b 215 563 353 81 215 307 b 510 900 215 732 315 900 b 864 425 728 900 864 668 b 576 81 864 243 771 81 z "},"Ò":{"ha":1081,"x_min":0,"x_max":0,"o":"m 603 1056 b 639 1082 624 1058 642 1068 b 549 1189 638 1101 590 1149 b 432 1257 501 1232 468 1264 b 382 1181 401 1251 375 1219 b 603 1056 392 1111 532 1044 z m 511 -14 b 1024 517 814 -14 1024 214 b 569 986 1024 783 846 986 b 54 449 271 986 54 746 b 511 -14 54 179 242 -14 z m 576 81 b 215 563 353 81 215 307 b 510 900 215 732 315 900 b 864 425 728 900 864 668 b 576 81 864 243 771 81 z "},"Ő":{"ha":1081,"x_min":0,"x_max":0,"o":"m 357 1058 b 579 1189 431 1058 579 1124 b 514 1246 579 1217 549 1246 b 406 1183 483 1246 449 1218 b 307 1079 367 1151 307 1099 b 357 1058 307 1067 328 1058 z m 626 1056 b 854 1175 700 1053 850 1110 b 792 1235 856 1201 828 1233 b 681 1178 761 1236 726 1211 b 578 1079 640 1149 579 1099 b 626 1056 576 1067 596 1057 z m 511 -14 b 1024 517 814 -14 1024 214 b 569 986 1024 783 846 986 b 54 449 271 986 54 746 b 511 -14 54 179 242 -14 z m 576 81 b 215 563 353 81 215 307 b 510 900 215 732 315 900 b 864 425 728 900 864 668 b 576 81 864 243 771 81 z "},"Ō":{"ha":1081,"x_min":0,"x_max":0,"o":"m 688 1074 b 746 1117 736 1074 742 1082 b 699 1154 750 1144 746 1154 l 385 1154 b 331 1113 339 1154 335 1146 b 374 1074 326 1083 329 1074 z m 511 -14 b 1024 517 814 -14 1024 214 b 569 986 1024 783 846 986 b 54 449 271 986 54 746 b 511 -14 54 179 242 -14 z m 576 81 b 215 563 353 81 215 307 b 510 900 215 732 315 900 b 864 425 728 900 864 668 b 576 81 864 243 771 81 z "},"Ø":{"ha":1081,"x_min":0,"x_max":0,"o":"m 913 1050 b 900 1100 926 1074 924 1086 b 850 1089 876 1115 861 1110 l 767 946 b 569 986 710 972 643 986 b 54 449 271 986 54 746 b 254 57 54 278 131 138 l 183 -65 b 196 -115 172 -85 174 -100 b 246 -104 218 -129 232 -129 l 319 24 b 511 -14 376 -1 442 -14 b 1024 517 814 -14 1024 214 b 832 910 1024 685 953 828 z m 215 563 b 510 900 215 732 315 900 b 700 829 583 900 647 874 l 335 196 b 215 563 258 286 215 419 z m 576 81 b 389 144 504 81 442 104 l 753 775 b 864 425 824 685 864 557 b 576 81 864 243 771 81 z "},"Õ":{"ha":1081,"x_min":0,"x_max":0,"o":"m 647 1053 b 750 1143 715 1053 750 1094 b 704 1185 750 1200 704 1219 b 656 1144 704 1156 686 1144 b 425 1203 610 1144 510 1203 b 324 1113 357 1203 324 1160 b 368 1069 324 1056 368 1036 b 418 1111 368 1100 388 1111 b 647 1053 492 1111 579 1053 z m 511 -14 b 1024 517 814 -14 1024 214 b 569 986 1024 783 846 986 b 54 449 271 986 54 746 b 511 -14 54 179 242 -14 z m 576 81 b 215 563 353 81 215 307 b 510 900 215 732 315 900 b 864 425 728 900 864 668 b 576 81 864 243 771 81 z "},"Œ":{"ha":1608,"x_min":0,"x_max":0,"o":"m 1538 251 b 1476 208 1513 258 1497 244 b 1272 76 1426 121 1368 76 l 1175 75 b 1039 125 1057 75 1039 93 l 1039 485 l 1247 485 b 1456 354 1390 483 1397 339 b 1474 424 1479 360 1485 372 l 1443 561 b 1404 604 1436 589 1426 604 b 1247 558 1361 604 1376 558 l 1039 558 l 1039 847 b 1175 897 1039 879 1057 897 l 1249 897 b 1453 765 1344 897 1403 853 b 1514 722 1474 729 1489 715 b 1532 782 1536 729 1538 750 b 1496 928 1522 843 1510 890 b 1389 974 1483 965 1468 974 l 917 972 b 875 931 890 972 875 957 l 875 876 b 569 986 797 946 693 986 b 54 449 271 986 54 746 b 511 -14 54 179 242 -14 b 875 132 660 -14 785 40 l 875 42 b 917 0 875 15 890 0 l 1413 0 b 1519 46 1492 0 1507 7 b 1556 192 1533 83 1546 131 b 1538 251 1561 224 1560 244 z m 576 81 b 215 563 353 81 215 307 b 510 900 215 732 315 900 b 864 425 728 900 864 668 b 576 81 864 243 771 81 z "},"P":{"ha":889,"x_min":0,"x_max":0,"o":"m 124 972 b 50 939 72 972 50 967 b 138 760 50 876 138 926 l 138 217 b 50 33 138 54 50 93 b 124 0 50 8 72 0 l 310 0 b 383 33 364 0 383 8 b 299 217 383 93 299 54 l 299 275 b 326 303 299 301 303 303 l 436 303 b 858 619 714 303 858 414 b 397 972 858 819 694 972 z m 429 375 b 299 418 318 375 299 389 l 299 863 b 394 900 299 892 308 900 b 689 596 563 900 689 779 b 429 375 689 438 583 375 z "},"Þ":{"ha":840,"x_min":0,"x_max":0,"o":"m 299 800 b 365 944 299 910 365 900 b 303 972 365 965 347 972 l 135 972 b 71 944 88 972 71 964 b 138 794 71 903 138 903 l 138 218 b 50 35 138 56 50 94 b 124 1 50 10 72 1 l 310 1 b 383 35 364 1 383 10 b 299 208 383 93 303 57 b 326 229 300 228 306 229 l 418 229 b 811 494 679 229 811 314 b 399 801 811 686 656 803 z m 401 303 b 299 342 313 303 299 311 l 299 692 b 351 729 299 721 310 731 b 636 492 519 728 636 647 b 401 303 636 361 543 303 z "},"Q":{"ha":1081,"x_min":0,"x_max":0,"o":"m 986 -37 b 882 -75 956 -37 957 -75 b 510 -14 765 -75 631 -44 l 511 -14 b 1024 517 814 -14 1024 214 b 569 986 1024 783 846 986 b 54 449 271 986 54 746 b 279 43 54 267 140 119 b 189 53 244 49 215 53 b 97 -19 125 53 97 17 b 122 -56 97 -37 106 -56 b 175 -33 138 -56 142 -33 b 406 -103 219 -33 288 -58 b 829 -226 551 -160 719 -226 b 1013 -86 964 -226 1013 -156 b 986 -37 1013 -53 999 -37 z m 510 900 b 864 425 728 900 864 668 b 576 81 864 243 771 81 b 215 563 353 81 215 307 b 510 900 215 732 315 900 z "},"R":{"ha":935,"x_min":0,"x_max":0,"o":"m 661 397 b 846 663 781 442 846 532 b 401 972 846 825 704 972 l 124 972 b 50 939 72 972 50 967 b 138 760 50 876 138 926 l 138 217 b 50 33 138 54 50 93 b 124 0 50 8 72 0 l 310 0 b 383 33 364 0 383 8 b 299 217 383 93 299 54 l 299 351 b 413 383 299 397 338 393 b 535 322 488 374 510 365 l 619 167 b 594 36 665 83 594 78 b 663 0 594 8 618 0 l 840 0 b 903 33 883 0 903 8 b 792 161 903 86 844 67 z m 471 451 b 299 519 410 454 299 467 l 299 863 b 397 900 299 892 314 900 b 676 644 572 899 676 783 b 471 451 676 522 601 443 z "},"Ŕ":{"ha":935,"x_min":0,"x_max":0,"o":"m 251 1056 b 472 1181 321 1044 463 1111 b 422 1257 479 1219 453 1251 b 306 1189 386 1264 353 1232 b 214 1082 264 1149 217 1101 b 251 1056 213 1068 229 1058 z m 661 397 b 846 663 781 442 846 532 b 401 972 846 825 704 972 l 124 972 b 50 939 72 972 50 967 b 138 760 50 876 138 926 l 138 217 b 50 33 138 54 50 93 b 124 0 50 8 72 0 l 310 0 b 383 33 364 0 383 8 b 299 217 383 93 299 54 l 299 351 b 413 383 299 397 338 393 b 535 322 488 374 510 365 l 619 167 b 594 36 665 83 594 78 b 663 0 594 8 618 0 l 840 0 b 903 33 883 0 903 8 b 792 161 903 86 844 67 z m 471 451 b 299 519 410 454 299 467 l 299 863 b 397 900 299 892 314 900 b 676 644 572 899 676 783 b 471 451 676 522 601 443 z "},"Ř":{"ha":935,"x_min":0,"x_max":0,"o":"m 304 1129 b 422 1047 367 1068 376 1047 b 539 1128 469 1047 472 1063 b 615 1214 581 1169 614 1199 b 596 1235 617 1225 613 1233 b 424 1168 557 1236 468 1200 b 250 1235 379 1200 289 1236 b 231 1214 233 1233 229 1225 b 304 1129 232 1200 263 1172 z m 661 397 b 846 663 781 442 846 532 b 401 972 846 825 704 972 l 124 972 b 50 939 72 972 50 967 b 138 760 50 876 138 926 l 138 217 b 50 33 138 54 50 93 b 124 0 50 8 72 0 l 310 0 b 383 33 364 0 383 8 b 299 217 383 93 299 54 l 299 351 b 413 383 299 397 338 393 b 535 322 488 374 510 365 l 619 167 b 594 36 665 83 594 78 b 663 0 594 8 618 0 l 840 0 b 903 33 883 0 903 8 b 792 161 903 86 844 67 z m 471 451 b 299 519 410 454 299 467 l 299 863 b 397 900 299 892 314 900 b 676 644 572 899 676 783 b 471 451 676 522 601 443 z "},"S":{"ha":831,"x_min":0,"x_max":0,"o":"m 419 -14 b 775 276 606 -12 779 96 b 474 567 771 438 628 490 b 244 774 336 636 244 676 b 401 908 244 851 299 908 b 639 746 517 908 593 815 b 699 694 661 711 678 694 b 726 749 724 694 731 717 b 697 911 718 814 707 865 b 646 983 683 969 672 983 b 581 967 621 983 614 967 b 426 983 544 967 490 983 b 90 721 217 983 90 861 b 374 425 90 554 226 499 b 608 213 490 368 613 319 b 435 65 606 136 553 65 b 156 264 274 67 196 178 b 99 317 135 301 121 317 b 72 261 75 317 69 294 b 100 63 79 181 90 118 b 151 -12 110 4 126 -12 b 221 8 176 -12 183 8 b 419 -14 260 8 315 -14 z "},"":{"ha":831,"x_min":0,"x_max":0,"o":"m 419 -14 b 775 276 606 -12 779 96 b 474 567 771 438 628 490 b 244 774 336 636 244 676 b 401 908 244 851 299 908 b 639 746 517 908 593 815 b 699 694 661 711 678 694 b 726 749 724 694 731 717 b 697 911 718 814 707 865 b 646 983 683 969 672 983 b 581 967 621 983 614 967 b 426 983 544 967 490 983 b 90 721 217 983 90 861 b 374 425 90 554 226 499 b 608 213 490 368 613 319 b 435 65 606 136 553 65 b 156 264 274 67 196 178 b 99 317 135 301 121 317 b 72 261 75 317 69 294 b 100 63 79 181 90 118 b 151 -12 110 4 126 -12 b 221 8 176 -12 183 8 b 419 -14 260 8 315 -14 z "},"Ś":{"ha":831,"x_min":0,"x_max":0,"o":"m 357 1064 b 578 1189 426 1053 568 1119 b 528 1265 585 1228 558 1260 b 411 1197 492 1272 458 1240 b 319 1090 369 1157 322 1110 b 357 1064 318 1076 335 1067 z m 419 -14 b 775 276 606 -12 779 96 b 474 567 771 438 628 490 b 244 774 336 636 244 676 b 401 908 244 851 299 908 b 639 746 517 908 593 815 b 699 694 661 711 678 694 b 726 749 724 694 731 717 b 697 911 718 814 707 865 b 646 983 683 969 672 983 b 581 967 621 983 614 967 b 426 983 544 967 490 983 b 90 721 217 983 90 861 b 374 425 90 554 226 499 b 608 213 490 368 613 319 b 435 65 606 136 553 65 b 156 264 274 67 196 178 b 99 317 135 301 121 317 b 72 261 75 317 69 294 b 100 63 79 181 90 118 b 151 -12 110 4 126 -12 b 221 8 176 -12 183 8 b 419 -14 260 8 315 -14 z "},"Š":{"ha":831,"x_min":0,"x_max":0,"o":"m 225 1243 b 206 1222 208 1242 204 1233 b 279 1138 207 1208 238 1181 b 397 1056 342 1076 351 1056 b 514 1136 444 1056 447 1071 b 590 1222 556 1178 589 1207 b 571 1243 592 1233 588 1242 b 399 1176 532 1244 443 1208 b 225 1243 354 1208 264 1244 z m 419 -14 b 775 276 606 -12 779 96 b 474 567 771 438 628 490 b 244 774 336 636 244 676 b 401 908 244 851 299 908 b 639 746 517 908 593 815 b 699 694 661 711 678 694 b 726 749 724 694 731 717 b 697 911 718 814 707 865 b 646 983 683 969 672 983 b 581 967 621 983 614 967 b 426 983 544 967 490 983 b 90 721 217 983 90 861 b 374 425 90 554 226 499 b 608 213 490 368 613 319 b 435 65 606 136 553 65 b 156 264 274 67 196 178 b 99 317 135 301 121 317 b 72 261 75 317 69 294 b 100 63 79 181 90 118 b 151 -12 110 4 126 -12 b 221 8 176 -12 183 8 b 419 -14 260 8 315 -14 z "},"Ş":{"ha":831,"x_min":0,"x_max":0,"o":"m 775 276 b 474 567 771 438 628 490 b 244 774 336 636 244 676 b 401 908 244 851 299 908 b 639 746 517 908 593 815 b 699 694 661 711 678 694 b 726 749 724 694 731 717 b 697 911 718 814 707 865 b 646 983 683 969 672 983 b 581 967 621 983 614 967 b 426 983 544 967 490 983 b 90 721 217 983 90 861 b 374 425 90 554 226 499 b 608 213 490 368 613 319 b 435 65 606 136 553 65 b 156 264 274 67 196 178 b 99 317 135 301 121 317 b 72 261 75 317 69 294 b 100 63 79 181 90 118 b 151 -12 110 4 126 -12 b 221 8 176 -12 183 8 b 374 -12 254 8 299 -7 l 331 -93 b 347 -118 322 -107 333 -115 b 439 -190 390 -128 439 -144 b 378 -246 439 -219 419 -246 b 310 -225 347 -246 328 -235 b 283 -250 286 -210 269 -232 b 399 -296 301 -272 339 -296 b 531 -182 471 -296 531 -250 b 401 -72 531 -114 472 -85 l 432 -14 b 775 276 613 -8 779 100 z "},"ẞ":{"ha":1663,"x_min":0,"x_max":0,"o":"m 419 -14 b 775 276 606 -12 779 96 b 474 567 771 438 628 490 b 244 774 336 636 244 676 b 401 908 244 851 299 908 b 639 746 517 908 593 815 b 699 694 661 711 678 694 b 726 749 724 694 731 717 b 697 911 718 814 707 865 b 646 983 683 969 672 983 b 581 967 621 983 614 967 b 426 983 544 967 490 983 b 90 721 217 983 90 861 b 374 425 90 554 226 499 b 608 213 490 368 613 319 b 435 65 606 136 553 65 b 156 264 274 67 196 178 b 99 317 135 301 121 317 b 72 261 75 317 69 294 b 100 63 79 181 90 118 b 151 -12 110 4 126 -12 b 221 8 176 -12 183 8 b 419 -14 260 8 315 -14 z m 1250 -14 b 1606 276 1436 -12 1610 96 b 1304 567 1601 438 1458 490 b 1075 774 1167 636 1075 676 b 1232 908 1075 851 1129 908 b 1469 746 1347 908 1424 815 b 1529 694 1492 711 1508 694 b 1557 749 1554 694 1561 717 b 1528 911 1549 814 1538 865 b 1476 983 1514 969 1503 983 b 1411 967 1451 983 1444 967 b 1257 983 1375 967 1321 983 b 921 721 1047 983 921 861 b 1204 425 921 554 1057 499 b 1439 213 1321 368 1443 319 b 1265 65 1436 136 1383 65 b 986 264 1104 67 1026 178 b 929 317 965 301 951 317 b 903 261 906 317 900 294 b 931 63 910 181 921 118 b 982 -12 940 4 957 -12 b 1051 8 1007 -12 1014 8 b 1250 -14 1090 8 1146 -14 z "},"T":{"ha":893,"x_min":0,"x_max":0,"o":"m 528 831 b 596 896 528 875 547 896 b 767 760 696 896 719 850 b 818 707 786 722 799 707 b 850 761 846 707 851 731 b 831 919 847 833 842 881 b 715 974 821 957 803 974 l 176 972 b 63 919 90 972 72 956 b 43 760 51 879 44 832 b 74 706 42 729 46 706 b 126 760 93 706 107 722 b 297 894 174 850 197 894 b 365 829 347 894 365 874 l 365 217 b 279 33 365 54 279 93 b 351 0 279 8 301 0 l 539 0 b 611 33 592 0 611 8 b 528 217 611 93 528 54 z "},"Ŧ":{"ha":893,"x_min":0,"x_max":0,"o":"m 850 761 b 831 919 847 833 842 881 b 715 974 821 957 803 974 l 176 972 b 63 919 90 972 72 956 b 43 760 51 879 44 832 b 74 706 42 729 46 706 b 126 760 93 706 107 722 b 297 894 174 850 197 894 b 365 829 347 894 365 874 l 365 522 l 288 522 b 250 489 258 522 250 510 b 288 447 250 461 254 447 l 365 447 l 365 217 b 279 33 365 54 279 93 b 351 0 279 8 301 0 l 539 0 b 611 33 592 0 611 8 b 528 217 611 93 528 54 l 528 447 l 611 447 b 649 489 643 447 649 460 b 611 522 649 510 640 522 l 528 522 l 528 831 b 596 896 528 875 547 896 b 767 760 696 896 719 850 b 818 707 786 722 799 707 b 850 761 846 707 851 731 z "},"Ť":{"ha":893,"x_min":0,"x_max":0,"o":"m 268 1235 b 249 1214 251 1233 247 1225 b 322 1129 250 1200 281 1172 b 440 1047 385 1068 394 1047 b 557 1128 488 1047 490 1063 b 633 1214 599 1169 632 1199 b 614 1235 635 1225 631 1233 b 442 1168 575 1236 486 1200 b 268 1235 397 1200 307 1236 z m 528 831 b 596 896 528 875 547 896 b 767 760 696 896 719 850 b 818 707 786 722 799 707 b 850 761 846 707 851 731 b 831 919 847 833 842 881 b 715 974 821 957 803 974 l 176 972 b 63 919 90 972 72 956 b 43 760 51 879 44 832 b 74 706 42 729 46 706 b 126 760 93 706 107 722 b 297 894 174 850 197 894 b 365 829 347 894 365 874 l 365 217 b 279 33 365 54 279 93 b 351 0 279 8 301 0 l 539 0 b 611 33 592 0 611 8 b 528 217 611 93 528 54 z "},"U":{"ha":1007,"x_min":0,"x_max":0,"o":"m 514 -14 b 892 415 772 -14 892 139 l 893 801 b 968 939 893 906 968 893 b 904 972 968 965 949 972 l 797 972 b 733 939 753 972 733 965 b 807 801 733 892 808 906 l 810 389 b 551 78 810 206 719 78 b 293 375 389 78 293 182 l 293 754 b 381 938 293 915 381 878 b 307 971 381 963 358 971 l 121 971 b 47 938 67 971 47 963 b 132 754 47 878 132 915 l 132 404 b 514 -14 132 133 268 -14 z "},"Ú":{"ha":1007,"x_min":0,"x_max":0,"o":"m 532 1056 b 753 1181 601 1044 743 1111 b 703 1257 760 1219 733 1251 b 586 1189 667 1264 633 1232 b 494 1082 544 1149 497 1101 b 532 1056 493 1068 510 1058 z m 514 -14 b 892 415 772 -14 892 139 l 893 801 b 968 939 893 906 968 893 b 904 972 968 965 949 972 l 797 972 b 733 939 753 972 733 965 b 807 801 733 892 808 906 l 810 389 b 551 78 810 206 719 78 b 293 375 389 78 293 182 l 293 754 b 381 938 293 915 381 878 b 307 971 381 963 358 971 l 121 971 b 47 938 67 971 47 963 b 132 754 47 878 132 915 l 132 404 b 514 -14 132 133 268 -14 z "},"Û":{"ha":1007,"x_min":0,"x_max":0,"o":"m 401 1044 b 575 1110 440 1043 531 1079 b 747 1044 619 1079 708 1043 b 767 1064 764 1046 768 1054 b 690 1151 765 1079 732 1108 b 574 1231 624 1217 621 1231 b 456 1149 528 1231 518 1211 b 382 1064 414 1107 383 1079 b 401 1044 381 1054 385 1046 z m 514 -14 b 892 415 772 -14 892 139 l 893 801 b 968 939 893 906 968 893 b 904 972 968 965 949 972 l 797 972 b 733 939 753 972 733 965 b 807 801 733 892 808 906 l 810 389 b 551 78 810 206 719 78 b 293 375 389 78 293 182 l 293 754 b 381 938 293 915 381 878 b 307 971 381 963 358 971 l 121 971 b 47 938 67 971 47 963 b 132 754 47 878 132 915 l 132 404 b 514 -14 132 133 268 -14 z "},"Ü":{"ha":1007,"x_min":0,"x_max":0,"o":"m 464 1071 b 560 1157 514 1071 560 1107 b 489 1226 560 1199 531 1226 b 399 1132 438 1226 399 1179 b 464 1071 399 1094 428 1071 z m 679 1071 b 775 1157 728 1071 775 1107 b 703 1226 775 1199 744 1226 b 613 1132 653 1226 613 1179 b 679 1071 613 1094 642 1071 z m 514 -14 b 892 415 772 -14 892 139 l 893 801 b 968 939 893 906 968 893 b 904 972 968 965 949 972 l 797 972 b 733 939 753 972 733 965 b 807 801 733 892 808 906 l 810 389 b 551 78 810 206 719 78 b 293 375 389 78 293 182 l 293 754 b 381 938 293 915 381 878 b 307 971 381 963 358 971 l 121 971 b 47 938 67 971 47 963 b 132 754 47 878 132 915 l 132 404 b 514 -14 132 133 268 -14 z "},"Ù":{"ha":1007,"x_min":0,"x_max":0,"o":"m 629 1056 b 665 1082 650 1058 668 1068 b 575 1189 664 1101 617 1149 b 458 1257 528 1232 494 1264 b 408 1181 428 1251 401 1219 b 629 1056 418 1111 558 1044 z m 514 -14 b 892 415 772 -14 892 139 l 893 801 b 968 939 893 906 968 893 b 904 972 968 965 949 972 l 797 972 b 733 939 753 972 733 965 b 807 801 733 892 808 906 l 810 389 b 551 78 810 206 719 78 b 293 375 389 78 293 182 l 293 754 b 381 938 293 915 381 878 b 307 971 381 963 358 971 l 121 971 b 47 938 67 971 47 963 b 132 754 47 878 132 915 l 132 404 b 514 -14 132 133 268 -14 z "},"Ű":{"ha":1007,"x_min":0,"x_max":0,"o":"m 383 1058 b 606 1189 457 1058 606 1124 b 540 1246 606 1217 575 1246 b 432 1183 510 1246 475 1218 b 333 1079 393 1151 333 1099 b 383 1058 333 1067 354 1058 z m 653 1056 b 881 1175 726 1053 876 1110 b 818 1235 882 1201 854 1233 b 707 1178 788 1236 753 1211 b 604 1079 667 1149 606 1099 b 653 1056 603 1067 622 1057 z m 514 -14 b 892 415 772 -14 892 139 l 893 801 b 968 939 893 906 968 893 b 904 972 968 965 949 972 l 797 972 b 733 939 753 972 733 965 b 807 801 733 892 808 906 l 810 389 b 551 78 810 206 719 78 b 293 375 389 78 293 182 l 293 754 b 381 938 293 915 381 878 b 307 971 381 963 358 971 l 121 971 b 47 938 67 971 47 963 b 132 754 47 878 132 915 l 132 404 b 514 -14 132 133 268 -14 z "},"Ū":{"ha":1007,"x_min":0,"x_max":0,"o":"m 714 1074 b 772 1117 763 1074 768 1082 b 725 1154 776 1144 772 1154 l 411 1154 b 357 1113 365 1154 361 1146 b 400 1074 353 1083 356 1074 z m 514 -14 b 892 415 772 -14 892 139 l 893 801 b 968 939 893 906 968 893 b 904 972 968 965 949 972 l 797 972 b 733 939 753 972 733 965 b 807 801 733 892 808 906 l 810 389 b 551 78 810 206 719 78 b 293 375 389 78 293 182 l 293 754 b 381 938 293 915 381 878 b 307 971 381 963 358 971 l 121 971 b 47 938 67 971 47 963 b 132 754 47 878 132 915 l 132 404 b 514 -14 132 133 268 -14 z "},"Ų":{"ha":1007,"x_min":0,"x_max":0,"o":"m 797 972 b 733 939 753 972 733 965 b 807 801 733 892 808 906 l 810 389 b 551 78 810 206 719 78 b 293 375 389 78 293 182 l 293 754 b 381 938 293 915 381 878 b 307 971 381 963 358 971 l 121 971 b 47 938 67 971 47 963 b 132 754 47 878 132 915 l 132 404 b 514 -14 132 133 268 -14 b 565 -11 532 -14 549 -12 b 481 -144 513 -50 481 -94 b 617 -257 481 -215 540 -257 b 733 -214 658 -257 704 -243 b 711 -183 750 -196 742 -169 b 657 -196 694 -190 672 -196 b 582 -124 607 -196 582 -167 b 644 1 582 -89 599 -47 b 892 415 813 47 892 190 l 893 801 b 968 939 893 906 968 893 b 904 972 968 965 949 972 z "},"Ů":{"ha":1007,"x_min":0,"x_max":0,"o":"m 568 1038 b 713 1174 647 1038 713 1090 b 574 1306 713 1254 651 1306 b 429 1169 493 1306 429 1251 b 568 1038 429 1090 489 1038 z m 575 1103 b 503 1171 536 1103 508 1131 b 568 1244 500 1214 525 1244 b 638 1176 606 1244 632 1215 b 575 1103 640 1136 617 1103 z m 514 -14 b 892 415 772 -14 892 139 l 893 801 b 968 939 893 906 968 893 b 904 972 968 965 949 972 l 797 972 b 733 939 753 972 733 965 b 807 801 733 892 808 906 l 810 389 b 551 78 810 206 719 78 b 293 375 389 78 293 182 l 293 754 b 381 938 293 915 381 878 b 307 971 381 963 358 971 l 121 971 b 47 938 67 971 47 963 b 132 754 47 878 132 915 l 132 404 b 514 -14 132 133 268 -14 z "},"V":{"ha":974,"x_min":0,"x_max":0,"o":"m 794 972 b 738 939 763 972 738 965 b 774 801 738 893 815 913 l 535 168 l 288 799 b 333 940 244 907 333 890 b 272 972 333 964 311 972 l 79 972 b 8 938 28 972 8 964 b 111 799 8 890 65 913 l 422 19 b 503 -4 433 -8 447 -12 b 565 38 549 3 556 13 l 863 801 b 978 940 906 913 978 892 b 914 972 978 965 953 972 z "},"W":{"ha":1457,"x_min":0,"x_max":0,"o":"m 1278 972 b 1221 939 1246 972 1221 967 b 1260 800 1221 893 1297 913 l 1054 179 l 849 799 b 893 940 814 904 893 893 b 832 972 893 965 869 972 l 640 972 b 575 939 597 972 575 967 b 675 799 575 893 638 910 l 690 751 l 493 175 l 283 799 b 325 940 247 904 325 893 b 265 972 325 965 303 972 l 74 972 b 8 939 31 972 8 967 b 110 800 8 893 71 910 l 385 17 b 461 -4 392 -6 414 -11 b 528 38 507 4 521 18 l 731 636 l 944 17 b 1022 -4 951 -6 974 -12 b 1089 38 1068 4 1083 19 l 1349 801 b 1461 942 1388 914 1461 893 b 1397 972 1461 965 1436 972 z "},"Ẃ":{"ha":1457,"x_min":0,"x_max":0,"o":"m 682 1056 b 903 1181 751 1044 893 1111 b 853 1257 910 1219 883 1251 b 736 1189 817 1264 783 1232 b 644 1082 694 1149 647 1101 b 682 1056 643 1068 660 1058 z m 1278 972 b 1221 939 1246 972 1221 967 b 1260 800 1221 893 1297 913 l 1054 179 l 849 799 b 893 940 814 904 893 893 b 832 972 893 965 869 972 l 640 972 b 575 939 597 972 575 967 b 675 799 575 893 638 910 l 690 751 l 493 175 l 283 799 b 325 940 247 904 325 893 b 265 972 325 965 303 972 l 74 972 b 8 939 31 972 8 967 b 110 800 8 893 71 910 l 385 17 b 461 -4 392 -6 414 -11 b 528 38 507 4 521 18 l 731 636 l 944 17 b 1022 -4 951 -6 974 -12 b 1089 38 1068 4 1083 19 l 1349 801 b 1461 942 1388 914 1461 893 b 1397 972 1461 965 1436 972 z "},"Ŵ":{"ha":1457,"x_min":0,"x_max":0,"o":"m 550 1044 b 724 1110 589 1043 679 1079 b 896 1044 768 1079 857 1043 b 915 1064 913 1046 917 1054 b 839 1151 914 1079 881 1108 b 722 1231 772 1217 769 1231 b 604 1149 676 1231 667 1211 b 531 1064 563 1107 532 1079 b 550 1044 529 1054 533 1046 z m 1278 972 b 1221 939 1246 972 1221 967 b 1260 800 1221 893 1297 913 l 1054 179 l 849 799 b 893 940 814 904 893 893 b 832 972 893 965 869 972 l 640 972 b 575 939 597 972 575 967 b 675 799 575 893 638 910 l 690 751 l 493 175 l 283 799 b 325 940 247 904 325 893 b 265 972 325 965 303 972 l 74 972 b 8 939 31 972 8 967 b 110 800 8 893 71 910 l 385 17 b 461 -4 392 -6 414 -11 b 528 38 507 4 521 18 l 731 636 l 944 17 b 1022 -4 951 -6 974 -12 b 1089 38 1068 4 1083 19 l 1349 801 b 1461 942 1388 914 1461 893 b 1397 972 1461 965 1436 972 z "},"Ẅ":{"ha":1457,"x_min":0,"x_max":0,"o":"m 614 1071 b 710 1157 664 1071 710 1107 b 639 1226 710 1199 681 1226 b 549 1132 588 1226 549 1179 b 614 1071 549 1094 578 1071 z m 829 1071 b 925 1157 878 1071 925 1107 b 853 1226 925 1199 894 1226 b 763 1132 803 1226 763 1179 b 829 1071 763 1094 792 1071 z m 1278 972 b 1221 939 1246 972 1221 967 b 1260 800 1221 893 1297 913 l 1054 179 l 849 799 b 893 940 814 904 893 893 b 832 972 893 965 869 972 l 640 972 b 575 939 597 972 575 967 b 675 799 575 893 638 910 l 690 751 l 493 175 l 283 799 b 325 940 247 904 325 893 b 265 972 325 965 303 972 l 74 972 b 8 939 31 972 8 967 b 110 800 8 893 71 910 l 385 17 b 461 -4 392 -6 414 -11 b 528 38 507 4 521 18 l 731 636 l 944 17 b 1022 -4 951 -6 974 -12 b 1089 38 1068 4 1083 19 l 1349 801 b 1461 942 1388 914 1461 893 b 1397 972 1461 965 1436 972 z "},"Ẁ":{"ha":1457,"x_min":0,"x_max":0,"o":"m 779 1056 b 815 1082 800 1058 818 1068 b 725 1189 814 1101 767 1149 b 608 1257 678 1232 644 1264 b 558 1181 578 1251 551 1219 b 779 1056 568 1111 708 1044 z m 1278 972 b 1221 939 1246 972 1221 967 b 1260 800 1221 893 1297 913 l 1054 179 l 849 799 b 893 940 814 904 893 893 b 832 972 893 965 869 972 l 640 972 b 575 939 597 972 575 967 b 675 799 575 893 638 910 l 690 751 l 493 175 l 283 799 b 325 940 247 904 325 893 b 265 972 325 965 303 972 l 74 972 b 8 939 31 972 8 967 b 110 800 8 893 71 910 l 385 17 b 461 -4 392 -6 414 -11 b 528 38 507 4 521 18 l 731 636 l 944 17 b 1022 -4 951 -6 974 -12 b 1089 38 1068 4 1083 19 l 1349 801 b 1461 942 1388 914 1461 893 b 1397 972 1461 965 1436 972 z "},"X":{"ha":1011,"x_min":0,"x_max":0,"o":"m 808 819 b 950 942 875 913 950 893 b 886 972 950 965 925 972 l 761 972 b 706 939 729 972 706 967 b 711 819 706 893 778 913 l 538 579 l 364 811 b 383 940 294 904 383 893 b 324 972 383 965 361 972 l 99 972 b 32 939 54 972 32 967 b 164 811 32 893 90 910 l 408 483 l 169 153 b 28 31 103 60 28 79 b 93 0 28 7 54 0 l 217 0 b 274 33 249 0 274 6 b 267 153 274 79 200 60 l 457 418 l 649 161 b 628 32 718 68 628 79 b 688 0 628 7 651 0 l 914 0 b 981 33 957 0 981 6 b 849 161 981 79 921 63 l 586 514 z "},"Y":{"ha":946,"x_min":0,"x_max":0,"o":"m 751 972 b 694 939 719 972 694 965 b 707 815 694 893 767 913 l 526 521 l 336 808 b 360 940 272 906 360 893 b 300 972 360 965 336 972 l 75 972 b 8 939 31 972 8 967 b 136 810 8 893 68 910 l 396 431 l 396 217 b 310 33 396 54 310 93 b 382 0 310 8 332 0 l 569 0 b 643 33 624 0 643 8 b 558 217 643 93 558 54 l 558 431 l 803 815 b 940 940 864 913 940 892 b 875 972 940 965 914 972 z "},"Ý":{"ha":946,"x_min":0,"x_max":0,"o":"m 485 1056 b 706 1181 554 1044 696 1111 b 656 1257 713 1219 686 1251 b 539 1189 619 1264 586 1232 b 447 1082 497 1149 450 1101 b 485 1056 446 1068 463 1058 z m 751 972 b 694 939 719 972 694 965 b 707 815 694 893 767 913 l 526 521 l 336 808 b 360 940 272 906 360 893 b 300 972 360 965 336 972 l 75 972 b 8 939 31 972 8 967 b 136 810 8 893 68 910 l 396 431 l 396 217 b 310 33 396 54 310 93 b 382 0 310 8 332 0 l 569 0 b 643 33 624 0 643 8 b 558 217 643 93 558 54 l 558 431 l 803 815 b 940 940 864 913 940 892 b 875 972 940 965 914 972 z "},"Ŷ":{"ha":946,"x_min":0,"x_max":0,"o":"m 353 1044 b 526 1110 392 1043 482 1079 b 699 1044 571 1079 660 1043 b 718 1064 715 1046 719 1054 b 642 1151 717 1079 683 1108 b 525 1231 575 1217 572 1231 b 407 1149 479 1231 469 1211 b 333 1064 365 1107 335 1079 b 353 1044 332 1054 336 1046 z m 751 972 b 694 939 719 972 694 965 b 707 815 694 893 767 913 l 526 521 l 336 808 b 360 940 272 906 360 893 b 300 972 360 965 336 972 l 75 972 b 8 939 31 972 8 967 b 136 810 8 893 68 910 l 396 431 l 396 217 b 310 33 396 54 310 93 b 382 0 310 8 332 0 l 569 0 b 643 33 624 0 643 8 b 558 217 643 93 558 54 l 558 431 l 803 815 b 940 940 864 913 940 892 b 875 972 940 965 914 972 z "},"Ÿ":{"ha":946,"x_min":0,"x_max":0,"o":"m 417 1071 b 513 1157 467 1071 513 1107 b 442 1226 513 1199 483 1226 b 351 1132 390 1226 351 1179 b 417 1071 351 1094 381 1071 z m 632 1071 b 728 1157 681 1071 728 1107 b 656 1226 728 1199 697 1226 b 565 1132 606 1226 565 1179 b 632 1071 565 1094 594 1071 z m 751 972 b 694 939 719 972 694 965 b 707 815 694 893 767 913 l 526 521 l 336 808 b 360 940 272 906 360 893 b 300 972 360 965 336 972 l 75 972 b 8 939 31 972 8 967 b 136 810 8 893 68 910 l 396 431 l 396 217 b 310 33 396 54 310 93 b 382 0 310 8 332 0 l 569 0 b 643 33 624 0 643 8 b 558 217 643 93 558 54 l 558 431 l 803 815 b 940 940 864 913 940 892 b 875 972 940 965 914 972 z "},"Ỳ":{"ha":946,"x_min":0,"x_max":0,"o":"m 582 1056 b 618 1082 603 1058 621 1068 b 528 1189 617 1101 569 1149 b 411 1257 481 1232 447 1264 b 361 1181 381 1251 354 1219 b 582 1056 371 1111 511 1044 z m 751 972 b 694 939 719 972 694 965 b 707 815 694 893 767 913 l 526 521 l 336 808 b 360 940 272 906 360 893 b 300 972 360 965 336 972 l 75 972 b 8 939 31 972 8 967 b 136 810 8 893 68 910 l 396 431 l 396 217 b 310 33 396 54 310 93 b 382 0 310 8 332 0 l 569 0 b 643 33 624 0 643 8 b 558 217 643 93 558 54 l 558 431 l 803 815 b 940 940 864 913 940 892 b 875 972 940 965 914 972 z "},"Z":{"ha":885,"x_min":0,"x_max":0,"o":"m 824 251 b 761 208 797 258 783 244 b 558 76 711 121 653 76 l 272 75 l 822 917 b 793 972 843 949 831 972 l 214 972 b 106 926 135 972 119 965 b 69 781 93 889 79 842 b 88 722 64 749 65 728 b 150 764 114 714 128 728 b 353 897 200 851 258 897 l 621 897 l 68 57 b 99 0 49 25 60 0 l 697 0 b 806 46 776 0 793 7 b 842 192 818 83 832 131 b 824 251 847 224 846 244 z "},"Ź":{"ha":885,"x_min":0,"x_max":0,"o":"m 400 1056 b 621 1181 469 1044 611 1111 b 571 1257 628 1219 601 1251 b 454 1189 535 1264 501 1232 b 363 1082 413 1149 365 1101 b 400 1056 361 1068 378 1058 z m 824 251 b 761 208 797 258 783 244 b 558 76 711 121 653 76 l 272 75 l 822 917 b 793 972 843 949 831 972 l 214 972 b 106 926 135 972 119 965 b 69 781 93 889 79 842 b 88 722 64 749 65 728 b 150 764 114 714 128 728 b 353 897 200 851 258 897 l 621 897 l 68 57 b 99 0 49 25 60 0 l 697 0 b 806 46 776 0 793 7 b 842 192 818 83 832 131 b 824 251 847 224 846 244 z "},"Ž":{"ha":885,"x_min":0,"x_max":0,"o":"m 322 1129 b 440 1047 385 1068 394 1047 b 557 1128 488 1047 490 1063 b 633 1214 599 1169 632 1199 b 614 1235 635 1225 631 1233 b 442 1168 575 1236 486 1200 b 268 1235 397 1200 307 1236 b 249 1214 251 1233 247 1225 b 322 1129 250 1200 281 1172 z m 824 251 b 761 208 797 258 783 244 b 558 76 711 121 653 76 l 272 75 l 822 917 b 793 972 843 949 831 972 l 214 972 b 106 926 135 972 119 965 b 69 781 93 889 79 842 b 88 722 64 749 65 728 b 150 764 114 714 128 728 b 353 897 200 851 258 897 l 621 897 l 68 57 b 99 0 49 25 60 0 l 697 0 b 806 46 776 0 793 7 b 842 192 818 83 832 131 b 824 251 847 224 846 244 z "},"Ż":{"ha":885,"x_min":0,"x_max":0,"o":"m 468 1057 b 603 1171 531 1054 600 1113 b 528 1250 604 1213 571 1249 b 394 1133 464 1256 396 1192 b 468 1057 392 1092 422 1058 z m 824 251 b 761 208 797 258 783 244 b 558 76 711 121 653 76 l 272 75 l 822 917 b 793 972 843 949 831 972 l 214 972 b 106 926 135 972 119 965 b 69 781 93 889 79 842 b 88 722 64 749 65 728 b 150 764 114 714 128 728 b 353 897 200 851 258 897 l 621 897 l 68 57 b 99 0 49 25 60 0 l 697 0 b 806 46 776 0 793 7 b 842 192 818 83 832 131 b 824 251 847 224 846 244 z "},"Ģ":{"ha":1060,"x_min":0,"x_max":0,"o":"m 542 -12 b 935 186 754 -11 935 94 l 935 299 b 986 458 935 435 986 407 b 931 492 986 483 964 492 l 701 490 b 629 457 649 490 629 482 b 774 297 629 396 774 431 l 774 179 b 581 78 774 114 667 78 b 222 547 357 78 221 279 b 522 901 222 733 331 901 b 807 724 681 901 746 810 b 874 669 833 686 849 667 b 903 725 901 672 907 692 b 867 911 890 807 878 865 b 813 983 854 969 838 983 b 743 965 785 983 776 965 b 558 986 707 965 660 986 b 54 465 267 986 54 756 b 542 -12 54 188 244 -15 z m 503 -371 b 635 -172 547 -371 635 -290 b 547 -72 635 -100 594 -72 b 471 -150 508 -72 471 -103 b 533 -265 471 -217 533 -225 b 483 -354 533 -308 483 -336 b 503 -371 483 -364 490 -371 z "},"Ķ":{"ha":997,"x_min":0,"x_max":0,"o":"m 757 821 b 911 939 854 911 911 885 b 838 972 911 964 888 972 l 679 972 b 626 938 646 972 626 964 b 643 821 626 889 724 896 l 299 500 l 299 756 b 386 939 299 918 386 879 b 313 972 386 964 364 972 l 126 972 b 53 939 72 972 53 964 b 138 756 53 879 138 918 l 138 217 b 50 33 138 54 50 93 b 124 0 50 8 72 0 l 310 0 b 383 33 364 0 383 8 b 299 217 383 93 299 54 l 299 394 l 522 601 l 713 167 b 681 36 751 79 681 78 b 754 0 681 8 703 0 l 936 0 b 999 33 979 0 999 8 b 885 171 999 86 935 64 l 640 713 z m 501 -72 b 425 -150 463 -72 425 -103 b 488 -265 425 -217 488 -225 b 438 -354 488 -308 438 -336 b 457 -371 438 -364 444 -371 b 589 -172 501 -371 589 -290 b 501 -72 589 -100 549 -72 z "},"Ļ":{"ha":782,"x_min":0,"x_max":0,"o":"m 725 268 b 665 214 704 272 688 261 b 489 76 624 122 597 76 l 414 75 b 299 142 318 75 299 94 l 299 756 b 386 939 299 918 386 879 b 313 972 386 964 364 972 l 126 972 b 53 939 72 972 53 964 b 138 756 53 879 138 918 l 138 213 b 50 33 138 46 50 96 b 124 0 50 6 72 0 l 614 0 b 728 53 701 0 718 17 b 750 213 739 93 746 140 b 725 268 751 243 749 263 z m 413 -72 b 336 -150 374 -72 336 -103 b 399 -265 336 -217 399 -225 b 349 -354 399 -308 349 -336 b 368 -371 349 -364 356 -371 b 500 -172 413 -371 500 -290 b 413 -72 500 -100 460 -72 z "},"Ņ":{"ha":1053,"x_min":0,"x_max":0,"o":"m 838 972 b 775 939 794 972 775 965 b 850 801 775 892 850 906 l 851 315 l 261 944 b 206 972 243 963 229 972 l 118 972 b 46 939 68 972 46 967 b 132 760 46 876 132 926 l 132 171 b 58 33 132 67 58 79 b 121 0 58 8 78 0 l 229 0 b 293 33 272 0 293 7 b 217 171 293 81 218 67 l 215 757 l 813 126 b 851 38 840 96 851 69 b 892 0 851 18 865 0 b 935 50 921 0 935 13 l 935 801 b 1010 939 935 906 1010 893 b 946 972 1010 965 989 972 z m 522 -72 b 446 -150 483 -72 446 -103 b 508 -265 446 -217 508 -225 b 458 -354 508 -308 458 -336 b 478 -371 458 -364 465 -371 b 610 -172 522 -371 610 -290 b 522 -72 610 -100 569 -72 z "},"Ŗ":{"ha":935,"x_min":0,"x_max":0,"o":"m 661 397 b 846 663 781 442 846 532 b 401 972 846 825 704 972 l 124 972 b 50 939 72 972 50 967 b 138 760 50 876 138 926 l 138 217 b 50 33 138 54 50 93 b 124 0 50 8 72 0 l 310 0 b 383 33 364 0 383 8 b 299 217 383 93 299 54 l 299 351 b 413 383 299 397 338 393 b 535 322 488 374 510 365 l 619 167 b 594 36 665 83 594 78 b 663 0 594 8 618 0 l 840 0 b 903 33 883 0 903 8 b 792 161 903 86 844 67 z m 471 451 b 299 519 410 454 299 467 l 299 863 b 397 900 299 892 314 900 b 676 644 572 899 676 783 b 471 451 676 522 601 443 z m 394 -72 b 318 -150 356 -72 318 -103 b 381 -265 318 -217 381 -225 b 331 -354 381 -308 331 -336 b 350 -371 331 -364 338 -371 b 482 -172 394 -371 482 -290 b 394 -72 482 -100 442 -72 z "},"Ţ":{"ha":893,"x_min":0,"x_max":0,"o":"m 850 761 b 831 919 847 833 842 881 b 715 974 821 957 803 974 l 176 972 b 63 919 90 972 72 956 b 43 760 51 879 44 832 b 74 706 42 729 46 706 b 126 760 93 706 107 722 b 297 894 174 850 197 894 b 365 829 347 894 365 874 l 365 217 b 279 33 365 54 279 93 b 351 0 279 8 301 0 l 432 0 l 382 -93 b 399 -118 374 -107 385 -115 b 490 -190 442 -128 490 -144 b 429 -246 490 -219 471 -246 b 361 -225 399 -246 379 -235 b 335 -250 338 -210 321 -232 b 450 -296 353 -272 390 -296 b 582 -182 522 -296 582 -250 b 453 -72 582 -114 524 -85 l 490 0 l 539 0 b 611 33 592 0 611 8 b 528 217 611 93 528 54 l 528 831 b 596 896 528 875 547 896 b 767 760 696 896 719 850 b 818 707 786 722 799 707 b 850 761 846 707 851 731 z "},"Ș":{"ha":831,"x_min":0,"x_max":0,"o":"m 419 -14 b 775 276 606 -12 779 96 b 474 567 771 438 628 490 b 244 774 336 636 244 676 b 401 908 244 851 299 908 b 639 746 517 908 593 815 b 699 694 661 711 678 694 b 726 749 724 694 731 717 b 697 911 718 814 707 865 b 646 983 683 969 672 983 b 581 967 621 983 614 967 b 426 983 544 967 490 983 b 90 721 217 983 90 861 b 374 425 90 554 226 499 b 608 213 490 368 613 319 b 435 65 606 136 553 65 b 156 264 274 67 196 178 b 99 317 135 301 121 317 b 72 261 75 317 69 294 b 100 63 79 181 90 118 b 151 -12 110 4 126 -12 b 221 8 176 -12 183 8 b 419 -14 260 8 315 -14 z m 350 -371 b 482 -172 394 -371 482 -290 b 394 -72 482 -100 442 -72 b 318 -150 356 -72 318 -103 b 381 -265 318 -217 381 -225 b 331 -354 381 -308 331 -336 b 350 -371 331 -364 338 -371 z "},"Ț":{"ha":893,"x_min":0,"x_max":0,"o":"m 528 831 b 596 896 528 875 547 896 b 767 760 696 896 719 850 b 818 707 786 722 799 707 b 850 761 846 707 851 731 b 831 919 847 833 842 881 b 715 974 821 957 803 974 l 176 972 b 63 919 90 972 72 956 b 43 760 51 879 44 832 b 74 706 42 729 46 706 b 126 760 93 706 107 722 b 297 894 174 850 197 894 b 365 829 347 894 365 874 l 365 217 b 279 33 365 54 279 93 b 351 0 279 8 301 0 l 539 0 b 611 33 592 0 611 8 b 528 217 611 93 528 54 z m 401 -371 b 533 -172 446 -371 533 -290 b 446 -72 533 -100 493 -72 b 369 -150 407 -72 369 -103 b 432 -265 369 -217 432 -225 b 382 -354 432 -308 382 -336 b 401 -371 382 -364 389 -371 z "},"a":{"ha":781,"x_min":0,"x_max":0,"o":"m 744 96 b 676 171 715 96 690 108 l 610 453 b 360 679 581 571 525 679 b 93 561 231 679 128 614 b 126 525 74 529 100 508 b 306 581 181 556 235 581 b 467 408 417 581 440 507 b 336 422 417 418 383 422 b 35 196 153 422 35 328 b 296 -12 35 78 133 -12 b 535 96 376 -12 472 22 b 642 -10 550 26 576 -10 b 771 76 706 -10 771 36 b 744 96 771 92 760 97 z m 349 69 b 189 218 251 69 192 133 b 360 357 188 303 249 357 b 483 311 404 357 476 344 b 513 193 497 257 508 221 b 349 69 524 135 436 69 z "},"á":{"ha":781,"x_min":0,"x_max":0,"o":"m 292 764 b 533 865 356 740 510 800 b 496 953 549 907 528 940 b 372 896 458 965 421 936 b 275 792 322 851 282 810 b 292 764 271 781 274 769 z m 744 96 b 676 171 715 96 690 108 l 610 453 b 360 679 581 571 525 679 b 93 561 231 679 128 614 b 126 525 74 529 100 508 b 306 581 181 556 235 581 b 467 408 417 581 440 507 b 336 422 417 418 383 422 b 35 196 153 422 35 328 b 296 -12 35 78 133 -12 b 535 96 376 -12 472 22 b 642 -10 550 26 576 -10 b 771 76 706 -10 771 36 b 744 96 771 92 760 97 z m 349 69 b 189 218 251 69 192 133 b 360 357 188 303 249 357 b 483 311 404 357 476 344 b 513 193 497 257 508 221 b 349 69 524 135 436 69 z "},"ă":{"ha":781,"x_min":0,"x_max":0,"o":"m 375 744 b 560 911 485 744 557 819 b 539 947 560 933 553 947 b 515 931 531 947 525 943 b 376 856 479 881 439 856 b 236 931 311 856 272 882 b 213 947 228 943 221 947 b 192 911 199 947 190 933 b 375 744 194 822 260 744 z m 744 96 b 676 171 715 96 690 108 l 610 453 b 360 679 581 571 525 679 b 93 561 231 679 128 614 b 126 525 74 529 100 508 b 306 581 181 556 235 581 b 467 408 417 581 440 507 b 336 422 417 418 383 422 b 35 196 153 422 35 328 b 296 -12 35 78 133 -12 b 535 96 376 -12 472 22 b 642 -10 550 26 576 -10 b 771 76 706 -10 771 36 b 744 96 771 92 760 97 z m 349 69 b 189 218 251 69 192 133 b 360 357 188 303 249 357 b 483 311 404 357 476 344 b 513 193 497 257 508 221 b 349 69 524 135 436 69 z "},"â":{"ha":781,"x_min":0,"x_max":0,"o":"m 236 747 b 389 843 275 746 344 797 b 542 747 435 797 503 746 b 563 768 558 749 563 757 b 494 876 561 783 528 828 b 390 957 447 943 444 957 b 281 871 343 957 329 939 b 217 768 246 825 217 783 b 236 747 217 757 221 749 z m 744 96 b 676 171 715 96 690 108 l 610 453 b 360 679 581 571 525 679 b 93 561 231 679 128 614 b 126 525 74 529 100 508 b 306 581 181 556 235 581 b 467 408 417 581 440 507 b 336 422 417 418 383 422 b 35 196 153 422 35 328 b 296 -12 35 78 133 -12 b 535 96 376 -12 472 22 b 642 -10 550 26 576 -10 b 771 76 706 -10 771 36 b 744 96 771 92 760 97 z m 349 69 b 189 218 251 69 192 133 b 360 357 188 303 249 357 b 483 311 404 357 476 344 b 513 193 497 257 508 221 b 349 69 524 135 436 69 z "},"ä":{"ha":781,"x_min":0,"x_max":0,"o":"m 264 779 b 360 867 313 779 360 817 b 288 936 360 908 331 936 b 197 842 238 936 197 889 b 264 779 197 804 226 779 z m 479 779 b 574 867 528 779 574 817 b 503 936 574 908 544 936 b 413 842 451 936 413 889 b 479 779 413 804 442 779 z m 744 96 b 676 171 715 96 690 108 l 610 453 b 360 679 581 571 525 679 b 93 561 231 679 128 614 b 126 525 74 529 100 508 b 306 581 181 556 235 581 b 467 408 417 581 440 507 b 336 422 417 418 383 422 b 35 196 153 422 35 328 b 296 -12 35 78 133 -12 b 535 96 376 -12 472 22 b 642 -10 550 26 576 -10 b 771 76 706 -10 771 36 b 744 96 771 92 760 97 z m 349 69 b 189 218 251 69 192 133 b 360 357 188 303 249 357 b 483 311 404 357 476 344 b 513 193 497 257 508 221 b 349 69 524 135 436 69 z "},"à":{"ha":781,"x_min":0,"x_max":0,"o":"m 499 764 b 515 792 517 769 519 781 b 419 896 508 810 468 851 b 296 953 369 936 332 965 b 257 865 263 940 242 907 b 499 764 281 800 435 740 z m 744 96 b 676 171 715 96 690 108 l 610 453 b 360 679 581 571 525 679 b 93 561 231 679 128 614 b 126 525 74 529 100 508 b 306 581 181 556 235 581 b 467 408 417 581 440 507 b 336 422 417 418 383 422 b 35 196 153 422 35 328 b 296 -12 35 78 133 -12 b 535 96 376 -12 472 22 b 642 -10 550 26 576 -10 b 771 76 706 -10 771 36 b 744 96 771 92 760 97 z m 349 69 b 189 218 251 69 192 133 b 360 357 188 303 249 357 b 483 311 404 357 476 344 b 513 193 497 257 508 221 b 349 69 524 135 436 69 z "},"ā":{"ha":781,"x_min":0,"x_max":0,"o":"m 524 768 b 582 811 572 768 578 776 b 535 849 586 839 582 849 l 221 849 b 167 807 175 849 171 840 b 210 768 163 778 165 768 z m 744 96 b 676 171 715 96 690 108 l 610 453 b 360 679 581 571 525 679 b 93 561 231 679 128 614 b 126 525 74 529 100 508 b 306 581 181 556 235 581 b 467 408 417 581 440 507 b 336 422 417 418 383 422 b 35 196 153 422 35 328 b 296 -12 35 78 133 -12 b 535 96 376 -12 472 22 b 642 -10 550 26 576 -10 b 771 76 706 -10 771 36 b 744 96 771 92 760 97 z m 349 69 b 189 218 251 69 192 133 b 360 357 188 303 249 357 b 483 311 404 357 476 344 b 513 193 497 257 508 221 b 349 69 524 135 436 69 z "},"ą":{"ha":781,"x_min":0,"x_max":0,"o":"m 728 -183 b 674 -196 711 -190 689 -196 b 599 -124 624 -196 599 -167 b 650 -10 599 -92 613 -54 b 771 76 711 -6 771 38 b 744 96 771 92 760 97 b 676 171 715 96 690 108 l 610 453 b 360 679 581 571 525 679 b 93 561 231 679 128 614 b 126 525 74 529 100 508 b 306 581 181 556 235 581 b 467 408 417 581 440 507 b 336 422 417 418 383 422 b 35 196 153 422 35 328 b 296 -12 35 78 133 -12 b 535 96 376 -12 472 22 b 596 -1 546 46 563 13 b 497 -144 535 -43 497 -90 b 633 -257 497 -215 557 -257 b 750 -214 675 -257 721 -243 b 728 -183 767 -196 758 -169 z m 349 69 b 189 218 251 69 192 133 b 360 357 188 303 249 357 b 483 311 404 357 476 344 b 513 193 497 257 508 221 b 349 69 524 135 436 69 z "},"å":{"ha":781,"x_min":0,"x_max":0,"o":"m 378 732 b 522 868 457 732 522 785 b 383 1000 522 949 461 1000 b 239 864 303 1000 239 946 b 378 732 239 785 299 732 z m 378 939 b 447 871 415 939 442 910 b 385 797 450 831 426 797 b 313 865 346 797 318 825 b 378 939 310 908 335 939 z m 744 96 b 676 171 715 96 690 108 l 610 453 b 360 679 581 571 525 679 b 93 561 231 679 128 614 b 126 525 74 529 100 508 b 306 581 181 556 235 581 b 467 408 417 581 440 507 b 336 422 417 418 383 422 b 35 196 153 422 35 328 b 296 -12 35 78 133 -12 b 535 96 376 -12 472 22 b 642 -10 550 26 576 -10 b 771 76 706 -10 771 36 b 744 96 771 92 760 97 z m 349 69 b 189 218 251 69 192 133 b 360 357 188 303 249 357 b 483 311 404 357 476 344 b 513 193 497 257 508 221 b 349 69 524 135 436 69 z "},"ã":{"ha":781,"x_min":0,"x_max":0,"o":"m 204 764 b 254 806 204 794 224 806 b 483 747 328 806 415 747 b 586 838 551 747 586 789 b 540 879 586 894 540 914 b 492 839 540 850 522 839 b 261 897 446 839 346 897 b 160 807 193 897 160 854 b 204 764 160 750 204 731 z m 744 96 b 676 171 715 96 690 108 l 610 453 b 360 679 581 571 525 679 b 93 561 231 679 128 614 b 126 525 74 529 100 508 b 306 581 181 556 235 581 b 467 408 417 581 440 507 b 336 422 417 418 383 422 b 35 196 153 422 35 328 b 296 -12 35 78 133 -12 b 535 96 376 -12 472 22 b 642 -10 550 26 576 -10 b 771 76 706 -10 771 36 b 744 96 771 92 760 97 z m 349 69 b 189 218 251 69 192 133 b 360 357 188 303 249 357 b 483 311 404 357 476 344 b 513 193 497 257 508 221 b 349 69 524 135 436 69 z "},"æ":{"ha":1199,"x_min":0,"x_max":0,"o":"m 1114 196 b 903 100 1064 144 992 100 b 685 251 783 100 713 179 b 1114 413 839 306 968 351 b 1146 468 1143 424 1151 444 b 865 681 1124 586 1025 681 b 615 578 767 681 679 642 b 389 679 574 640 499 679 b 125 561 265 679 160 614 b 158 525 104 528 132 508 b 328 576 213 556 261 576 b 506 394 438 576 499 528 b 336 424 440 419 378 424 b 35 197 156 424 35 331 b 279 -12 35 71 140 -12 b 550 146 389 -12 493 36 b 838 -14 604 49 707 -14 b 1156 165 1018 -14 1128 93 b 1114 196 1169 203 1140 222 z m 814 603 b 976 472 886 610 960 556 b 947 421 983 442 969 429 b 668 321 860 385 765 353 b 658 407 661 343 658 374 b 814 603 658 501 711 597 z m 504 200 b 338 75 504 142 419 75 b 181 214 240 75 182 129 b 353 357 178 303 251 357 b 504 300 436 357 503 332 z "},"b":{"ha":835,"x_min":0,"x_max":0,"o":"m 488 681 b 267 569 389 679 313 632 l 267 758 l 268 950 b 238 986 268 976 258 988 b 83 933 217 985 143 961 b 42 893 50 918 42 910 b 110 758 42 850 110 868 l 110 161 b 100 36 110 115 107 74 b 129 -3 96 13 106 -3 b 247 42 169 -3 204 40 b 465 -14 297 42 331 -14 b 786 363 626 -14 786 132 b 488 681 786 556 656 682 z m 465 60 b 267 288 356 60 267 165 l 265 394 b 433 583 265 471 318 583 b 633 292 542 583 633 468 b 465 60 633 156 572 60 z "},"":{"ha":835,"x_min":0,"x_max":0,"o":"m 488 681 b 267 569 389 679 313 632 l 267 758 l 268 950 b 238 986 268 976 258 988 b 83 933 217 985 143 961 b 42 893 50 918 42 910 b 110 758 42 850 110 868 l 110 161 b 100 36 110 115 107 74 b 129 -3 96 13 106 -3 b 247 42 169 -3 204 40 b 465 -14 297 42 331 -14 b 786 363 626 -14 786 132 b 488 681 786 556 656 682 z m 465 60 b 267 288 356 60 267 165 l 265 394 b 433 583 265 471 318 583 b 633 292 542 583 633 468 b 465 60 633 156 572 60 z "},"c":{"ha":726,"x_min":0,"x_max":0,"o":"m 376 -14 b 682 161 558 -14 653 88 b 639 190 696 199 665 215 b 444 100 590 143 533 100 b 199 394 297 100 199 218 b 364 603 199 515 260 603 b 519 446 450 601 494 536 b 601 367 532 403 551 367 b 679 453 644 367 679 396 b 404 679 679 567 576 679 b 47 311 206 679 47 522 b 376 -14 47 135 172 -14 z "},"ć":{"ha":726,"x_min":0,"x_max":0,"o":"m 306 772 b 547 874 369 749 524 808 b 510 961 563 915 542 949 b 386 904 472 974 435 944 b 289 800 336 860 296 818 b 306 772 285 789 288 778 z m 376 -14 b 682 161 558 -14 653 88 b 639 190 696 199 665 215 b 444 100 590 143 533 100 b 199 394 297 100 199 218 b 364 603 199 515 260 603 b 519 446 450 601 494 536 b 601 367 532 403 551 367 b 679 453 644 367 679 396 b 404 679 679 567 576 679 b 47 311 206 679 47 522 b 376 -14 47 135 172 -14 z "},"č":{"ha":726,"x_min":0,"x_max":0,"o":"m 250 1000 b 231 979 235 999 231 990 b 294 876 231 964 260 922 b 404 790 343 808 357 790 b 508 871 458 790 461 804 b 576 979 542 919 575 964 b 556 1000 576 990 572 999 b 403 904 517 1001 449 950 b 250 1000 358 950 289 1001 z m 376 -14 b 682 161 558 -14 653 88 b 639 190 696 199 665 215 b 444 100 590 143 533 100 b 199 394 297 100 199 218 b 364 603 199 515 260 603 b 519 446 450 601 494 536 b 601 367 532 403 551 367 b 679 453 644 367 679 396 b 404 679 679 567 576 679 b 47 311 206 679 47 522 b 376 -14 47 135 172 -14 z "},"ç":{"ha":726,"x_min":0,"x_max":0,"o":"m 639 190 b 444 100 590 143 533 100 b 199 394 297 100 199 218 b 364 603 199 515 260 603 b 519 446 450 601 494 536 b 601 367 532 403 551 367 b 679 453 644 367 679 396 b 404 679 679 567 576 679 b 47 311 206 679 47 522 b 342 -12 47 144 158 3 l 299 -93 b 315 -118 290 -107 301 -115 b 407 -190 358 -128 407 -144 b 346 -246 407 -219 388 -246 b 278 -225 315 -246 296 -235 b 251 -250 254 -210 238 -232 b 367 -296 269 -272 307 -296 b 499 -182 439 -296 499 -250 b 369 -72 499 -114 440 -85 l 400 -14 b 682 161 567 -6 654 90 b 639 190 696 199 665 215 z "},"ċ":{"ha":726,"x_min":0,"x_max":0,"o":"m 367 765 b 501 879 429 763 499 821 b 426 958 503 921 469 957 b 293 842 363 964 294 900 b 367 765 290 800 321 767 z m 376 -14 b 682 161 558 -14 653 88 b 639 190 696 199 665 215 b 444 100 590 143 533 100 b 199 394 297 100 199 218 b 364 603 199 515 260 603 b 519 446 450 601 494 536 b 601 367 532 403 551 367 b 679 453 644 367 679 396 b 404 679 679 567 576 679 b 47 311 206 679 47 522 b 376 -14 47 135 172 -14 z "},"d":{"ha":825,"x_min":0,"x_max":0,"o":"m 725 950 b 696 986 725 976 715 988 b 540 933 674 985 600 961 b 499 893 507 918 499 910 b 567 758 499 850 567 867 l 567 631 b 396 681 521 663 460 681 b 47 301 224 681 47 531 b 335 -14 47 122 163 -11 b 569 107 446 -15 524 40 l 571 64 b 624 -12 572 11 588 -12 b 764 33 660 -12 725 13 b 804 78 792 49 804 61 b 722 196 804 119 722 92 l 724 760 z m 399 92 b 199 376 300 92 199 190 b 369 603 199 510 263 603 b 529 499 439 603 493 567 b 565 331 554 453 563 388 l 565 257 b 399 92 557 174 499 92 z "},"ď":{"ha":825,"x_min":0,"x_max":0,"o":"m 335 -14 b 569 107 446 -15 524 40 l 571 64 b 624 -12 572 11 588 -12 b 764 33 660 -12 725 13 b 804 78 792 49 804 61 b 722 196 804 119 722 92 l 724 760 l 725 950 b 696 986 725 976 715 988 b 540 933 674 985 600 961 b 499 893 507 918 499 910 b 567 758 499 850 567 867 l 567 631 b 396 681 521 663 460 681 b 47 301 224 681 47 531 b 335 -14 47 122 163 -11 z m 854 664 b 976 910 897 664 976 849 b 917 978 976 954 950 978 b 853 906 883 978 857 956 b 833 690 850 886 838 746 b 854 664 831 674 840 664 z m 399 92 b 199 376 300 92 199 190 b 369 603 199 510 263 603 b 529 499 439 603 493 567 b 565 331 554 453 563 388 l 565 257 b 399 92 557 174 499 92 z "},"đ":{"ha":825,"x_min":0,"x_max":0,"o":"m 774 721 b 804 754 794 721 804 732 b 774 788 804 776 794 788 l 724 788 l 725 950 b 696 986 725 976 715 988 b 540 933 674 985 600 961 b 499 893 507 918 499 910 b 565 788 499 854 554 864 l 486 788 b 456 754 465 788 456 776 b 486 721 456 732 465 721 l 567 721 l 567 631 b 396 681 521 663 460 681 b 47 301 224 681 47 531 b 335 -14 47 122 163 -11 b 569 107 446 -15 524 40 l 571 64 b 624 -12 572 11 588 -12 b 764 33 660 -12 725 13 b 804 78 792 49 804 61 b 722 196 804 119 722 92 l 724 721 z m 399 92 b 199 376 300 92 199 190 b 369 603 199 510 263 603 b 529 499 439 603 493 567 b 565 331 554 453 563 388 l 565 257 b 399 92 557 174 499 92 z "},"ð":{"ha":790,"x_min":0,"x_max":0,"o":"m 742 389 b 458 882 738 588 611 775 l 501 907 b 518 957 521 918 525 933 b 483 974 513 978 501 983 l 393 921 b 190 975 325 957 256 976 b 140 946 157 975 140 963 b 172 921 140 932 153 928 b 290 861 215 904 254 885 l 233 829 b 217 782 215 819 210 804 b 253 764 224 760 235 753 l 349 819 b 504 629 417 764 469 697 b 358 668 458 658 413 669 b 47 333 174 667 47 514 b 378 -14 47 121 186 -14 b 742 389 592 -14 746 142 z m 429 68 b 200 388 293 68 200 232 b 368 603 200 499 257 603 b 594 274 503 603 594 431 b 429 68 594 167 536 68 z "},"e":{"ha":736,"x_min":0,"x_max":0,"o":"m 651 196 b 440 100 601 144 529 100 b 222 251 321 100 250 179 b 651 413 376 306 506 351 b 683 468 681 424 688 444 b 403 681 661 586 563 681 b 47 311 204 681 47 522 b 375 -14 47 125 179 -14 b 693 165 556 -14 665 93 b 651 196 707 203 678 222 z m 351 603 b 514 472 424 610 497 556 b 485 421 521 442 507 429 b 206 321 397 385 303 353 b 196 407 199 343 196 374 b 351 603 196 501 249 597 z "},"é":{"ha":736,"x_min":0,"x_max":0,"o":"m 282 764 b 524 865 346 740 500 800 b 486 953 539 907 518 940 b 363 896 449 965 411 936 b 265 792 313 851 272 810 b 282 764 261 781 264 769 z m 651 196 b 440 100 601 144 529 100 b 222 251 321 100 250 179 b 651 413 376 306 506 351 b 683 468 681 424 688 444 b 403 681 661 586 563 681 b 47 311 204 681 47 522 b 375 -14 47 125 179 -14 b 693 165 556 -14 665 93 b 651 196 707 203 678 222 z m 351 603 b 514 472 424 610 497 556 b 485 421 521 442 507 429 b 206 321 397 385 303 353 b 196 407 199 343 196 374 b 351 603 196 501 249 597 z "},"ě":{"ha":736,"x_min":0,"x_max":0,"o":"m 381 782 b 485 863 435 782 438 796 b 553 971 518 911 551 956 b 532 992 553 982 549 990 b 379 896 493 993 425 942 b 226 992 335 942 265 993 b 207 971 211 990 207 982 b 271 868 207 956 236 914 b 381 782 319 800 333 782 z m 651 196 b 440 100 601 144 529 100 b 222 251 321 100 250 179 b 651 413 376 306 506 351 b 683 468 681 424 688 444 b 403 681 661 586 563 681 b 47 311 204 681 47 522 b 375 -14 47 125 179 -14 b 693 165 556 -14 665 93 b 651 196 707 203 678 222 z m 351 603 b 514 472 424 610 497 556 b 485 421 521 442 507 429 b 206 321 397 385 303 353 b 196 407 199 343 196 374 b 351 603 196 501 249 597 z "},"ê":{"ha":736,"x_min":0,"x_max":0,"o":"m 226 747 b 379 843 265 746 335 797 b 532 747 425 797 493 746 b 553 768 549 749 553 757 b 485 876 551 783 518 828 b 381 957 438 943 435 957 b 271 871 333 957 319 939 b 207 768 236 825 207 783 b 226 747 207 757 211 749 z m 651 196 b 440 100 601 144 529 100 b 222 251 321 100 250 179 b 651 413 376 306 506 351 b 683 468 681 424 688 444 b 403 681 661 586 563 681 b 47 311 204 681 47 522 b 375 -14 47 125 179 -14 b 693 165 556 -14 665 93 b 651 196 707 203 678 222 z m 351 603 b 514 472 424 610 497 556 b 485 421 521 442 507 429 b 206 321 397 385 303 353 b 196 407 199 343 196 374 b 351 603 196 501 249 597 z "},"ë":{"ha":736,"x_min":0,"x_max":0,"o":"m 254 779 b 350 867 303 779 350 817 b 278 936 350 908 321 936 b 188 842 228 936 188 889 b 254 779 188 804 217 779 z m 469 779 b 564 867 518 779 564 817 b 493 936 564 908 535 936 b 403 842 442 936 403 889 b 469 779 403 804 432 779 z m 651 196 b 440 100 601 144 529 100 b 222 251 321 100 250 179 b 651 413 376 306 506 351 b 683 468 681 424 688 444 b 403 681 661 586 563 681 b 47 311 204 681 47 522 b 375 -14 47 125 179 -14 b 693 165 556 -14 665 93 b 651 196 707 203 678 222 z m 351 603 b 514 472 424 610 497 556 b 485 421 521 442 507 429 b 206 321 397 385 303 353 b 196 407 199 343 196 374 b 351 603 196 501 249 597 z "},"ė":{"ha":736,"x_min":0,"x_max":0,"o":"m 343 763 b 478 876 406 760 475 818 b 403 956 479 918 446 954 b 269 839 339 961 271 897 b 343 763 267 797 297 764 z m 651 196 b 440 100 601 144 529 100 b 222 251 321 100 250 179 b 651 413 376 306 506 351 b 683 468 681 424 688 444 b 403 681 661 586 563 681 b 47 311 204 681 47 522 b 375 -14 47 125 179 -14 b 693 165 556 -14 665 93 b 651 196 707 203 678 222 z m 351 603 b 514 472 424 610 497 556 b 485 421 521 442 507 429 b 206 321 397 385 303 353 b 196 407 199 343 196 374 b 351 603 196 501 249 597 z "},"è":{"ha":736,"x_min":0,"x_max":0,"o":"m 489 764 b 506 792 507 769 510 781 b 410 896 499 810 458 851 b 286 953 360 936 322 965 b 247 865 253 940 232 907 b 489 764 271 800 425 740 z m 651 196 b 440 100 601 144 529 100 b 222 251 321 100 250 179 b 651 413 376 306 506 351 b 683 468 681 424 688 444 b 403 681 661 586 563 681 b 47 311 204 681 47 522 b 375 -14 47 125 179 -14 b 693 165 556 -14 665 93 b 651 196 707 203 678 222 z m 351 603 b 514 472 424 610 497 556 b 485 421 521 442 507 429 b 206 321 397 385 303 353 b 196 407 199 343 196 374 b 351 603 196 501 249 597 z "},"ē":{"ha":736,"x_min":0,"x_max":0,"o":"m 514 768 b 572 811 563 768 568 776 b 525 849 576 839 572 849 l 211 849 b 157 807 165 849 161 840 b 200 768 153 778 156 768 z m 651 196 b 440 100 601 144 529 100 b 222 251 321 100 250 179 b 651 413 376 306 506 351 b 683 468 681 424 688 444 b 403 681 661 586 563 681 b 47 311 204 681 47 522 b 375 -14 47 125 179 -14 b 693 165 556 -14 665 93 b 651 196 707 203 678 222 z m 351 603 b 514 472 424 610 497 556 b 485 421 521 442 507 429 b 206 321 397 385 303 353 b 196 407 199 343 196 374 b 351 603 196 501 249 597 z "},"ę":{"ha":736,"x_min":0,"x_max":0,"o":"m 693 165 b 651 196 707 203 678 222 b 440 100 601 144 529 100 b 222 251 321 100 250 179 b 651 413 376 306 506 351 b 683 468 681 424 688 444 b 403 681 661 586 563 681 b 47 311 204 681 47 522 b 375 -14 47 125 179 -14 b 465 -4 407 -14 438 -10 b 429 -94 442 -32 429 -62 b 565 -207 429 -165 489 -207 b 682 -164 607 -207 653 -193 b 660 -133 699 -146 690 -119 b 606 -146 643 -140 621 -146 b 531 -74 556 -146 531 -117 b 588 46 531 -40 546 0 b 693 165 643 82 679 128 z m 351 603 b 514 472 424 610 497 556 b 485 421 521 442 507 429 b 206 321 397 385 303 353 b 196 407 199 343 196 374 b 351 603 196 501 249 597 z "},"f":{"ha":517,"x_min":0,"x_max":0,"o":"m 333 906 b 413 818 378 906 399 871 b 475 765 422 789 440 765 b 542 839 510 765 542 792 b 378 986 542 917 483 986 b 143 667 240 986 143 890 l 113 667 b 58 632 85 667 64 663 b 104 594 53 600 78 596 l 143 593 l 143 188 b 75 32 143 56 75 79 b 135 0 75 7 99 0 l 335 0 b 392 31 371 0 392 6 b 299 188 392 86 299 43 l 299 588 l 431 583 b 488 625 456 582 479 586 b 443 667 494 663 468 667 l 299 667 b 254 786 267 667 254 739 b 333 906 254 869 292 906 z "},"g":{"ha":778,"x_min":0,"x_max":0,"o":"m 561 106 b 332 94 507 106 410 94 b 189 165 258 94 189 108 b 221 217 189 186 204 206 b 357 196 260 203 306 196 b 667 456 543 199 667 308 b 589 619 667 521 639 579 b 714 729 653 632 714 671 b 660 783 714 761 688 783 b 607 751 638 783 622 769 b 492 675 565 697 524 675 b 410 681 464 675 450 679 l 389 681 b 68 415 208 678 68 563 b 164 244 68 343 103 283 b 56 118 85 213 56 163 b 142 -3 56 60 94 19 b 51 -122 82 -29 51 -79 b 365 -293 51 -244 213 -293 b 764 -54 614 -293 764 -196 b 561 106 764 36 694 106 z m 358 615 b 511 415 460 615 511 514 b 379 261 511 325 461 261 b 222 463 281 261 224 356 b 358 615 222 553 281 615 z m 400 -224 b 189 -115 274 -224 189 -186 b 289 -37 189 -62 240 -37 b 504 -31 376 -39 440 -33 b 618 -107 596 -26 618 -68 b 400 -224 618 -182 535 -224 z "},"ğ":{"ha":778,"x_min":0,"x_max":0,"o":"m 392 744 b 576 911 501 744 574 819 b 556 947 576 933 569 947 b 532 931 547 947 542 943 b 393 856 496 881 456 856 b 253 931 328 856 289 882 b 229 947 244 943 238 947 b 208 911 215 947 207 933 b 392 744 211 822 276 744 z m 561 106 b 332 94 507 106 410 94 b 189 165 258 94 189 108 b 221 217 189 186 204 206 b 357 196 260 203 306 196 b 667 456 543 199 667 308 b 589 619 667 521 639 579 b 714 729 653 632 714 671 b 660 783 714 761 688 783 b 607 751 638 783 622 769 b 492 675 565 697 524 675 b 410 681 464 675 450 679 l 389 681 b 68 415 208 678 68 563 b 164 244 68 343 103 283 b 56 118 85 213 56 163 b 142 -3 56 60 94 19 b 51 -122 82 -29 51 -79 b 365 -293 51 -244 213 -293 b 764 -54 614 -293 764 -196 b 561 106 764 36 694 106 z m 358 615 b 511 415 460 615 511 514 b 379 261 511 325 461 261 b 222 463 281 261 224 356 b 358 615 222 553 281 615 z m 400 -224 b 189 -115 274 -224 189 -186 b 289 -37 189 -62 240 -37 b 504 -31 376 -39 440 -33 b 618 -107 596 -26 618 -68 b 400 -224 618 -182 535 -224 z "},"ġ":{"ha":778,"x_min":0,"x_max":0,"o":"m 372 761 b 507 875 435 758 504 817 b 432 954 508 917 475 953 b 299 838 368 960 300 896 b 372 761 296 796 326 763 z m 561 106 b 332 94 507 106 410 94 b 189 165 258 94 189 108 b 221 217 189 186 204 206 b 357 196 260 203 306 196 b 667 456 543 199 667 308 b 589 619 667 521 639 579 b 714 729 653 632 714 671 b 660 783 714 761 688 783 b 607 751 638 783 622 769 b 492 675 565 697 524 675 b 410 681 464 675 450 679 l 389 681 b 68 415 208 678 68 563 b 164 244 68 343 103 283 b 56 118 85 213 56 163 b 142 -3 56 60 94 19 b 51 -122 82 -29 51 -79 b 365 -293 51 -244 213 -293 b 764 -54 614 -293 764 -196 b 561 106 764 36 694 106 z m 358 615 b 511 415 460 615 511 514 b 379 261 511 325 461 261 b 222 463 281 261 224 356 b 358 615 222 553 281 615 z m 400 -224 b 189 -115 274 -224 189 -186 b 289 -37 189 -62 240 -37 b 504 -31 376 -39 440 -33 b 618 -107 596 -26 618 -68 b 400 -224 618 -182 535 -224 z "},"h":{"ha":882,"x_min":0,"x_max":0,"o":"m 753 392 b 503 681 717 590 651 681 b 283 567 419 681 338 642 l 283 758 l 285 950 b 254 986 285 976 275 988 b 100 933 233 985 160 961 b 58 893 67 918 58 910 b 125 758 58 850 125 868 l 126 188 b 58 32 126 57 58 85 b 117 0 58 7 82 0 l 292 0 b 349 31 328 0 349 6 b 283 188 349 85 283 57 l 283 358 b 446 578 283 503 364 576 b 599 383 556 579 581 482 l 640 158 b 583 32 657 68 583 75 b 643 0 583 7 607 0 l 814 0 b 871 31 850 0 871 6 b 799 151 871 76 815 65 z "},"ħ":{"ha":882,"x_min":0,"x_max":0,"o":"m 753 392 b 503 681 717 590 651 681 b 283 567 419 681 338 642 l 283 718 l 365 718 b 396 751 386 718 396 729 b 365 785 396 774 386 785 l 283 785 l 285 950 b 254 986 285 976 275 988 b 100 933 233 985 160 961 b 58 893 67 918 58 910 b 124 785 58 854 114 865 l 78 785 b 47 751 57 785 47 774 b 78 718 47 729 57 718 l 125 718 l 126 188 b 58 32 126 57 58 85 b 117 0 58 7 82 0 l 292 0 b 349 31 328 0 349 6 b 283 188 349 85 283 57 l 283 358 b 446 578 283 503 364 576 b 599 383 556 579 581 482 l 640 158 b 583 32 657 68 583 75 b 643 0 583 7 607 0 l 814 0 b 871 31 850 0 871 6 b 799 151 871 76 815 65 z "},"i":{"ha":407,"x_min":0,"x_max":0,"o":"m 158 771 b 293 885 221 768 290 826 b 218 964 294 926 261 963 b 85 847 154 969 86 906 b 158 771 82 806 113 772 z m 129 188 b 61 32 129 57 61 85 b 121 0 61 7 85 0 l 294 0 b 351 31 331 0 351 6 b 286 188 351 85 286 57 l 286 453 l 288 644 b 257 681 288 671 278 681 b 103 626 236 679 163 656 b 61 588 69 611 61 603 b 128 453 61 544 128 561 z "},"ı":{"ha":407,"x_min":0,"x_max":0,"o":"m 129 188 b 61 32 129 57 61 85 b 121 0 61 7 85 0 l 294 0 b 351 31 331 0 351 6 b 286 188 351 85 286 57 l 286 453 l 288 644 b 257 681 288 671 278 681 b 103 626 236 679 163 656 b 61 588 69 611 61 603 b 128 453 61 544 128 561 z "},"í":{"ha":407,"x_min":0,"x_max":0,"o":"m 99 764 b 340 865 163 740 317 800 b 303 953 356 907 335 940 b 179 896 265 965 228 936 b 82 792 129 851 89 810 b 99 764 78 781 81 769 z m 129 188 b 61 32 129 57 61 85 b 121 0 61 7 85 0 l 294 0 b 351 31 331 0 351 6 b 286 188 351 85 286 57 l 286 453 l 288 644 b 257 681 288 671 278 681 b 103 626 236 679 163 656 b 61 588 69 611 61 603 b 128 453 61 544 128 561 z "},"î":{"ha":407,"x_min":0,"x_max":0,"o":"m 43 747 b 196 843 82 746 151 797 b 349 747 242 797 310 746 b 369 768 365 749 369 757 b 301 876 368 783 335 828 b 197 957 254 943 251 957 b 88 871 150 957 136 939 b 24 768 53 825 24 783 b 43 747 24 757 28 749 z m 129 188 b 61 32 129 57 61 85 b 121 0 61 7 85 0 l 294 0 b 351 31 331 0 351 6 b 286 188 351 85 286 57 l 286 453 l 288 644 b 257 681 288 671 278 681 b 103 626 236 679 163 656 b 61 588 69 611 61 603 b 128 453 61 544 128 561 z "},"ï":{"ha":407,"x_min":0,"x_max":0,"o":"m 71 779 b 167 867 119 779 167 817 b 94 936 167 908 138 936 b 4 842 44 936 4 889 b 71 779 4 804 33 779 z m 286 779 b 381 867 335 779 381 817 b 310 936 381 908 351 936 b 219 842 258 936 219 889 b 286 779 219 804 249 779 z m 129 188 b 61 32 129 57 61 85 b 121 0 61 7 85 0 l 294 0 b 351 31 331 0 351 6 b 286 188 351 85 286 57 l 286 453 l 288 644 b 257 681 288 671 278 681 b 103 626 236 679 163 656 b 61 588 69 611 61 603 b 128 453 61 544 128 561 z "},"ì":{"ha":407,"x_min":0,"x_max":0,"o":"m 306 764 b 322 792 324 769 326 781 b 226 896 315 810 275 851 b 103 953 176 936 139 965 b 64 865 69 940 49 907 b 306 764 88 800 242 740 z m 129 188 b 61 32 129 57 61 85 b 121 0 61 7 85 0 l 294 0 b 351 31 331 0 351 6 b 286 188 351 85 286 57 l 286 453 l 288 644 b 257 681 288 671 278 681 b 103 626 236 679 163 656 b 61 588 69 611 61 603 b 128 453 61 544 128 561 z "},"ī":{"ha":407,"x_min":0,"x_max":0,"o":"m 331 768 b 389 811 379 768 385 776 b 342 849 393 839 389 849 l 28 849 b -26 807 -18 849 -22 840 b 17 768 -31 778 -28 768 z m 129 188 b 61 32 129 57 61 85 b 121 0 61 7 85 0 l 294 0 b 351 31 331 0 351 6 b 286 188 351 85 286 57 l 286 453 l 288 644 b 257 681 288 671 278 681 b 103 626 236 679 163 656 b 61 588 69 611 61 603 b 128 453 61 544 128 561 z "},"į":{"ha":407,"x_min":0,"x_max":0,"o":"m 158 771 b 293 885 221 768 290 826 b 218 964 294 926 261 963 b 85 847 154 969 86 906 b 158 771 82 806 113 772 z m 294 0 b 351 31 331 0 351 6 b 286 188 351 85 286 57 l 286 453 l 288 644 b 257 681 288 671 278 681 b 103 626 236 679 163 656 b 61 588 69 611 61 603 b 128 453 61 544 128 561 l 129 188 b 61 32 129 57 61 85 b 121 0 61 7 85 0 l 204 0 b 81 -158 128 -44 81 -97 b 217 -271 81 -229 140 -271 b 333 -228 258 -271 304 -257 b 311 -197 350 -210 342 -183 b 257 -210 294 -204 272 -210 b 182 -137 207 -210 182 -181 b 256 0 182 -100 201 -54 z "},"j":{"ha":389,"x_min":0,"x_max":0,"o":"m 186 771 b 321 885 249 768 318 826 b 246 964 322 926 289 963 b 113 847 182 969 114 906 b 186 771 110 806 140 772 z m 140 -19 b 17 -218 140 -151 110 -218 b 101 -292 -42 -218 -24 -292 b 297 -71 211 -292 297 -229 l 297 -19 l 299 456 l 300 646 b 269 682 300 674 290 683 b 115 629 249 682 175 657 b 74 589 82 614 74 606 b 140 454 74 547 140 564 z "},"ȷ":{"ha":389,"x_min":0,"x_max":0,"o":"m 140 -19 b 17 -218 140 -151 110 -218 b 101 -292 -42 -218 -24 -292 b 297 -71 211 -292 297 -229 l 297 -19 l 299 456 l 300 646 b 269 682 300 674 290 683 b 115 629 249 682 175 657 b 74 589 82 614 74 606 b 140 454 74 547 140 564 z "},"k":{"ha":842,"x_min":0,"x_max":0,"o":"m 614 540 b 742 639 686 619 742 603 b 693 667 742 658 725 667 l 542 667 b 494 639 507 667 494 657 b 524 549 494 604 571 600 l 283 293 l 283 758 l 285 950 b 254 986 285 976 275 988 b 100 933 233 985 160 961 b 58 893 67 918 58 910 b 125 758 58 850 125 868 l 126 188 b 58 32 126 57 58 85 b 117 0 58 7 82 0 l 292 0 b 349 31 328 0 349 6 b 283 188 349 85 283 57 l 453 368 l 561 125 b 521 28 588 68 521 69 b 581 0 521 7 539 0 l 749 0 b 810 28 792 0 810 6 b 715 142 810 69 747 71 l 564 488 z "},"l":{"ha":404,"x_min":0,"x_max":0,"o":"m 126 188 b 58 32 126 57 58 85 b 117 0 58 7 82 0 l 292 0 b 349 31 328 0 349 6 b 283 188 349 85 283 57 l 283 758 l 285 950 b 254 986 285 976 275 988 b 100 933 233 985 160 961 b 58 893 67 918 58 910 b 125 758 58 850 125 868 z "},"ĺ":{"ha":404,"x_min":0,"x_max":0,"o":"m 113 1069 b 354 1171 176 1046 331 1106 b 317 1258 369 1213 349 1246 b 193 1201 279 1271 242 1242 b 96 1097 143 1157 103 1115 b 113 1069 92 1086 94 1075 z m 126 188 b 58 32 126 57 58 85 b 117 0 58 7 82 0 l 292 0 b 349 31 328 0 349 6 b 283 188 349 85 283 57 l 283 758 l 285 950 b 254 986 285 976 275 988 b 100 933 233 985 160 961 b 58 893 67 918 58 910 b 125 758 58 850 125 868 z "},"ľ":{"ha":404,"x_min":0,"x_max":0,"o":"m 126 188 b 58 32 126 57 58 85 b 117 0 58 7 82 0 l 292 0 b 349 31 328 0 349 6 b 283 188 349 85 283 57 l 283 758 l 285 950 b 254 986 285 976 275 988 b 100 933 233 985 160 961 b 58 893 67 918 58 910 b 125 758 58 850 125 868 z m 415 664 b 538 910 458 664 538 849 b 478 978 538 954 511 978 b 414 906 444 978 418 956 b 394 690 411 886 399 746 b 415 664 392 674 401 664 z "},"ł":{"ha":404,"x_min":0,"x_max":0,"o":"m 392 583 b 347 599 379 606 365 610 l 283 561 l 283 758 l 285 950 b 254 986 285 976 275 988 b 100 933 233 985 160 961 b 58 893 67 918 58 910 b 125 758 58 850 125 868 l 126 471 l 19 410 b 11 364 0 399 -3 385 b 54 347 22 342 36 336 l 126 389 l 126 188 b 58 32 126 57 58 85 b 117 0 58 7 82 0 l 292 0 b 349 31 328 0 349 6 b 283 188 349 85 283 57 l 283 479 l 382 536 b 392 583 404 550 403 564 z "},"m":{"ha":1338,"x_min":0,"x_max":0,"o":"m 1208 392 b 964 681 1172 590 1115 681 b 726 533 868 681 779 631 b 507 681 693 629 619 681 b 267 535 411 681 322 632 l 268 642 b 239 678 268 668 258 678 b 101 633 218 676 151 656 b 60 590 68 618 60 608 b 85 554 60 574 71 564 b 128 460 117 533 128 503 l 128 188 b 60 32 128 57 60 85 b 118 0 60 7 83 0 l 293 0 b 350 31 329 0 350 6 b 285 188 350 85 285 57 l 285 358 b 456 581 285 504 369 581 b 592 375 565 583 592 489 l 592 188 b 524 32 592 57 524 85 b 583 0 524 7 547 0 l 757 0 b 814 31 793 0 814 6 b 749 188 814 85 749 57 l 747 369 b 910 578 751 510 832 576 b 1054 383 1019 579 1036 482 l 1096 158 b 1040 32 1113 68 1040 75 b 1099 0 1040 7 1063 0 l 1269 0 b 1328 31 1306 0 1328 6 b 1254 151 1328 76 1271 65 z "},"n":{"ha":883,"x_min":0,"x_max":0,"o":"m 754 392 b 504 681 718 590 653 681 b 267 539 413 681 321 633 l 268 642 b 239 678 268 668 258 678 b 101 633 218 676 151 656 b 60 590 68 618 60 608 b 85 554 60 574 71 564 b 128 460 117 533 128 503 l 128 188 b 60 32 128 57 60 85 b 118 0 60 7 83 0 l 293 0 b 350 31 329 0 350 6 b 285 188 350 85 285 57 l 285 358 b 447 578 285 503 365 576 b 600 383 557 579 582 482 l 642 158 b 585 32 658 68 585 75 b 644 0 585 7 608 0 l 815 0 b 872 31 851 0 872 6 b 800 151 872 76 817 65 z "},"ń":{"ha":883,"x_min":0,"x_max":0,"o":"m 346 764 b 588 865 410 740 564 800 b 550 953 603 907 582 940 b 426 896 513 965 475 936 b 329 792 376 851 336 810 b 346 764 325 781 328 769 z m 754 392 b 504 681 718 590 653 681 b 267 539 413 681 321 633 l 268 642 b 239 678 268 668 258 678 b 101 633 218 676 151 656 b 60 590 68 618 60 608 b 85 554 60 574 71 564 b 128 460 117 533 128 503 l 128 188 b 60 32 128 57 60 85 b 118 0 60 7 83 0 l 293 0 b 350 31 329 0 350 6 b 285 188 350 85 285 57 l 285 358 b 447 578 285 503 365 576 b 600 383 557 579 582 482 l 642 158 b 585 32 658 68 585 75 b 644 0 585 7 608 0 l 815 0 b 872 31 851 0 872 6 b 800 151 872 76 817 65 z "},"ň":{"ha":883,"x_min":0,"x_max":0,"o":"m 444 782 b 549 863 499 782 501 796 b 617 971 582 911 615 956 b 596 992 617 982 613 990 b 443 896 557 993 489 942 b 290 992 399 942 329 993 b 271 971 275 990 271 982 b 335 868 271 956 300 914 b 444 782 383 800 397 782 z m 754 392 b 504 681 718 590 653 681 b 267 539 413 681 321 633 l 268 642 b 239 678 268 668 258 678 b 101 633 218 676 151 656 b 60 590 68 618 60 608 b 85 554 60 574 71 564 b 128 460 117 533 128 503 l 128 188 b 60 32 128 57 60 85 b 118 0 60 7 83 0 l 293 0 b 350 31 329 0 350 6 b 285 188 350 85 285 57 l 285 358 b 447 578 285 503 365 576 b 600 383 557 579 582 482 l 642 158 b 585 32 658 68 585 75 b 644 0 585 7 608 0 l 815 0 b 872 31 851 0 872 6 b 800 151 872 76 817 65 z "},"ñ":{"ha":883,"x_min":0,"x_max":0,"o":"m 258 764 b 308 806 258 794 278 806 b 538 747 382 806 469 747 b 640 838 606 747 640 789 b 594 879 640 894 594 914 b 546 839 594 850 576 839 b 315 897 500 839 400 897 b 214 807 247 897 214 854 b 258 764 214 750 258 731 z m 754 392 b 504 681 718 590 653 681 b 267 539 413 681 321 633 l 268 642 b 239 678 268 668 258 678 b 101 633 218 676 151 656 b 60 590 68 618 60 608 b 85 554 60 574 71 564 b 128 460 117 533 128 503 l 128 188 b 60 32 128 57 60 85 b 118 0 60 7 83 0 l 293 0 b 350 31 329 0 350 6 b 285 188 350 85 285 57 l 285 358 b 447 578 285 503 365 576 b 600 383 557 579 582 482 l 642 158 b 585 32 658 68 585 75 b 644 0 585 7 608 0 l 815 0 b 872 31 851 0 872 6 b 800 151 872 76 817 65 z "},"o":{"ha":793,"x_min":0,"x_max":0,"o":"m 374 -14 b 743 351 590 -14 743 144 b 422 681 743 538 610 681 b 47 308 204 681 47 517 b 374 -14 47 111 188 -14 z m 425 65 b 203 386 294 65 203 214 b 367 600 203 501 256 600 b 589 269 496 600 589 436 b 425 65 589 154 532 65 z "},"ó":{"ha":793,"x_min":0,"x_max":0,"o":"m 311 764 b 553 865 375 740 529 800 b 515 953 568 907 547 940 b 392 896 478 965 440 936 b 294 792 342 851 301 810 b 311 764 290 781 293 769 z m 374 -14 b 743 351 590 -14 743 144 b 422 681 743 538 610 681 b 47 308 204 681 47 517 b 374 -14 47 111 188 -14 z m 425 65 b 203 386 294 65 203 214 b 367 600 203 501 256 600 b 589 269 496 600 589 436 b 425 65 589 154 532 65 z "},"ô":{"ha":793,"x_min":0,"x_max":0,"o":"m 256 747 b 408 843 294 746 364 797 b 561 747 454 797 522 746 b 582 768 578 749 582 757 b 514 876 581 783 547 828 b 410 957 467 943 464 957 b 300 871 363 957 349 939 b 236 768 265 825 236 783 b 256 747 236 757 240 749 z m 374 -14 b 743 351 590 -14 743 144 b 422 681 743 538 610 681 b 47 308 204 681 47 517 b 374 -14 47 111 188 -14 z m 425 65 b 203 386 294 65 203 214 b 367 600 203 501 256 600 b 589 269 496 600 589 436 b 425 65 589 154 532 65 z "},"ö":{"ha":793,"x_min":0,"x_max":0,"o":"m 283 779 b 379 867 332 779 379 817 b 307 936 379 908 350 936 b 217 842 257 936 217 889 b 283 779 217 804 246 779 z m 499 779 b 593 867 547 779 593 817 b 522 936 593 908 564 936 b 432 842 471 936 432 889 b 499 779 432 804 461 779 z m 374 -14 b 743 351 590 -14 743 144 b 422 681 743 538 610 681 b 47 308 204 681 47 517 b 374 -14 47 111 188 -14 z m 425 65 b 203 386 294 65 203 214 b 367 600 203 501 256 600 b 589 269 496 600 589 436 b 425 65 589 154 532 65 z "},"ò":{"ha":793,"x_min":0,"x_max":0,"o":"m 518 764 b 535 792 536 769 539 781 b 439 896 528 810 488 851 b 315 953 389 936 351 965 b 276 865 282 940 261 907 b 518 764 300 800 454 740 z m 374 -14 b 743 351 590 -14 743 144 b 422 681 743 538 610 681 b 47 308 204 681 47 517 b 374 -14 47 111 188 -14 z m 425 65 b 203 386 294 65 203 214 b 367 600 203 501 256 600 b 589 269 496 600 589 436 b 425 65 589 154 532 65 z "},"ő":{"ha":793,"x_min":0,"x_max":0,"o":"m 275 747 b 446 906 335 747 446 844 b 388 968 446 946 418 968 b 301 882 353 968 331 932 b 253 767 275 831 253 783 b 275 747 253 756 258 747 z m 483 746 b 660 900 546 746 660 839 b 603 961 660 938 633 961 b 514 879 569 961 546 926 b 458 765 483 828 458 782 b 483 746 458 756 465 746 z m 374 -14 b 743 351 590 -14 743 144 b 422 681 743 538 610 681 b 47 308 204 681 47 517 b 374 -14 47 111 188 -14 z m 425 65 b 203 386 294 65 203 214 b 367 600 203 501 256 600 b 589 269 496 600 589 436 b 425 65 589 154 532 65 z "},"ō":{"ha":793,"x_min":0,"x_max":0,"o":"m 543 768 b 601 811 592 768 597 776 b 554 849 606 839 601 849 l 240 849 b 186 807 194 849 190 840 b 229 768 182 778 185 768 z m 374 -14 b 743 351 590 -14 743 144 b 422 681 743 538 610 681 b 47 308 204 681 47 517 b 374 -14 47 111 188 -14 z m 425 65 b 203 386 294 65 203 214 b 367 600 203 501 256 600 b 589 269 496 600 589 436 b 425 65 589 154 532 65 z "},"ø":{"ha":793,"x_min":0,"x_max":0,"o":"m 697 776 b 704 800 701 785 704 793 b 674 824 704 815 688 824 b 635 800 657 824 646 819 l 551 656 b 422 681 513 672 469 681 b 47 308 204 681 47 517 b 193 33 47 183 104 88 l 107 -115 b 99 -136 103 -122 99 -129 b 129 -162 99 -153 113 -162 b 174 -133 146 -162 160 -156 l 253 6 b 374 -14 290 -7 331 -14 b 743 351 590 -14 743 144 b 610 624 743 467 692 565 z m 203 386 b 367 600 203 501 256 600 b 488 546 413 600 454 579 l 265 160 b 203 386 226 219 203 300 z m 425 65 b 313 108 383 65 344 81 l 532 489 b 589 269 568 428 589 349 b 425 65 589 154 532 65 z "},"õ":{"ha":793,"x_min":0,"x_max":0,"o":"m 503 747 b 606 838 571 747 606 789 b 560 879 606 894 560 914 b 511 839 560 850 542 839 b 281 897 465 839 365 897 b 179 807 213 897 179 854 b 224 764 179 750 224 731 b 274 806 224 794 243 806 b 503 747 347 806 435 747 z m 374 -14 b 743 351 590 -14 743 144 b 422 681 743 538 610 681 b 47 308 204 681 47 517 b 374 -14 47 111 188 -14 z m 425 65 b 203 386 294 65 203 214 b 367 600 203 501 256 600 b 589 269 496 600 589 436 b 425 65 589 154 532 65 z "},"œ":{"ha":1269,"x_min":0,"x_max":0,"o":"m 1185 196 b 974 100 1135 144 1061 100 b 756 251 854 100 783 179 b 1185 413 910 306 1039 351 b 1217 468 1213 424 1221 444 b 936 681 1193 586 1096 681 b 658 546 822 681 722 629 b 393 682 604 626 515 682 b 47 333 194 682 47 524 b 393 -14 47 132 188 -14 b 646 108 500 -14 588 33 b 908 -14 703 33 794 -14 b 1226 165 1088 -14 1199 93 b 1185 196 1240 203 1210 222 z m 426 60 b 207 397 292 60 207 222 b 378 611 207 546 289 614 b 581 325 490 608 567 472 l 581 311 b 583 265 581 296 582 281 b 426 60 582 165 540 60 z m 885 603 b 1047 472 956 610 1031 556 b 1018 421 1054 442 1040 429 b 739 321 929 385 836 353 b 729 407 732 343 729 374 b 885 603 729 501 782 597 z "},"p":{"ha":832,"x_min":0,"x_max":0,"o":"m 501 681 b 257 546 381 681 303 617 l 258 644 b 229 681 258 671 249 682 b 92 636 208 679 142 660 b 50 593 58 621 50 613 b 75 557 50 576 61 567 b 117 464 107 536 117 506 l 119 -90 b 51 -247 119 -221 51 -193 b 110 -278 51 -271 75 -278 l 285 -278 b 342 -247 321 -278 342 -272 b 276 -90 342 -193 276 -221 l 275 50 b 479 -14 326 14 401 -15 b 783 354 638 -12 783 126 b 501 681 783 549 667 681 z m 474 61 b 275 281 382 60 276 140 l 275 375 b 443 579 275 475 336 579 b 631 286 547 579 631 469 b 474 61 631 171 583 61 z "},"þ":{"ha":836,"x_min":0,"x_max":0,"o":"m 501 681 b 274 568 394 681 319 629 l 274 760 l 275 951 b 246 988 275 978 265 989 b 90 935 225 986 151 963 b 50 894 57 919 50 911 b 117 760 50 851 117 869 l 117 -89 b 50 -246 117 -221 50 -192 b 108 -278 50 -271 72 -278 l 283 -278 b 340 -247 318 -278 340 -271 b 274 -89 340 -192 274 -221 l 274 51 b 479 -14 325 14 401 -15 b 783 354 638 -12 783 126 b 501 681 783 549 667 681 z m 474 61 b 275 281 382 60 276 140 l 275 375 b 443 579 275 475 336 579 b 631 286 547 579 631 469 b 474 61 631 171 583 61 z "},"q":{"ha":814,"x_min":0,"x_max":0,"o":"m 718 642 b 685 681 718 665 710 681 b 585 642 649 681 635 642 b 389 681 544 642 493 681 b 47 299 219 681 47 528 b 343 -14 47 119 163 -14 b 563 104 442 -14 515 38 l 563 -90 b 468 -247 563 -235 468 -192 b 526 -278 468 -272 490 -278 l 726 -278 b 785 -247 763 -278 785 -271 b 718 -90 785 -200 718 -222 z m 403 89 b 199 376 301 89 199 194 b 369 603 199 510 261 603 b 531 499 439 603 494 567 b 563 314 557 449 563 374 b 403 89 563 201 513 89 z "},"r":{"ha":629,"x_min":0,"x_max":0,"o":"m 464 681 b 267 546 390 681 315 629 l 268 642 b 239 678 268 668 258 678 b 101 633 218 676 151 656 b 60 590 68 618 60 608 b 85 554 60 574 71 564 b 128 460 117 533 128 503 l 128 188 b 60 32 128 57 60 85 b 118 0 60 7 83 0 l 293 0 b 350 31 329 0 350 6 b 285 188 350 85 285 57 l 285 374 b 392 557 285 485 336 557 b 518 492 458 557 454 490 b 579 572 553 492 579 528 b 464 681 579 631 542 681 z "},"ŕ":{"ha":629,"x_min":0,"x_max":0,"o":"m 281 768 b 522 869 344 744 499 804 b 485 957 538 911 517 944 b 361 900 447 969 410 940 b 264 796 311 856 271 814 b 281 768 260 785 263 774 z m 464 681 b 267 546 390 681 315 629 l 268 642 b 239 678 268 668 258 678 b 101 633 218 676 151 656 b 60 590 68 618 60 608 b 85 554 60 574 71 564 b 128 460 117 533 128 503 l 128 188 b 60 32 128 57 60 85 b 118 0 60 7 83 0 l 293 0 b 350 31 329 0 350 6 b 285 188 350 85 285 57 l 285 374 b 392 557 285 485 336 557 b 518 492 458 557 454 490 b 579 572 553 492 579 528 b 464 681 579 631 542 681 z "},"ř":{"ha":629,"x_min":0,"x_max":0,"o":"m 328 786 b 432 867 382 786 385 800 b 500 975 465 915 499 960 b 479 996 500 986 496 994 b 326 900 440 997 372 946 b 174 996 282 946 213 997 b 154 975 158 994 154 986 b 218 872 154 960 183 918 b 328 786 267 804 281 786 z m 464 681 b 267 546 390 681 315 629 l 268 642 b 239 678 268 668 258 678 b 101 633 218 676 151 656 b 60 590 68 618 60 608 b 85 554 60 574 71 564 b 128 460 117 533 128 503 l 128 188 b 60 32 128 57 60 85 b 118 0 60 7 83 0 l 293 0 b 350 31 329 0 350 6 b 285 188 350 85 285 57 l 285 374 b 392 557 285 485 336 557 b 518 492 458 557 454 490 b 579 572 553 492 579 528 b 464 681 579 631 542 681 z "},"s":{"ha":683,"x_min":0,"x_max":0,"o":"m 151 -14 b 206 14 178 -14 185 14 b 379 -14 235 14 279 -14 b 636 185 529 -14 636 74 b 394 400 636 288 536 342 b 213 535 274 450 213 481 b 314 610 213 575 247 610 b 500 533 376 610 446 572 b 592 488 546 499 568 475 b 599 544 607 496 610 515 b 558 631 588 572 578 594 b 510 681 539 664 529 681 b 458 663 489 681 483 661 b 297 681 419 664 374 681 b 72 490 192 681 72 621 b 293 278 72 375 179 325 b 483 138 410 229 483 192 b 385 58 483 86 440 58 b 132 199 307 58 231 96 b 71 228 107 222 89 236 b 56 183 56 222 50 208 b 106 38 69 132 85 93 b 151 -14 124 -4 131 -14 z "},"":{"ha":683,"x_min":0,"x_max":0,"o":"m 151 -14 b 206 14 178 -14 185 14 b 379 -14 235 14 279 -14 b 636 185 529 -14 636 74 b 394 400 636 288 536 342 b 213 535 274 450 213 481 b 314 610 213 575 247 610 b 500 533 376 610 446 572 b 592 488 546 499 568 475 b 599 544 607 496 610 515 b 558 631 588 572 578 594 b 510 681 539 664 529 681 b 458 663 489 681 483 661 b 297 681 419 664 374 681 b 72 490 192 681 72 621 b 293 278 72 375 179 325 b 483 138 410 229 483 192 b 385 58 483 86 440 58 b 132 199 307 58 231 96 b 71 228 107 222 89 236 b 56 183 56 222 50 208 b 106 38 69 132 85 93 b 151 -14 124 -4 131 -14 z "},"ś":{"ha":683,"x_min":0,"x_max":0,"o":"m 238 764 b 479 865 301 740 456 800 b 442 953 494 907 474 940 b 318 896 404 965 367 936 b 221 792 268 851 228 810 b 238 764 217 781 219 769 z m 151 -14 b 206 14 178 -14 185 14 b 379 -14 235 14 279 -14 b 636 185 529 -14 636 74 b 394 400 636 288 536 342 b 213 535 274 450 213 481 b 314 610 213 575 247 610 b 500 533 376 610 446 572 b 592 488 546 499 568 475 b 599 544 607 496 610 515 b 558 631 588 572 578 594 b 510 681 539 664 529 681 b 458 663 489 681 483 661 b 297 681 419 664 374 681 b 72 490 192 681 72 621 b 293 278 72 375 179 325 b 483 138 410 229 483 192 b 385 58 483 86 440 58 b 132 199 307 58 231 96 b 71 228 107 222 89 236 b 56 183 56 222 50 208 b 106 38 69 132 85 93 b 151 -14 124 -4 131 -14 z "},"š":{"ha":683,"x_min":0,"x_max":0,"o":"m 182 992 b 163 971 167 990 163 982 b 226 868 163 956 192 914 b 336 782 275 800 289 782 b 440 863 390 782 393 796 b 508 971 474 911 507 956 b 488 992 508 982 504 990 b 335 896 449 993 381 942 b 182 992 290 942 221 993 z m 151 -14 b 206 14 178 -14 185 14 b 379 -14 235 14 279 -14 b 636 185 529 -14 636 74 b 394 400 636 288 536 342 b 213 535 274 450 213 481 b 314 610 213 575 247 610 b 500 533 376 610 446 572 b 592 488 546 499 568 475 b 599 544 607 496 610 515 b 558 631 588 572 578 594 b 510 681 539 664 529 681 b 458 663 489 681 483 661 b 297 681 419 664 374 681 b 72 490 192 681 72 621 b 293 278 72 375 179 325 b 483 138 410 229 483 192 b 385 58 483 86 440 58 b 132 199 307 58 231 96 b 71 228 107 222 89 236 b 56 183 56 222 50 208 b 106 38 69 132 85 93 b 151 -14 124 -4 131 -14 z "},"ş":{"ha":683,"x_min":0,"x_max":0,"o":"m 379 -14 b 636 185 529 -14 636 74 b 394 400 636 288 536 342 b 213 535 274 450 213 481 b 314 610 213 575 247 610 b 500 533 376 610 446 572 b 592 488 546 499 568 475 b 599 544 607 496 610 515 b 558 631 588 572 578 594 b 510 681 539 664 529 681 b 458 663 489 681 483 661 b 297 681 419 664 374 681 b 72 490 192 681 72 621 b 293 278 72 375 179 325 b 483 138 410 229 483 192 b 385 58 483 86 440 58 b 132 199 307 58 231 96 b 71 228 107 222 89 236 b 56 183 56 222 50 208 b 106 38 69 132 85 93 b 151 -14 124 -4 131 -14 b 206 14 178 -14 185 14 b 301 -7 226 14 253 0 l 256 -93 b 272 -118 247 -107 258 -115 b 364 -190 315 -128 364 -144 b 303 -246 364 -219 344 -246 b 235 -225 272 -246 253 -235 b 208 -250 211 -210 194 -232 b 324 -296 226 -272 264 -296 b 456 -182 396 -296 456 -250 b 326 -72 456 -114 397 -85 l 357 -14 z "},"ß":{"ha":874,"x_min":0,"x_max":0,"o":"m 576 -14 b 832 214 729 -15 832 85 b 644 438 832 325 740 382 b 485 563 535 500 485 522 b 606 821 485 640 606 707 b 410 986 606 915 536 986 b 125 663 235 986 125 856 l 124 168 b 58 28 124 71 58 69 b 119 0 58 6 76 0 l 264 0 b 321 28 304 0 321 7 b 279 167 321 69 279 69 l 281 667 b 383 914 281 778 278 914 b 469 800 450 914 469 851 b 394 486 469 683 394 581 b 556 304 394 388 472 353 b 697 143 643 253 697 211 b 606 57 697 94 663 57 b 411 186 510 57 446 135 b 372 225 397 207 389 225 b 346 167 356 225 346 203 b 375 58 346 135 354 88 b 576 -14 417 3 524 -14 z "},"t":{"ha":515,"x_min":0,"x_max":0,"o":"m 449 142 b 346 99 422 119 382 99 b 260 251 276 99 258 143 b 264 588 263 407 263 511 l 385 583 b 442 625 411 582 435 586 b 404 667 449 663 428 667 l 265 667 b 271 781 267 713 268 747 b 246 817 272 801 264 817 b 201 800 236 817 226 817 b 39 661 150 765 90 717 b 22 622 26 647 22 636 b 65 592 22 601 33 592 l 111 592 b 106 251 107 513 106 394 l 106 194 b 288 -14 106 60 168 -14 b 486 115 399 -14 465 61 b 449 142 496 142 472 161 z "},"ŧ":{"ha":515,"x_min":0,"x_max":0,"o":"m 449 142 b 346 99 422 119 382 99 b 260 251 276 99 258 143 b 261 393 261 304 261 351 l 342 393 b 372 426 363 393 372 404 b 342 460 372 449 363 460 l 263 460 b 264 588 263 510 264 551 l 385 583 b 442 625 411 582 435 586 b 404 667 449 663 428 667 l 265 667 b 271 781 267 713 268 747 b 246 817 272 801 264 817 b 201 800 236 817 226 817 b 39 661 150 765 90 717 b 22 622 26 647 22 636 b 65 592 22 601 33 592 l 111 592 l 107 460 l 54 460 b 24 426 33 460 24 449 b 54 393 24 404 33 393 l 106 393 l 106 194 b 288 -14 106 60 168 -14 b 486 115 399 -14 465 61 b 449 142 496 142 472 161 z "},"ť":{"ha":515,"x_min":0,"x_max":0,"o":"m 401 726 b 524 972 444 726 524 911 b 464 1040 524 1017 497 1040 b 400 968 431 1040 404 1018 b 381 753 397 949 385 808 b 401 726 378 736 388 726 z m 449 142 b 346 99 422 119 382 99 b 260 251 276 99 258 143 b 264 588 263 407 263 511 l 385 583 b 442 625 411 582 435 586 b 404 667 449 663 428 667 l 265 667 b 271 781 267 713 268 747 b 246 817 272 801 264 817 b 201 800 236 817 226 817 b 39 661 150 765 90 717 b 22 622 26 647 22 636 b 65 592 22 601 33 592 l 111 592 b 106 251 107 513 106 394 l 106 194 b 288 -14 106 60 168 -14 b 486 115 399 -14 465 61 b 449 142 496 142 472 161 z "},"u":{"ha":832,"x_min":0,"x_max":0,"o":"m 744 644 b 714 681 744 671 735 682 b 560 628 693 679 619 656 b 518 588 526 613 518 604 b 586 453 518 544 586 563 l 586 296 b 414 88 586 169 496 89 b 285 276 319 86 285 161 l 285 453 l 286 644 b 256 681 286 671 276 682 b 101 628 235 679 161 656 b 60 588 68 613 60 604 b 126 453 60 544 126 563 l 128 264 b 361 -14 128 79 218 -14 b 589 110 438 -14 531 29 l 590 64 b 643 -14 593 11 607 -14 b 785 32 679 -14 746 11 b 825 78 811 47 825 61 b 743 194 825 118 743 90 l 743 453 z "},"ú":{"ha":832,"x_min":0,"x_max":0,"o":"m 388 764 b 629 865 451 740 606 800 b 592 953 644 907 624 940 b 468 896 554 965 517 936 b 371 792 418 851 378 810 b 388 764 367 781 369 769 z m 744 644 b 714 681 744 671 735 682 b 560 628 693 679 619 656 b 518 588 526 613 518 604 b 586 453 518 544 586 563 l 586 296 b 414 88 586 169 496 89 b 285 276 319 86 285 161 l 285 453 l 286 644 b 256 681 286 671 276 682 b 101 628 235 679 161 656 b 60 588 68 613 60 604 b 126 453 60 544 126 563 l 128 264 b 361 -14 128 79 218 -14 b 589 110 438 -14 531 29 l 590 64 b 643 -14 593 11 607 -14 b 785 32 679 -14 746 11 b 825 78 811 47 825 61 b 743 194 825 118 743 90 l 743 453 z "},"û":{"ha":832,"x_min":0,"x_max":0,"o":"m 332 747 b 485 843 371 746 440 797 b 638 747 531 797 599 746 b 658 768 654 749 658 757 b 590 876 657 783 624 828 b 486 957 543 943 540 957 b 376 871 439 957 425 939 b 313 768 342 825 313 783 b 332 747 313 757 317 749 z m 744 644 b 714 681 744 671 735 682 b 560 628 693 679 619 656 b 518 588 526 613 518 604 b 586 453 518 544 586 563 l 586 296 b 414 88 586 169 496 89 b 285 276 319 86 285 161 l 285 453 l 286 644 b 256 681 286 671 276 682 b 101 628 235 679 161 656 b 60 588 68 613 60 604 b 126 453 60 544 126 563 l 128 264 b 361 -14 128 79 218 -14 b 589 110 438 -14 531 29 l 590 64 b 643 -14 593 11 607 -14 b 785 32 679 -14 746 11 b 825 78 811 47 825 61 b 743 194 825 118 743 90 l 743 453 z "},"ü":{"ha":832,"x_min":0,"x_max":0,"o":"m 360 779 b 456 867 408 779 456 817 b 383 936 456 908 426 936 b 293 842 333 936 293 889 b 360 779 293 804 322 779 z m 575 779 b 669 867 624 779 669 817 b 599 936 669 908 640 936 b 508 842 547 936 508 889 b 575 779 508 804 538 779 z m 744 644 b 714 681 744 671 735 682 b 560 628 693 679 619 656 b 518 588 526 613 518 604 b 586 453 518 544 586 563 l 586 296 b 414 88 586 169 496 89 b 285 276 319 86 285 161 l 285 453 l 286 644 b 256 681 286 671 276 682 b 101 628 235 679 161 656 b 60 588 68 613 60 604 b 126 453 60 544 126 563 l 128 264 b 361 -14 128 79 218 -14 b 589 110 438 -14 531 29 l 590 64 b 643 -14 593 11 607 -14 b 785 32 679 -14 746 11 b 825 78 811 47 825 61 b 743 194 825 118 743 90 l 743 453 z "},"ù":{"ha":832,"x_min":0,"x_max":0,"o":"m 594 764 b 611 792 613 769 615 781 b 515 896 604 810 564 851 b 392 953 465 936 428 965 b 353 865 358 940 338 907 b 594 764 376 800 531 740 z m 744 644 b 714 681 744 671 735 682 b 560 628 693 679 619 656 b 518 588 526 613 518 604 b 586 453 518 544 586 563 l 586 296 b 414 88 586 169 496 89 b 285 276 319 86 285 161 l 285 453 l 286 644 b 256 681 286 671 276 682 b 101 628 235 679 161 656 b 60 588 68 613 60 604 b 126 453 60 544 126 563 l 128 264 b 361 -14 128 79 218 -14 b 589 110 438 -14 531 29 l 590 64 b 643 -14 593 11 607 -14 b 785 32 679 -14 746 11 b 825 78 811 47 825 61 b 743 194 825 118 743 90 l 743 453 z "},"ű":{"ha":832,"x_min":0,"x_max":0,"o":"m 351 747 b 522 906 411 747 522 844 b 464 968 522 946 494 968 b 378 882 429 968 407 932 b 329 767 351 831 329 783 b 351 747 329 756 335 747 z m 560 746 b 736 900 622 746 736 839 b 679 961 736 938 710 961 b 590 879 646 961 622 926 b 535 765 560 828 535 782 b 560 746 535 756 542 746 z m 744 644 b 714 681 744 671 735 682 b 560 628 693 679 619 656 b 518 588 526 613 518 604 b 586 453 518 544 586 563 l 586 296 b 414 88 586 169 496 89 b 285 276 319 86 285 161 l 285 453 l 286 644 b 256 681 286 671 276 682 b 101 628 235 679 161 656 b 60 588 68 613 60 604 b 126 453 60 544 126 563 l 128 264 b 361 -14 128 79 218 -14 b 589 110 438 -14 531 29 l 590 64 b 643 -14 593 11 607 -14 b 785 32 679 -14 746 11 b 825 78 811 47 825 61 b 743 194 825 118 743 90 l 743 453 z "},"ū":{"ha":832,"x_min":0,"x_max":0,"o":"m 619 768 b 678 811 668 768 674 776 b 631 849 682 839 678 849 l 317 849 b 263 807 271 849 267 840 b 306 768 258 778 261 768 z m 744 644 b 714 681 744 671 735 682 b 560 628 693 679 619 656 b 518 588 526 613 518 604 b 586 453 518 544 586 563 l 586 296 b 414 88 586 169 496 89 b 285 276 319 86 285 161 l 285 453 l 286 644 b 256 681 286 671 276 682 b 101 628 235 679 161 656 b 60 588 68 613 60 604 b 126 453 60 544 126 563 l 128 264 b 361 -14 128 79 218 -14 b 589 110 438 -14 531 29 l 590 64 b 643 -14 593 11 607 -14 b 785 32 679 -14 746 11 b 825 78 811 47 825 61 b 743 194 825 118 743 90 l 743 453 z "},"ģ":{"ha":778,"x_min":0,"x_max":0,"o":"m 400 751 b 476 829 439 751 476 782 b 414 944 476 896 414 904 b 464 1033 414 988 464 1015 b 444 1050 464 1043 457 1050 b 313 851 400 1050 313 969 b 400 751 313 779 353 751 z m 561 106 b 332 94 507 106 410 94 b 189 165 258 94 189 108 b 221 217 189 186 204 206 b 357 196 260 203 306 196 b 667 456 543 199 667 308 b 589 619 667 521 639 579 b 714 729 653 632 714 671 b 660 783 714 761 688 783 b 607 751 638 783 622 769 b 492 675 565 697 524 675 b 410 681 464 675 450 679 l 389 681 b 68 415 208 678 68 563 b 164 244 68 343 103 283 b 56 118 85 213 56 163 b 142 -3 56 60 94 19 b 51 -122 82 -29 51 -79 b 365 -293 51 -244 213 -293 b 764 -54 614 -293 764 -196 b 561 106 764 36 694 106 z m 358 615 b 511 415 460 615 511 514 b 379 261 511 325 461 261 b 222 463 281 261 224 356 b 358 615 222 553 281 615 z m 400 -224 b 189 -115 274 -224 189 -186 b 289 -37 189 -62 240 -37 b 504 -31 376 -39 440 -33 b 618 -107 596 -26 618 -68 b 400 -224 618 -182 535 -224 z "},"ķ":{"ha":842,"x_min":0,"x_max":0,"o":"m 614 540 b 742 639 686 619 742 603 b 693 667 742 658 725 667 l 542 667 b 494 639 507 667 494 657 b 524 549 494 604 571 600 l 283 293 l 283 758 l 285 950 b 254 986 285 976 275 988 b 100 933 233 985 160 961 b 58 893 67 918 58 910 b 125 758 58 850 125 868 l 126 188 b 58 32 126 57 58 85 b 117 0 58 7 82 0 l 292 0 b 349 31 328 0 349 6 b 283 188 349 85 283 57 l 453 368 l 561 125 b 521 28 588 68 521 69 b 581 0 521 7 539 0 l 749 0 b 810 28 792 0 810 6 b 715 142 810 69 747 71 l 564 488 z m 431 -72 b 354 -150 392 -72 354 -103 b 417 -265 354 -217 417 -225 b 367 -354 417 -308 367 -336 b 386 -371 367 -364 374 -371 b 518 -172 431 -371 518 -290 b 431 -72 518 -100 478 -72 z "},"ļ":{"ha":404,"x_min":0,"x_max":0,"o":"m 126 188 b 58 32 126 57 58 85 b 117 0 58 7 82 0 l 292 0 b 349 31 328 0 349 6 b 283 188 349 85 283 57 l 283 758 l 285 950 b 254 986 285 976 275 988 b 100 933 233 985 160 961 b 58 893 67 918 58 910 b 125 758 58 850 125 868 z m 149 -371 b 281 -172 193 -371 281 -290 b 193 -72 281 -100 240 -72 b 117 -150 154 -72 117 -103 b 179 -265 117 -217 179 -225 b 129 -354 179 -308 129 -336 b 149 -371 129 -364 136 -371 z "},"ņ":{"ha":883,"x_min":0,"x_max":0,"o":"m 754 392 b 504 681 718 590 653 681 b 267 539 413 681 321 633 l 268 642 b 239 678 268 668 258 678 b 101 633 218 676 151 656 b 60 590 68 618 60 608 b 85 554 60 574 71 564 b 128 460 117 533 128 503 l 128 188 b 60 32 128 57 60 85 b 118 0 60 7 83 0 l 293 0 b 350 31 329 0 350 6 b 285 188 350 85 285 57 l 285 358 b 447 578 285 503 365 576 b 600 383 557 579 582 482 l 642 158 b 585 32 658 68 585 75 b 644 0 585 7 608 0 l 815 0 b 872 31 851 0 872 6 b 800 151 872 76 817 65 z m 428 -72 b 351 -150 389 -72 351 -103 b 414 -265 351 -217 414 -225 b 364 -354 414 -308 364 -336 b 383 -371 364 -364 371 -371 b 515 -172 428 -371 515 -290 b 428 -72 515 -100 475 -72 z "},"ŗ":{"ha":629,"x_min":0,"x_max":0,"o":"m 464 681 b 267 546 390 681 315 629 l 268 642 b 239 678 268 668 258 678 b 101 633 218 676 151 656 b 60 590 68 618 60 608 b 85 554 60 574 71 564 b 128 460 117 533 128 503 l 128 188 b 60 32 128 57 60 85 b 118 0 60 7 83 0 l 293 0 b 350 31 329 0 350 6 b 285 188 350 85 285 57 l 285 374 b 392 557 285 485 336 557 b 518 492 458 557 454 490 b 579 572 553 492 579 528 b 464 681 579 631 542 681 z m 193 -72 b 117 -150 154 -72 117 -103 b 179 -265 117 -217 179 -225 b 129 -354 179 -308 129 -336 b 149 -371 129 -364 136 -371 b 281 -172 193 -371 281 -290 b 193 -72 281 -100 240 -72 z "},"ţ":{"ha":515,"x_min":0,"x_max":0,"o":"m 449 142 b 346 99 422 119 382 99 b 260 251 276 99 258 143 b 264 588 263 407 263 511 l 385 583 b 442 625 411 582 435 586 b 404 667 449 663 428 667 l 265 667 b 271 781 267 713 268 747 b 246 817 272 801 264 817 b 201 800 236 817 226 817 b 39 661 150 765 90 717 b 22 622 26 647 22 636 b 65 592 22 601 33 592 l 111 592 b 106 251 107 513 106 394 l 106 194 b 211 -1 106 93 142 25 l 161 -93 b 178 -118 153 -107 164 -115 b 269 -190 221 -128 269 -144 b 208 -246 269 -219 250 -246 b 140 -225 178 -246 158 -235 b 114 -250 117 -210 100 -232 b 229 -296 132 -272 169 -296 b 361 -182 301 -296 361 -250 b 232 -72 361 -114 303 -85 l 263 -12 b 288 -14 271 -14 279 -14 b 486 115 399 -14 465 61 b 449 142 496 142 472 161 z "},"ș":{"ha":683,"x_min":0,"x_max":0,"o":"m 151 -14 b 206 14 178 -14 185 14 b 379 -14 235 14 279 -14 b 636 185 529 -14 636 74 b 394 400 636 288 536 342 b 213 535 274 450 213 481 b 314 610 213 575 247 610 b 500 533 376 610 446 572 b 592 488 546 499 568 475 b 599 544 607 496 610 515 b 558 631 588 572 578 594 b 510 681 539 664 529 681 b 458 663 489 681 483 661 b 297 681 419 664 374 681 b 72 490 192 681 72 621 b 293 278 72 375 179 325 b 483 138 410 229 483 192 b 385 58 483 86 440 58 b 132 199 307 58 231 96 b 71 228 107 222 89 236 b 56 183 56 222 50 208 b 106 38 69 132 85 93 b 151 -14 124 -4 131 -14 z m 275 -371 b 407 -172 319 -371 407 -290 b 319 -72 407 -100 367 -72 b 243 -150 281 -72 243 -103 b 306 -265 243 -217 306 -225 b 256 -354 306 -308 256 -336 b 275 -371 256 -364 263 -371 z "},"ț":{"ha":515,"x_min":0,"x_max":0,"o":"m 449 142 b 346 99 422 119 382 99 b 260 251 276 99 258 143 b 264 588 263 407 263 511 l 385 583 b 442 625 411 582 435 586 b 404 667 449 663 428 667 l 265 667 b 271 781 267 713 268 747 b 246 817 272 801 264 817 b 201 800 236 817 226 817 b 39 661 150 765 90 717 b 22 622 26 647 22 636 b 65 592 22 601 33 592 l 111 592 b 106 251 107 513 106 394 l 106 194 b 288 -14 106 60 168 -14 b 486 115 399 -14 465 61 b 449 142 496 142 472 161 z m 225 -72 b 149 -150 186 -72 149 -103 b 211 -265 149 -217 211 -225 b 161 -354 211 -308 161 -336 b 181 -371 161 -364 168 -371 b 313 -172 225 -371 313 -290 b 225 -72 313 -100 272 -72 z "},"ų":{"ha":832,"x_min":0,"x_max":0,"o":"m 829 -168 b 775 -181 813 -175 790 -181 b 700 -108 725 -181 700 -151 b 768 24 700 -72 718 -28 l 785 32 b 825 78 811 47 825 61 b 743 194 825 118 743 90 l 743 453 l 744 644 b 714 681 744 671 735 682 b 560 628 693 679 619 656 b 518 588 526 613 518 604 b 586 453 518 544 586 563 l 586 296 b 414 88 586 169 496 89 b 285 276 319 86 285 161 l 285 453 l 286 644 b 256 681 286 671 276 682 b 101 628 235 679 161 656 b 60 588 68 613 60 604 b 126 453 60 544 126 563 l 128 264 b 361 -14 128 79 218 -14 b 589 110 438 -14 531 29 l 590 64 b 643 -14 593 11 607 -14 b 663 -12 649 -14 656 -14 b 599 -129 622 -47 599 -86 b 735 -242 599 -200 658 -242 b 851 -199 776 -242 822 -228 b 829 -168 868 -181 860 -154 z "},"ů":{"ha":832,"x_min":0,"x_max":0,"o":"m 474 732 b 618 868 553 732 618 785 b 479 1000 618 949 557 1000 b 335 864 399 1000 335 946 b 474 732 335 785 394 732 z m 474 939 b 543 871 511 939 538 910 b 481 797 546 831 522 797 b 408 865 442 797 414 825 b 474 939 406 908 431 939 z m 744 644 b 714 681 744 671 735 682 b 560 628 693 679 619 656 b 518 588 526 613 518 604 b 586 453 518 544 586 563 l 586 296 b 414 88 586 169 496 89 b 285 276 319 86 285 161 l 285 453 l 286 644 b 256 681 286 671 276 682 b 101 628 235 679 161 656 b 60 588 68 613 60 604 b 126 453 60 544 126 563 l 128 264 b 361 -14 128 79 218 -14 b 589 110 438 -14 531 29 l 590 64 b 643 -14 593 11 607 -14 b 785 32 679 -14 746 11 b 825 78 811 47 825 61 b 743 194 825 118 743 90 l 743 453 z "},"v":{"ha":749,"x_min":0,"x_max":0,"o":"m 589 667 b 531 636 553 667 531 661 b 561 493 531 592 604 606 l 422 125 l 279 493 b 317 636 235 604 317 592 b 257 667 317 660 293 667 l 74 667 b 17 636 38 667 17 661 b 113 493 17 592 69 604 l 299 22 b 392 -4 311 -8 328 -19 b 467 49 450 10 457 22 l 636 493 b 733 636 679 606 733 592 b 675 667 733 660 711 667 z "},"w":{"ha":1175,"x_min":0,"x_max":0,"o":"m 1014 667 b 956 636 978 667 956 661 b 983 494 956 592 1031 604 l 850 179 l 674 653 b 617 672 667 671 653 681 b 574 638 589 665 581 653 l 404 182 l 281 493 b 318 635 236 604 318 590 b 258 667 318 658 294 667 l 74 667 b 17 635 38 667 17 660 b 113 493 17 590 69 604 l 303 14 b 369 -3 310 -6 328 -12 b 426 35 403 4 419 17 l 583 454 l 743 14 b 806 -3 750 -6 767 -11 b 865 35 849 4 857 17 l 1061 494 b 1161 636 1107 604 1161 592 b 1101 667 1161 660 1138 667 z "},"":{"ha":1175,"x_min":0,"x_max":0,"o":"m 1014 667 b 956 636 978 667 956 661 b 983 494 956 592 1031 604 l 850 179 l 674 653 b 617 672 667 671 653 681 b 574 638 589 665 581 653 l 404 182 l 281 493 b 318 635 236 604 318 590 b 258 667 318 658 294 667 l 74 667 b 17 635 38 667 17 660 b 113 493 17 590 69 604 l 303 14 b 369 -3 310 -6 328 -12 b 426 35 403 4 419 17 l 583 454 l 743 14 b 806 -3 750 -6 767 -11 b 865 35 849 4 857 17 l 1061 494 b 1161 636 1107 604 1161 592 b 1101 667 1161 660 1138 667 z "},"ẃ":{"ha":1175,"x_min":0,"x_max":0,"o":"m 558 764 b 800 865 622 740 776 800 b 763 953 815 907 794 940 b 639 896 725 965 688 936 b 542 792 589 851 549 810 b 558 764 538 781 540 769 z m 1014 667 b 956 636 978 667 956 661 b 983 494 956 592 1031 604 l 850 179 l 674 653 b 617 672 667 671 653 681 b 574 638 589 665 581 653 l 404 182 l 281 493 b 318 635 236 604 318 590 b 258 667 318 658 294 667 l 74 667 b 17 635 38 667 17 660 b 113 493 17 590 69 604 l 303 14 b 369 -3 310 -6 328 -12 b 426 35 403 4 419 17 l 583 454 l 743 14 b 806 -3 750 -6 767 -11 b 865 35 849 4 857 17 l 1061 494 b 1161 636 1107 604 1161 592 b 1101 667 1161 660 1138 667 z "},"ŵ":{"ha":1175,"x_min":0,"x_max":0,"o":"m 503 747 b 656 843 542 746 611 797 b 808 747 701 797 769 746 b 829 768 825 749 829 757 b 761 876 828 783 794 828 b 657 957 714 943 711 957 b 547 871 610 957 596 939 b 483 768 513 825 483 783 b 503 747 483 757 488 749 z m 1014 667 b 956 636 978 667 956 661 b 983 494 956 592 1031 604 l 850 179 l 674 653 b 617 672 667 671 653 681 b 574 638 589 665 581 653 l 404 182 l 281 493 b 318 635 236 604 318 590 b 258 667 318 658 294 667 l 74 667 b 17 635 38 667 17 660 b 113 493 17 590 69 604 l 303 14 b 369 -3 310 -6 328 -12 b 426 35 403 4 419 17 l 583 454 l 743 14 b 806 -3 750 -6 767 -11 b 865 35 849 4 857 17 l 1061 494 b 1161 636 1107 604 1161 592 b 1101 667 1161 660 1138 667 z "},"ẅ":{"ha":1175,"x_min":0,"x_max":0,"o":"m 531 779 b 626 867 579 779 626 817 b 554 936 626 908 597 936 b 464 842 504 936 464 889 b 531 779 464 804 493 779 z m 746 779 b 840 867 794 779 840 817 b 769 936 840 908 811 936 b 679 842 718 936 679 889 b 746 779 679 804 708 779 z m 1014 667 b 956 636 978 667 956 661 b 983 494 956 592 1031 604 l 850 179 l 674 653 b 617 672 667 671 653 681 b 574 638 589 665 581 653 l 404 182 l 281 493 b 318 635 236 604 318 590 b 258 667 318 658 294 667 l 74 667 b 17 635 38 667 17 660 b 113 493 17 590 69 604 l 303 14 b 369 -3 310 -6 328 -12 b 426 35 403 4 419 17 l 583 454 l 743 14 b 806 -3 750 -6 767 -11 b 865 35 849 4 857 17 l 1061 494 b 1161 636 1107 604 1161 592 b 1101 667 1161 660 1138 667 z "},"ẁ":{"ha":1175,"x_min":0,"x_max":0,"o":"m 765 764 b 782 792 783 769 786 781 b 686 896 775 810 735 851 b 563 953 636 936 599 965 b 524 865 529 940 508 907 b 765 764 547 800 701 740 z m 1014 667 b 956 636 978 667 956 661 b 983 494 956 592 1031 604 l 850 179 l 674 653 b 617 672 667 671 653 681 b 574 638 589 665 581 653 l 404 182 l 281 493 b 318 635 236 604 318 590 b 258 667 318 658 294 667 l 74 667 b 17 635 38 667 17 660 b 113 493 17 590 69 604 l 303 14 b 369 -3 310 -6 328 -12 b 426 35 403 4 419 17 l 583 454 l 743 14 b 806 -3 750 -6 767 -11 b 865 35 849 4 857 17 l 1061 494 b 1161 636 1107 604 1161 592 b 1101 667 1161 660 1138 667 z "},"x":{"ha":769,"x_min":0,"x_max":0,"o":"m 583 506 b 713 636 657 600 713 592 b 654 667 713 660 690 667 l 546 667 b 489 636 510 667 489 661 b 494 506 489 592 569 600 l 426 418 l 364 503 b 375 636 293 600 375 592 b 317 667 375 660 351 667 l 100 667 b 42 636 64 667 42 661 b 169 503 42 592 100 600 l 299 325 l 168 161 b 39 32 94 67 39 75 b 99 0 39 7 63 0 l 206 0 b 264 31 242 0 264 6 b 257 161 264 75 183 67 l 340 268 l 417 164 b 406 32 488 67 406 75 b 465 0 406 7 429 0 l 681 0 b 739 31 717 0 739 6 b 611 164 739 75 681 67 l 469 358 z "},"y":{"ha":768,"x_min":0,"x_max":0,"o":"m 608 667 b 551 636 574 667 551 661 b 582 493 551 592 625 606 l 440 126 l 297 493 b 335 636 253 604 335 592 b 275 667 335 660 311 667 l 92 667 b 35 636 56 667 35 661 b 132 493 35 592 88 604 l 311 40 b 335 -61 324 7 335 -24 b 254 -199 335 -129 300 -199 b 113 -94 186 -199 182 -93 b 38 -179 65 -94 38 -136 b 185 -292 38 -244 101 -292 b 478 31 350 -292 401 -165 l 657 493 b 754 636 700 604 754 592 b 696 667 754 660 731 667 z "},"":{"ha":768,"x_min":0,"x_max":0,"o":"m 608 667 b 551 636 574 667 551 661 b 582 493 551 592 625 606 l 440 126 l 297 493 b 335 636 253 604 335 592 b 275 667 335 660 311 667 l 92 667 b 35 636 56 667 35 661 b 132 493 35 592 88 604 l 311 40 b 335 -61 324 7 335 -24 b 254 -199 335 -129 300 -199 b 113 -94 186 -199 182 -93 b 38 -179 65 -94 38 -136 b 185 -292 38 -244 101 -292 b 478 31 350 -292 401 -165 l 657 493 b 754 636 700 604 754 592 b 696 667 754 660 731 667 z "},"ý":{"ha":768,"x_min":0,"x_max":0,"o":"m 307 764 b 549 865 371 740 525 800 b 511 953 564 907 543 940 b 388 896 474 965 436 936 b 290 792 338 851 297 810 b 307 764 286 781 289 769 z m 608 667 b 551 636 574 667 551 661 b 582 493 551 592 625 606 l 440 126 l 297 493 b 335 636 253 604 335 592 b 275 667 335 660 311 667 l 92 667 b 35 636 56 667 35 661 b 132 493 35 592 88 604 l 311 40 b 335 -61 324 7 335 -24 b 254 -199 335 -129 300 -199 b 113 -94 186 -199 182 -93 b 38 -179 65 -94 38 -136 b 185 -292 38 -244 101 -292 b 478 31 350 -292 401 -165 l 657 493 b 754 636 700 604 754 592 b 696 667 754 660 731 667 z "},"ŷ":{"ha":768,"x_min":0,"x_max":0,"o":"m 251 747 b 404 843 290 746 360 797 b 557 747 450 797 518 746 b 578 768 574 749 578 757 b 510 876 576 783 543 828 b 406 957 463 943 460 957 b 296 871 358 957 344 939 b 232 768 261 825 232 783 b 251 747 232 757 236 749 z m 608 667 b 551 636 574 667 551 661 b 582 493 551 592 625 606 l 440 126 l 297 493 b 335 636 253 604 335 592 b 275 667 335 660 311 667 l 92 667 b 35 636 56 667 35 661 b 132 493 35 592 88 604 l 311 40 b 335 -61 324 7 335 -24 b 254 -199 335 -129 300 -199 b 113 -94 186 -199 182 -93 b 38 -179 65 -94 38 -136 b 185 -292 38 -244 101 -292 b 478 31 350 -292 401 -165 l 657 493 b 754 636 700 604 754 592 b 696 667 754 660 731 667 z "},"ÿ":{"ha":768,"x_min":0,"x_max":0,"o":"m 279 779 b 375 867 328 779 375 817 b 303 936 375 908 346 936 b 213 842 253 936 213 889 b 279 779 213 804 242 779 z m 494 779 b 589 867 543 779 589 817 b 518 936 589 908 560 936 b 428 842 467 936 428 889 b 494 779 428 804 457 779 z m 608 667 b 551 636 574 667 551 661 b 582 493 551 592 625 606 l 440 126 l 297 493 b 335 636 253 604 335 592 b 275 667 335 660 311 667 l 92 667 b 35 636 56 667 35 661 b 132 493 35 592 88 604 l 311 40 b 335 -61 324 7 335 -24 b 254 -199 335 -129 300 -199 b 113 -94 186 -199 182 -93 b 38 -179 65 -94 38 -136 b 185 -292 38 -244 101 -292 b 478 31 350 -292 401 -165 l 657 493 b 754 636 700 604 754 592 b 696 667 754 660 731 667 z "},"ỳ":{"ha":768,"x_min":0,"x_max":0,"o":"m 514 764 b 531 792 532 769 535 781 b 435 896 524 810 483 851 b 311 953 385 936 347 965 b 272 865 278 940 257 907 b 514 764 296 800 450 740 z m 608 667 b 551 636 574 667 551 661 b 582 493 551 592 625 606 l 440 126 l 297 493 b 335 636 253 604 335 592 b 275 667 335 660 311 667 l 92 667 b 35 636 56 667 35 661 b 132 493 35 592 88 604 l 311 40 b 335 -61 324 7 335 -24 b 254 -199 335 -129 300 -199 b 113 -94 186 -199 182 -93 b 38 -179 65 -94 38 -136 b 185 -292 38 -244 101 -292 b 478 31 350 -292 401 -165 l 657 493 b 754 636 700 604 754 592 b 696 667 754 660 731 667 z "},"z":{"ha":714,"x_min":0,"x_max":0,"o":"m 654 218 b 604 186 635 224 619 208 b 406 72 558 118 496 72 l 257 72 l 654 615 b 628 667 675 644 661 667 l 157 667 b 81 607 114 667 96 647 b 50 515 68 576 57 547 b 63 463 44 490 46 469 b 114 490 82 456 97 469 b 321 594 164 549 231 594 l 451 594 l 54 51 b 81 0 33 22 47 0 l 569 0 b 643 65 613 0 631 24 b 665 167 653 97 661 128 b 654 218 669 192 672 213 z "},"ź":{"ha":714,"x_min":0,"x_max":0,"o":"m 293 764 b 535 865 357 740 511 800 b 497 953 550 907 529 940 b 374 896 460 965 422 936 b 276 792 324 851 283 810 b 293 764 272 781 275 769 z m 654 218 b 604 186 635 224 619 208 b 406 72 558 118 496 72 l 257 72 l 654 615 b 628 667 675 644 661 667 l 157 667 b 81 607 114 667 96 647 b 50 515 68 576 57 547 b 63 463 44 490 46 469 b 114 490 82 456 97 469 b 321 594 164 549 231 594 l 451 594 l 54 51 b 81 0 33 22 47 0 l 569 0 b 643 65 613 0 631 24 b 665 167 653 97 661 128 b 654 218 669 192 672 213 z "},"ž":{"ha":714,"x_min":0,"x_max":0,"o":"m 392 782 b 496 863 446 782 449 796 b 564 971 529 911 563 956 b 543 992 564 982 560 990 b 390 896 504 993 436 942 b 238 992 346 942 276 993 b 218 971 222 990 218 982 b 282 868 218 956 247 914 b 392 782 331 800 344 782 z m 654 218 b 604 186 635 224 619 208 b 406 72 558 118 496 72 l 257 72 l 654 615 b 628 667 675 644 661 667 l 157 667 b 81 607 114 667 96 647 b 50 515 68 576 57 547 b 63 463 44 490 46 469 b 114 490 82 456 97 469 b 321 594 164 549 231 594 l 451 594 l 54 51 b 81 0 33 22 47 0 l 569 0 b 643 65 613 0 631 24 b 665 167 653 97 661 128 b 654 218 669 192 672 213 z "},"ż":{"ha":714,"x_min":0,"x_max":0,"o":"m 354 771 b 489 885 417 768 486 826 b 414 964 490 926 457 963 b 281 847 350 969 282 906 b 354 771 278 806 308 772 z m 654 218 b 604 186 635 224 619 208 b 406 72 558 118 496 72 l 257 72 l 654 615 b 628 667 675 644 661 667 l 157 667 b 81 607 114 667 96 647 b 50 515 68 576 57 547 b 63 463 44 490 46 469 b 114 490 82 456 97 469 b 321 594 164 549 231 594 l 451 594 l 54 51 b 81 0 33 22 47 0 l 569 0 b 643 65 613 0 631 24 b 665 167 653 97 661 128 b 654 218 669 192 672 213 z "},"ª":{"ha":517,"x_min":0,"x_max":0,"o":"m 485 621 b 443 668 467 621 451 629 l 401 844 b 244 986 383 918 349 986 b 78 911 164 986 100 944 b 99 889 65 892 82 879 b 211 924 133 908 167 924 b 313 817 281 924 296 878 b 231 825 281 822 260 825 b 42 683 115 825 42 767 b 204 553 42 610 103 553 b 354 621 256 553 315 575 b 421 554 364 578 381 554 b 501 608 461 554 501 583 b 485 621 501 618 494 622 z m 238 604 b 138 697 178 604 140 644 b 244 785 138 750 176 785 b 322 756 272 785 318 776 b 340 682 331 721 338 699 b 238 604 347 644 293 604 z "},"º":{"ha":531,"x_min":0,"x_max":0,"o":"m 251 553 b 482 781 386 553 482 651 b 282 986 482 897 399 986 b 47 754 146 986 47 883 b 251 553 47 631 135 553 z m 283 601 b 144 803 201 601 144 694 b 247 936 144 874 176 936 b 385 729 326 936 385 833 b 283 601 385 657 350 601 z "},"А":{"ha":974,"x_min":0,"x_max":0,"o":"m 236 244 b 447 285 251 285 251 285 b 653 243 636 285 636 285 l 679 174 b 633 32 722 65 633 82 b 694 0 633 8 656 0 l 888 0 b 958 35 939 0 958 8 b 856 174 958 82 901 60 l 553 942 b 508 972 544 963 531 972 l 367 972 b 325 939 338 972 325 961 b 372 815 325 890 406 899 l 117 171 b 1 32 74 60 1 81 b 65 0 1 7 26 0 l 185 0 b 242 33 217 0 242 7 b 207 171 242 79 164 60 z m 449 358 b 294 394 281 358 281 358 l 443 776 l 593 394 b 449 358 607 358 607 358 z "},"Б":{"ha":882,"x_min":0,"x_max":0,"o":"m 374 658 b 328 657 356 658 342 658 b 299 685 308 656 299 667 l 299 836 b 440 897 299 878 318 897 l 510 897 b 714 765 606 897 664 853 b 775 722 735 729 750 715 b 793 782 797 729 799 750 b 757 928 783 843 771 890 b 650 974 744 965 729 974 l 124 972 b 50 939 72 972 50 967 b 138 760 50 876 138 926 l 138 213 b 50 33 138 46 50 96 b 124 0 50 6 72 0 l 418 0 b 843 311 697 0 843 111 b 374 658 843 514 669 658 z m 413 74 b 299 117 319 74 299 86 l 299 550 b 354 588 299 579 310 589 b 672 288 528 586 672 467 b 413 74 672 136 567 74 z "},"В":{"ha":875,"x_min":0,"x_max":0,"o":"m 575 579 b 724 760 675 608 724 676 b 378 972 722 906 589 972 l 124 972 b 50 939 72 972 50 967 b 138 760 50 876 138 926 l 138 213 b 50 33 138 46 50 96 b 124 0 50 6 72 0 l 413 0 b 839 313 681 0 839 107 b 575 579 839 449 740 550 z m 299 847 b 371 897 299 889 324 897 b 560 739 485 897 560 831 b 375 613 560 654 507 613 b 299 642 339 613 299 611 z m 410 75 b 299 172 315 75 299 104 l 299 485 b 368 533 299 518 307 533 b 660 282 556 533 660 429 b 410 75 660 136 578 75 z "},"Г":{"ha":779,"x_min":0,"x_max":0,"o":"m 799 782 b 764 928 790 843 776 890 b 656 974 750 965 735 974 l 124 972 b 50 939 72 972 50 967 b 138 760 50 876 138 926 l 138 217 b 50 33 138 54 50 93 b 124 0 50 8 72 0 l 310 0 b 383 33 364 0 383 8 b 299 217 383 93 299 54 l 299 836 b 440 897 299 878 318 897 l 517 897 b 719 765 611 897 669 853 b 781 722 740 729 756 715 b 799 782 803 729 806 750 z "},"Ґ":{"ha":790,"x_min":0,"x_max":0,"o":"m 781 1149 b 719 1106 756 1156 740 1142 b 517 974 669 1018 611 974 l 124 972 b 50 939 72 972 50 967 b 138 760 50 876 138 926 l 138 217 b 50 33 138 54 50 93 b 124 0 50 8 72 0 l 310 0 b 383 33 364 0 383 8 b 299 217 383 93 299 54 l 299 836 b 440 897 299 878 318 897 l 656 897 b 764 943 735 897 750 906 b 799 1089 776 981 790 1028 b 781 1149 806 1121 803 1142 z "},"Д":{"ha":1051,"x_min":0,"x_max":0,"o":"m 1029 -128 b 1010 22 1028 -64 1021 -17 b 903 76 1000 60 983 76 b 858 133 864 76 858 82 l 858 760 b 946 939 858 926 946 876 b 872 972 946 967 924 972 l 308 972 b 231 935 244 972 231 963 b 317 799 231 883 317 897 b 189 118 317 618 289 340 b 124 75 171 79 164 75 b 33 22 60 75 43 58 b 14 -129 22 -18 15 -65 b 44 -183 13 -160 17 -183 b 103 -131 69 -183 83 -167 b 272 -1 146 -47 190 -1 l 769 0 b 940 -129 853 0 897 -47 b 999 -182 960 -167 974 -182 b 1029 -128 1026 -182 1031 -158 z m 272 75 b 410 831 364 344 382 503 b 558 897 415 889 471 897 b 696 836 675 897 696 878 l 696 76 z "},"Е":{"ha":856,"x_min":0,"x_max":0,"o":"m 781 268 b 721 214 760 272 743 261 b 544 76 679 122 653 76 l 444 75 b 299 142 318 75 299 94 l 299 469 b 397 538 299 532 336 538 l 424 538 b 632 407 567 536 575 393 b 650 476 656 414 661 425 l 619 614 b 581 657 613 643 603 657 b 424 611 538 657 553 611 l 397 611 b 299 679 336 611 299 617 l 299 833 b 440 897 299 878 318 897 l 511 897 b 715 765 606 897 664 853 b 776 722 736 729 751 715 b 794 782 799 729 800 750 b 758 928 785 843 772 890 b 650 974 746 965 731 974 l 124 972 b 50 939 72 972 50 967 b 138 760 50 876 138 926 l 138 213 b 50 33 138 46 50 96 b 124 0 50 6 72 0 l 669 0 b 783 53 757 0 774 17 b 806 213 794 93 801 140 b 781 268 807 243 804 263 z "},"Ё":{"ha":856,"x_min":0,"x_max":0,"o":"m 324 1071 b 419 1157 374 1071 419 1107 b 349 1226 419 1199 390 1226 b 258 1132 297 1226 258 1179 b 324 1071 258 1094 288 1071 z m 539 1071 b 635 1157 588 1071 635 1107 b 563 1226 635 1199 604 1226 b 472 1132 513 1226 472 1179 b 539 1071 472 1094 501 1071 z m 781 268 b 721 214 760 272 743 261 b 544 76 679 122 653 76 l 444 75 b 299 142 318 75 299 94 l 299 469 b 397 538 299 532 336 538 l 424 538 b 632 407 567 536 575 393 b 650 476 656 414 661 425 l 619 614 b 581 657 613 643 603 657 b 424 611 538 657 553 611 l 397 611 b 299 679 336 611 299 617 l 299 833 b 440 897 299 878 318 897 l 511 897 b 715 765 606 897 664 853 b 776 722 736 729 751 715 b 794 782 799 729 800 750 b 758 928 785 843 772 890 b 650 974 746 965 731 974 l 124 972 b 50 939 72 972 50 967 b 138 760 50 876 138 926 l 138 213 b 50 33 138 46 50 96 b 124 0 50 6 72 0 l 669 0 b 783 53 757 0 774 17 b 806 213 794 93 801 140 b 781 268 807 243 804 263 z "},"Ж":{"ha":1472,"x_min":0,"x_max":0,"o":"m 1232 821 b 1386 939 1329 911 1386 885 b 1313 972 1386 964 1363 972 l 1147 972 b 1094 938 1114 972 1094 964 b 1111 822 1094 889 1192 896 l 815 551 l 815 756 b 897 939 815 918 897 879 b 825 972 897 964 875 972 l 647 972 b 575 939 594 972 575 964 b 654 756 575 879 654 918 l 654 561 l 368 822 b 385 938 288 896 385 889 b 332 972 385 964 365 972 l 167 972 b 93 939 117 972 93 964 b 247 821 93 885 150 911 l 365 714 l 119 172 b 6 35 69 65 6 88 b 68 1 6 10 25 1 l 250 1 b 324 38 301 1 324 10 b 292 168 324 79 253 81 l 483 604 l 654 449 l 654 217 b 572 33 654 54 572 93 b 644 0 572 8 594 0 l 822 0 b 894 33 875 0 894 8 b 815 217 894 93 815 54 l 815 440 l 996 604 l 1188 168 b 1156 38 1226 81 1156 79 b 1229 1 1156 10 1178 1 l 1411 1 b 1474 35 1454 1 1474 10 b 1360 172 1474 88 1410 65 l 1114 714 z "},"З":{"ha":817,"x_min":0,"x_max":0,"o":"m 496 536 b 696 771 611 567 697 658 b 417 985 693 919 560 985 b 243 967 326 985 281 967 b 178 985 210 967 203 985 b 124 911 151 985 138 971 b 101 753 114 867 104 808 b 128 699 100 719 103 699 b 185 750 150 699 163 713 b 392 908 229 821 281 908 b 525 772 468 908 525 860 b 299 572 525 663 461 588 b 300 496 247 567 249 497 b 579 258 504 489 579 392 b 386 65 579 139 499 65 b 150 232 272 65 196 136 b 101 286 133 268 121 283 b 71 242 78 288 69 268 b 93 106 75 167 85 140 b 207 6 108 43 147 21 b 353 -12 250 -6 294 -11 b 753 278 578 -15 753 81 b 496 536 753 406 658 508 z "},"И":{"ha":1108,"x_min":0,"x_max":0,"o":"m 310 0 b 383 33 364 0 383 8 b 301 167 383 85 315 69 b 317 210 299 185 303 197 l 810 697 l 810 199 b 806 151 810 183 808 168 b 724 33 793 69 724 83 b 796 0 724 8 746 0 l 983 0 b 1056 33 1036 0 1056 8 b 976 151 1056 86 990 65 b 972 199 974 168 972 183 l 972 774 b 976 821 972 789 974 804 b 1058 939 989 904 1058 889 b 986 972 1058 964 1036 972 l 799 972 b 726 939 746 972 726 964 b 807 825 726 893 793 901 b 792 783 810 808 804 796 l 299 297 l 299 774 b 303 821 299 789 300 804 b 386 939 315 904 386 889 b 313 972 386 964 364 972 l 126 972 b 53 939 72 972 53 964 b 133 821 53 886 119 907 b 138 774 136 804 138 789 l 138 199 b 133 151 138 183 136 168 b 50 33 121 69 50 83 b 124 0 50 8 72 0 z "},"Й":{"ha":1108,"x_min":0,"x_max":0,"o":"m 549 1046 b 769 1194 664 1046 769 1104 b 717 1247 769 1224 746 1247 b 549 1107 638 1247 642 1107 b 381 1247 456 1107 458 1247 b 328 1194 351 1247 328 1224 b 549 1046 328 1106 424 1046 z m 310 0 b 383 33 364 0 383 8 b 301 167 383 85 315 69 b 317 210 299 185 303 197 l 810 697 l 810 199 b 806 151 810 183 808 168 b 724 33 793 69 724 83 b 796 0 724 8 746 0 l 983 0 b 1056 33 1036 0 1056 8 b 976 151 1056 86 990 65 b 972 199 974 168 972 183 l 972 774 b 976 821 972 789 974 804 b 1058 939 989 904 1058 889 b 986 972 1058 964 1036 972 l 799 972 b 726 939 746 972 726 964 b 807 825 726 893 793 901 b 792 783 810 808 804 796 l 299 297 l 299 774 b 303 821 299 789 300 804 b 386 939 315 904 386 889 b 313 972 386 964 364 972 l 126 972 b 53 939 72 972 53 964 b 133 821 53 886 119 907 b 138 774 136 804 138 789 l 138 199 b 133 151 138 183 136 168 b 50 33 121 69 50 83 b 124 0 50 8 72 0 z "},"К":{"ha":997,"x_min":0,"x_max":0,"o":"m 757 821 b 911 939 854 911 911 885 b 838 972 911 964 888 972 l 679 972 b 626 938 646 972 626 964 b 643 821 626 889 724 896 l 299 500 l 299 756 b 386 939 299 918 386 879 b 313 972 386 964 364 972 l 126 972 b 53 939 72 972 53 964 b 138 756 53 879 138 918 l 138 217 b 50 33 138 54 50 93 b 124 0 50 8 72 0 l 310 0 b 383 33 364 0 383 8 b 299 217 383 93 299 54 l 299 394 l 522 601 l 713 167 b 681 36 751 79 681 78 b 754 0 681 8 703 0 l 936 0 b 999 33 979 0 999 8 b 885 171 999 86 935 64 l 640 713 z "},"Л":{"ha":1014,"x_min":0,"x_max":0,"o":"m 149 -14 b 299 57 206 -14 257 3 b 431 831 403 192 414 535 b 583 897 435 889 486 897 b 718 836 693 897 718 878 l 718 218 b 632 35 718 56 632 93 b 704 1 632 10 654 1 l 892 1 b 964 35 944 1 964 10 b 881 218 964 93 881 56 l 881 806 b 956 944 881 901 956 903 b 881 972 956 964 939 972 l 338 972 b 263 944 279 972 263 964 b 344 799 263 901 344 900 b 200 111 344 468 290 111 b 88 194 147 111 156 194 b 13 107 51 194 13 165 b 149 -14 13 21 89 -14 z "},"М":{"ha":1240,"x_min":0,"x_max":0,"o":"m 1079 803 b 1151 940 1075 906 1151 890 b 1090 972 1151 964 1135 972 l 963 972 b 917 942 940 972 926 963 l 611 276 l 331 942 b 285 972 321 963 307 972 l 149 972 b 89 940 104 972 89 964 b 161 803 89 893 165 899 l 135 171 b 53 33 131 67 53 79 b 117 0 53 8 74 0 l 225 0 b 288 33 268 0 288 7 b 219 171 288 81 215 67 l 239 757 l 524 78 b 572 60 531 63 544 53 b 617 93 597 65 607 75 l 926 767 l 939 189 b 861 35 942 74 861 93 b 935 0 861 8 883 0 l 1117 0 b 1185 35 1165 0 1185 8 b 1099 189 1185 97 1103 69 z "},"Н":{"ha":1092,"x_min":0,"x_max":0,"o":"m 956 756 b 1042 939 956 918 1042 879 b 969 972 1042 964 1019 972 l 782 972 b 710 939 729 972 710 964 b 793 756 710 879 793 918 l 793 617 b 553 554 793 554 793 554 b 299 617 299 554 299 554 l 299 756 b 386 939 299 918 386 879 b 313 972 386 964 364 972 l 126 972 b 53 939 72 972 53 964 b 138 756 53 879 138 918 l 138 217 b 50 33 138 54 50 93 b 124 0 50 8 72 0 l 310 0 b 383 33 364 0 383 8 b 299 217 383 93 299 54 l 299 415 b 551 478 299 478 299 478 b 793 415 793 478 793 478 l 793 217 b 707 33 793 54 707 93 b 779 0 707 8 729 0 l 967 0 b 1039 33 1019 0 1039 8 b 956 217 1039 93 956 54 z "},"О":{"ha":1081,"x_min":0,"x_max":0,"o":"m 511 -14 b 1024 517 814 -14 1024 214 b 569 986 1024 783 846 986 b 54 449 271 986 54 746 b 511 -14 54 179 242 -14 z m 576 81 b 215 563 353 81 215 307 b 510 900 215 732 315 900 b 864 425 728 900 864 668 b 576 81 864 243 771 81 z "},"П":{"ha":1046,"x_min":0,"x_max":0,"o":"m 908 760 b 996 939 908 926 996 876 b 922 972 996 967 974 972 l 124 972 b 50 939 72 972 50 967 b 138 760 50 876 138 926 l 138 218 b 50 35 138 56 50 93 b 124 1 50 10 72 1 l 310 1 b 383 35 364 1 383 10 b 299 218 383 93 299 56 l 299 833 b 528 896 299 878 318 896 b 746 833 724 896 746 878 l 746 218 b 660 35 746 56 660 93 b 732 1 660 10 682 1 l 919 1 b 993 35 974 1 993 10 b 908 218 993 93 908 56 z "},"Р":{"ha":889,"x_min":0,"x_max":0,"o":"m 124 972 b 50 939 72 972 50 967 b 138 760 50 876 138 926 l 138 217 b 50 33 138 54 50 93 b 124 0 50 8 72 0 l 310 0 b 383 33 364 0 383 8 b 299 217 383 93 299 54 l 299 275 b 326 303 299 301 303 303 l 436 303 b 858 619 714 303 858 414 b 397 972 858 819 694 972 z m 429 375 b 299 418 318 375 299 389 l 299 863 b 394 900 299 892 308 900 b 689 596 563 900 689 779 b 429 375 689 438 583 375 z "},"С":{"ha":961,"x_min":0,"x_max":0,"o":"m 529 -14 b 908 176 729 -14 864 93 b 868 222 933 219 899 256 b 585 92 797 146 714 92 b 222 539 363 92 222 290 b 528 901 222 735 336 901 b 803 728 661 901 742 822 b 867 672 828 692 840 669 b 893 728 893 675 899 696 b 853 911 879 811 865 865 b 797 983 835 969 824 983 b 725 964 769 983 757 964 b 556 986 688 964 639 986 b 54 464 272 986 54 756 b 529 -14 54 175 243 -14 z "},"Т":{"ha":893,"x_min":0,"x_max":0,"o":"m 528 831 b 596 896 528 875 547 896 b 767 760 696 896 719 850 b 818 707 786 722 799 707 b 850 761 846 707 851 731 b 831 919 847 833 842 881 b 715 974 821 957 803 974 l 176 972 b 63 919 90 972 72 956 b 43 760 51 879 44 832 b 74 706 42 729 46 706 b 126 760 93 706 107 722 b 297 894 174 850 197 894 b 365 829 347 894 365 874 l 365 217 b 279 33 365 54 279 93 b 351 0 279 8 301 0 l 539 0 b 611 33 592 0 611 8 b 528 217 611 93 528 54 z "},"У":{"ha":915,"x_min":0,"x_max":0,"o":"m 724 971 b 667 939 690 971 667 965 b 697 803 667 893 746 911 l 526 418 l 311 814 b 343 944 265 899 343 903 b 281 972 343 964 326 972 l 79 972 b 25 944 43 972 25 965 b 124 815 25 904 78 900 l 433 251 b 435 232 436 246 438 239 b 331 110 401 154 371 110 b 225 178 281 110 290 178 b 151 93 188 178 151 142 b 279 -14 151 13 229 -14 b 540 258 376 -14 443 43 l 788 803 b 907 940 836 911 907 892 b 842 971 907 965 881 971 z "},"Ф":{"ha":1133,"x_min":0,"x_max":0,"o":"m 658 0 b 732 33 713 0 732 8 b 647 169 732 88 651 51 b 661 185 647 181 651 186 b 754 181 696 182 721 181 b 1082 492 935 181 1082 307 b 764 796 1082 667 950 796 b 658 792 728 796 699 794 b 646 807 650 790 646 796 b 735 939 654 915 735 885 b 661 972 735 964 713 972 l 474 972 b 401 939 421 972 401 964 b 486 806 401 883 478 919 b 472 790 488 794 482 789 b 369 796 433 794 401 796 b 50 492 193 796 50 671 b 379 181 50 311 192 181 b 471 183 408 181 438 182 b 485 168 481 185 485 179 b 399 33 482 56 399 88 b 471 0 399 8 421 0 z m 438 250 b 214 488 304 250 214 351 b 438 725 214 631 285 725 b 485 721 453 725 469 724 l 485 256 b 438 250 471 253 451 250 z m 700 250 b 647 254 685 250 667 251 l 647 722 b 696 725 664 724 681 725 b 919 488 847 725 919 631 b 700 250 919 350 836 250 z "},"Х":{"ha":1011,"x_min":0,"x_max":0,"o":"m 808 819 b 950 942 875 913 950 893 b 886 972 950 965 925 972 l 761 972 b 706 939 729 972 706 967 b 711 819 706 893 778 913 l 538 579 l 364 811 b 383 940 294 904 383 893 b 324 972 383 965 361 972 l 99 972 b 32 939 54 972 32 967 b 164 811 32 893 90 910 l 408 483 l 169 153 b 28 31 103 60 28 79 b 93 0 28 7 54 0 l 217 0 b 274 33 249 0 274 6 b 267 153 274 79 200 60 l 457 418 l 649 161 b 628 32 718 68 628 79 b 688 0 628 7 651 0 l 914 0 b 981 33 957 0 981 6 b 849 161 981 79 921 63 l 586 514 z "},"Ч":{"ha":1003,"x_min":0,"x_max":0,"o":"m 867 756 b 953 939 867 918 953 879 b 881 972 953 964 931 972 l 693 972 b 621 939 640 972 621 964 b 704 756 621 879 704 918 l 704 447 b 467 421 618 431 526 421 b 267 708 282 421 265 549 l 268 753 b 356 936 269 915 356 876 b 282 969 356 961 333 969 l 94 969 b 22 936 42 969 22 961 b 106 753 22 876 106 915 l 106 679 b 426 343 106 501 156 343 b 704 371 492 343 596 353 l 704 217 b 618 33 704 54 618 93 b 690 0 618 8 640 0 l 878 0 b 950 33 931 0 950 8 b 867 217 950 93 867 54 z "},"Ц":{"ha":1096,"x_min":0,"x_max":0,"o":"m 1074 -128 b 1054 22 1071 -64 1065 -17 b 963 76 1043 60 1026 76 b 908 133 926 76 908 96 l 908 756 b 996 938 908 917 996 879 b 922 971 996 964 974 971 l 735 971 b 663 938 682 971 663 964 b 746 756 663 879 746 917 l 746 139 b 525 76 746 94 728 76 b 299 139 321 76 299 94 l 299 756 b 386 938 299 917 386 879 b 313 971 386 964 364 971 l 126 971 b 53 938 72 971 53 964 b 138 756 53 879 138 917 l 138 213 b 50 33 138 46 50 96 b 124 0 50 6 72 0 l 814 0 b 985 -129 896 0 942 -47 b 1042 -182 1003 -167 1017 -182 b 1074 -128 1069 -182 1075 -158 z "},"Ш":{"ha":1488,"x_min":0,"x_max":0,"o":"m 1351 756 b 1438 938 1351 917 1438 879 b 1365 971 1438 964 1415 971 l 1178 971 b 1106 938 1125 971 1106 964 b 1189 756 1106 879 1189 917 l 1189 139 b 1010 76 1189 94 1169 76 b 825 139 847 76 825 94 l 825 756 b 907 938 825 917 907 879 b 833 971 907 964 885 971 l 657 971 b 585 938 604 971 585 964 b 663 756 585 879 663 917 l 663 139 b 483 76 663 94 644 76 b 299 139 321 76 299 94 l 299 756 b 386 938 299 917 386 879 b 313 971 386 964 364 971 l 126 971 b 53 938 72 971 53 964 b 138 756 53 879 138 917 l 138 213 b 50 33 138 46 50 96 b 124 0 50 6 72 0 l 1365 0 b 1438 33 1415 0 1438 6 b 1351 213 1438 96 1351 46 z "},"Щ":{"ha":1538,"x_min":0,"x_max":0,"o":"m 1515 -128 b 1496 22 1514 -64 1507 -17 b 1404 76 1486 60 1469 76 b 1351 133 1369 76 1351 96 l 1351 756 b 1438 938 1351 917 1438 879 b 1365 971 1438 964 1415 971 l 1178 971 b 1106 938 1125 971 1106 964 b 1189 756 1106 879 1189 917 l 1189 139 b 1010 76 1189 94 1169 76 b 825 139 847 76 825 94 l 825 756 b 907 938 825 917 907 879 b 833 971 907 964 885 971 l 657 971 b 585 938 604 971 585 964 b 663 756 585 879 663 917 l 663 139 b 483 76 663 94 644 76 b 299 139 321 76 299 94 l 299 756 b 386 938 299 917 386 879 b 313 971 386 964 364 971 l 126 971 b 53 938 72 971 53 964 b 138 756 53 879 138 917 l 138 213 b 50 33 138 46 50 96 b 124 0 50 6 72 0 l 1256 0 b 1426 -129 1339 0 1383 -47 b 1485 -182 1444 -167 1460 -182 b 1515 -128 1513 -182 1517 -158 z "},"Ь":{"ha":900,"x_min":0,"x_max":0,"o":"m 374 658 b 328 657 356 658 342 658 b 299 685 308 656 299 667 l 299 756 b 386 938 299 917 386 879 b 313 971 386 964 364 971 l 126 971 b 53 938 72 971 53 964 b 138 756 53 879 138 917 l 138 213 b 50 33 138 46 50 96 b 124 0 50 6 72 0 l 418 0 b 843 311 697 0 843 111 b 374 658 843 514 669 658 z m 413 72 b 299 114 319 72 299 85 l 299 550 b 354 588 299 579 310 589 b 672 288 528 586 672 467 b 413 72 672 136 567 72 z "},"Ы":{"ha":1294,"x_min":0,"x_max":0,"o":"m 1157 756 b 1244 939 1157 918 1244 879 b 1171 972 1244 964 1222 972 l 985 972 b 911 939 931 972 911 964 b 996 756 911 879 996 918 l 996 217 b 908 33 996 54 908 93 b 982 0 908 8 931 0 l 1168 0 b 1242 33 1222 0 1242 8 b 1157 217 1242 93 1157 54 z m 374 658 b 328 657 356 658 342 658 b 299 685 308 656 299 667 l 299 756 b 386 938 299 917 386 879 b 313 971 386 964 364 971 l 126 971 b 53 938 72 971 53 964 b 138 756 53 879 138 917 l 138 213 b 50 33 138 46 50 96 b 124 0 50 6 72 0 l 418 0 b 843 311 697 0 843 111 b 374 658 843 514 669 658 z m 413 72 b 299 114 319 72 299 85 l 299 550 b 354 588 299 579 310 589 b 672 288 528 586 672 467 b 413 72 672 136 567 72 z "},"Ъ":{"ha":1161,"x_min":0,"x_max":0,"o":"m 544 658 b 499 657 526 658 513 658 b 469 685 479 656 469 667 l 469 760 b 557 939 469 926 557 876 b 483 972 557 967 535 972 l 142 972 b 26 919 51 972 35 956 b 4 738 15 879 7 811 b 32 683 3 704 7 683 b 81 736 51 683 64 697 b 239 897 122 829 156 897 b 307 819 271 897 307 892 l 307 215 b 221 35 307 47 221 97 b 293 1 221 7 243 1 l 307 1 l 307 0 l 589 0 b 1013 311 867 0 1013 111 b 544 658 1013 514 840 658 z m 582 74 b 469 117 490 74 469 86 l 469 550 b 525 588 469 579 481 589 b 843 288 699 586 843 467 b 582 74 843 136 738 74 z "},"Є":{"ha":936,"x_min":0,"x_max":0,"o":"m 844 213 b 579 111 775 154 694 111 b 226 468 388 111 251 257 b 397 414 288 433 346 414 b 593 486 481 414 524 486 b 740 431 651 486 707 431 b 775 461 765 431 775 446 b 557 594 775 506 640 594 b 335 515 481 594 421 515 b 222 549 303 515 268 524 b 519 904 226 740 326 904 b 800 724 672 904 742 810 b 857 669 824 686 835 669 b 882 725 882 669 886 692 b 850 911 874 807 860 865 b 794 983 836 969 821 983 b 729 965 769 983 761 965 b 554 986 692 965 644 986 b 54 464 265 986 54 756 b 515 -14 54 175 243 -14 b 882 161 711 -14 839 81 b 844 213 908 207 881 240 z "},"Э":{"ha":936,"x_min":0,"x_max":0,"o":"m 411 986 b 200 965 297 986 238 965 b 135 983 167 965 160 983 b 79 911 108 983 93 969 b 56 725 69 865 58 807 b 83 669 54 692 58 669 b 138 725 106 669 115 686 b 408 914 189 810 254 914 b 707 549 585 914 690 761 b 594 515 661 524 628 515 b 374 594 510 515 449 594 b 154 461 289 594 154 506 b 189 431 154 446 164 431 b 338 486 222 431 279 486 b 533 414 407 486 450 414 b 708 469 586 414 644 435 b 418 67 701 268 604 67 b 144 232 283 67 194 144 b 89 290 121 271 108 288 b 57 246 67 292 56 272 b 81 110 63 171 72 144 b 194 10 96 47 135 25 b 371 -11 236 -1 299 -11 b 879 522 686 -14 879 226 b 411 986 879 799 694 986 z "},"І":{"ha":436,"x_min":0,"x_max":0,"o":"m 138 217 b 50 33 138 54 50 93 b 124 0 50 8 72 0 l 310 0 b 383 33 364 0 383 8 b 299 217 383 93 299 54 l 299 756 b 386 939 299 918 386 879 b 313 972 386 964 364 972 l 126 972 b 53 939 72 972 53 964 b 138 756 53 879 138 918 z "},"Ї":{"ha":436,"x_min":0,"x_max":0,"o":"m 117 1071 b 213 1157 167 1071 213 1107 b 142 1226 213 1199 183 1226 b 51 1132 90 1226 51 1179 b 117 1071 51 1094 81 1071 z m 332 1071 b 428 1157 381 1071 428 1107 b 356 1226 428 1199 397 1226 b 265 1132 306 1226 265 1179 b 332 1071 265 1094 294 1071 z m 138 217 b 50 33 138 54 50 93 b 124 0 50 8 72 0 l 310 0 b 383 33 364 0 383 8 b 299 217 383 93 299 54 l 299 756 b 386 939 299 918 386 879 b 313 972 386 964 364 972 l 126 972 b 53 939 72 972 53 964 b 138 756 53 879 138 918 z "},"Ю":{"ha":1513,"x_min":0,"x_max":0,"o":"m 1000 986 b 492 528 729 986 526 788 l 299 528 l 299 756 b 386 939 299 918 386 879 b 313 972 386 964 364 972 l 126 972 b 53 939 72 972 53 964 b 138 756 53 879 138 918 l 138 217 b 50 33 138 54 50 93 b 124 0 50 8 72 0 l 310 0 b 383 33 364 0 383 8 b 299 217 383 93 299 54 l 299 453 l 486 453 l 486 449 b 942 -14 486 179 674 -14 b 1456 517 1244 -14 1456 214 b 1000 986 1456 783 1278 986 z m 1007 81 b 646 563 785 81 646 307 b 942 900 646 732 746 900 b 1294 425 1160 900 1294 668 b 1007 81 1294 243 1203 81 z "},"Я":{"ha":924,"x_min":0,"x_max":0,"o":"m 786 760 b 874 939 786 926 874 876 b 800 972 874 967 851 972 l 553 972 b 99 625 260 972 99 826 b 267 368 99 514 156 421 l 157 161 b 47 33 107 65 47 86 b 110 0 47 8 67 0 l 286 0 b 354 36 331 0 354 8 b 328 167 354 78 285 82 l 411 328 b 506 322 440 324 472 322 l 596 322 b 624 294 621 322 624 321 l 624 218 b 540 35 624 56 540 93 b 613 1 540 10 560 1 l 800 1 b 874 35 851 1 874 10 b 786 218 874 93 786 56 z m 624 438 b 511 396 624 408 604 396 b 268 654 374 396 268 494 b 526 900 268 811 368 900 b 583 896 544 900 564 899 b 624 858 613 892 624 888 z "},"а":{"ha":781,"x_min":0,"x_max":0,"o":"m 744 96 b 676 171 715 96 690 108 l 610 453 b 360 679 581 571 525 679 b 93 561 231 679 128 614 b 126 525 74 529 100 508 b 306 581 181 556 235 581 b 467 408 417 581 440 507 b 336 422 417 418 383 422 b 35 196 153 422 35 328 b 296 -12 35 78 133 -12 b 535 96 376 -12 472 22 b 642 -10 550 26 576 -10 b 771 76 706 -10 771 36 b 744 96 771 92 760 97 z m 349 69 b 189 218 251 69 192 133 b 360 357 188 303 249 357 b 483 311 404 357 476 344 b 513 193 497 257 508 221 b 349 69 524 135 436 69 z "},"б":{"ha":790,"x_min":0,"x_max":0,"o":"m 444 685 b 168 482 326 685 215 619 b 315 785 176 644 224 754 b 604 843 418 829 514 799 b 706 985 668 875 706 925 b 664 1011 706 1018 683 1024 b 610 983 646 1004 636 996 b 483 960 578 967 538 963 b 271 913 400 954 325 943 b 51 422 115 833 51 646 b 408 -14 51 115 221 -14 b 742 356 603 -14 742 146 b 444 685 742 536 629 685 z m 432 65 b 222 358 289 65 222 215 b 392 589 222 488 289 589 b 586 308 513 589 582 467 b 432 65 590 174 531 65 z "},"в":{"ha":731,"x_min":0,"x_max":0,"o":"m 510 371 b 631 514 581 392 632 443 b 351 667 629 624 518 667 l 122 667 b 54 633 78 667 54 660 b 118 533 54 592 106 604 b 122 488 121 518 122 503 l 122 179 b 118 135 122 164 121 149 b 54 33 106 63 54 75 b 122 0 54 7 78 0 l 364 0 b 686 193 563 0 686 58 b 510 371 686 271 636 346 z m 279 554 b 343 596 279 592 286 596 b 483 492 422 596 483 563 b 335 393 483 424 443 393 b 279 418 304 393 279 393 z m 354 69 b 279 136 288 69 279 76 l 279 308 b 299 326 279 321 286 326 l 336 326 b 531 186 463 326 531 269 b 354 69 531 100 476 69 z "},"г":{"ha":629,"x_min":0,"x_max":0,"o":"m 607 508 b 581 619 601 546 594 581 b 467 667 569 656 557 667 l 122 667 b 54 633 78 667 54 660 b 118 533 54 592 106 604 b 122 488 121 518 122 503 l 122 188 b 54 32 122 57 54 85 b 114 0 54 7 78 0 l 288 0 b 344 31 324 0 344 6 b 279 188 344 85 279 57 l 279 542 b 350 594 279 588 290 594 b 529 499 451 594 481 565 b 585 451 553 464 563 447 b 607 508 608 456 611 475 z "},"ґ":{"ha":629,"x_min":0,"x_max":0,"o":"m 585 810 b 529 763 563 814 553 797 b 350 667 481 694 451 667 l 122 667 b 54 633 78 667 54 660 b 118 533 54 592 106 604 b 122 488 121 518 122 503 l 122 188 b 54 32 122 57 54 85 b 114 0 54 7 78 0 l 288 0 b 344 31 324 0 344 6 b 279 188 344 85 279 57 l 278 529 b 349 594 278 574 290 594 l 467 594 b 581 640 557 594 569 606 b 607 753 594 679 601 714 b 585 810 611 786 608 806 z "},"д":{"ha":779,"x_min":0,"x_max":0,"o":"m 38 -164 b 90 -111 56 -164 72 -149 b 253 0 125 -36 140 0 l 519 0 b 682 -111 632 0 647 -36 b 735 -164 700 -149 717 -164 b 767 -104 758 -164 768 -142 b 751 19 764 -54 761 -21 b 676 69 743 51 732 65 b 653 94 660 71 653 81 l 653 500 b 726 636 653 596 726 594 b 653 667 726 658 711 667 l 207 667 b 132 636 149 667 132 658 b 213 493 132 593 213 594 b 126 88 213 410 186 208 b 99 71 121 76 113 71 b 21 19 43 67 29 51 b 6 -104 11 -21 8 -54 b 38 -164 4 -142 14 -164 z m 210 71 b 294 550 243 174 274 303 b 403 596 297 590 311 596 b 496 547 486 596 496 590 l 496 71 z "},"е":{"ha":736,"x_min":0,"x_max":0,"o":"m 651 196 b 440 100 601 144 529 100 b 222 251 321 100 250 179 b 651 413 376 306 506 351 b 683 468 681 424 688 444 b 403 681 661 586 563 681 b 47 311 204 681 47 522 b 375 -14 47 125 179 -14 b 693 165 556 -14 665 93 b 651 196 707 203 678 222 z m 351 603 b 514 472 424 610 497 556 b 485 421 521 442 507 429 b 206 321 397 385 303 353 b 196 407 199 343 196 374 b 351 603 196 501 249 597 z "},"ё":{"ha":736,"x_min":0,"x_max":0,"o":"m 268 779 b 364 867 317 779 364 817 b 292 936 364 908 335 936 b 201 842 242 936 201 889 b 268 779 201 804 231 779 z m 483 779 b 578 867 532 779 578 817 b 507 936 578 908 549 936 b 417 842 456 936 417 889 b 483 779 417 804 446 779 z m 651 196 b 440 100 601 144 529 100 b 222 251 321 100 250 179 b 651 413 376 306 506 351 b 683 468 681 424 688 444 b 403 681 661 586 563 681 b 47 311 204 681 47 522 b 375 -14 47 125 179 -14 b 693 165 556 -14 665 93 b 651 196 707 203 678 222 z m 351 603 b 514 472 424 610 497 556 b 485 421 521 442 507 429 b 206 321 397 385 303 353 b 196 407 199 343 196 374 b 351 603 196 501 249 597 z "},"ж":{"ha":1246,"x_min":0,"x_max":0,"o":"m 1018 540 b 1146 639 1090 619 1146 603 b 1097 667 1146 658 1128 667 l 944 667 b 899 639 911 667 899 657 b 928 549 899 604 975 600 l 701 308 l 701 479 b 768 636 701 610 768 582 b 710 667 768 660 746 667 l 535 667 b 478 636 500 667 478 661 b 544 479 478 582 544 610 l 544 311 l 321 549 b 350 639 274 600 350 604 b 303 667 350 657 338 667 l 151 667 b 103 639 119 667 103 658 b 231 540 103 603 158 619 l 281 488 l 129 142 b 35 28 97 71 35 69 b 96 0 35 6 53 0 l 264 0 b 324 28 306 0 324 7 b 283 125 324 69 257 68 l 392 368 l 544 206 l 544 188 b 476 32 544 57 476 85 b 535 0 476 7 500 0 l 710 0 b 767 31 746 0 767 6 b 701 188 767 85 701 57 l 701 203 l 857 368 l 965 125 b 925 28 992 68 925 69 b 985 0 925 7 942 0 l 1153 0 b 1214 28 1196 0 1214 6 b 1119 142 1214 69 1151 71 l 968 488 z "},"з":{"ha":621,"x_min":0,"x_max":0,"o":"m 400 369 b 533 529 479 389 535 450 b 321 681 532 636 426 681 b 179 667 239 681 213 667 b 126 681 153 667 147 681 b 82 628 108 681 93 669 b 60 519 72 590 64 556 b 81 476 58 493 63 476 b 129 517 99 476 108 489 b 282 608 167 565 211 608 b 379 521 351 608 379 565 b 204 389 379 465 340 401 b 203 328 165 383 163 331 b 408 190 358 321 408 264 b 269 74 408 101 343 74 b 85 142 193 74 128 104 b 44 110 57 167 24 147 b 308 -12 85 39 188 -12 b 569 197 450 -12 569 58 b 400 369 569 268 525 347 z "},"и":{"ha":865,"x_min":0,"x_max":0,"o":"m 288 0 b 344 31 324 0 344 6 b 282 138 344 78 299 56 b 297 172 281 156 282 160 l 589 413 l 590 179 b 586 135 590 164 589 149 b 522 32 574 63 522 75 b 582 0 522 7 546 0 l 756 0 b 813 31 792 0 813 6 b 750 135 813 76 764 63 b 746 179 747 149 746 164 l 746 488 b 750 533 746 503 747 518 b 813 636 761 604 813 592 b 754 667 813 660 790 667 l 579 667 b 522 636 544 667 522 661 b 585 528 522 589 569 607 b 571 490 588 508 588 504 l 278 249 l 278 488 b 282 533 278 503 279 518 b 344 636 293 604 344 592 b 286 667 344 660 322 667 l 111 667 b 54 636 76 667 54 661 b 117 533 54 590 103 604 b 121 488 119 518 121 503 l 122 179 b 118 135 122 164 121 149 b 54 32 106 63 54 75 b 114 0 54 7 78 0 z "},"й":{"ha":865,"x_min":0,"x_max":0,"o":"m 438 740 b 658 889 553 740 658 799 b 606 942 658 918 635 942 b 438 801 526 942 531 801 b 269 942 344 801 347 942 b 217 889 240 942 217 918 b 438 740 217 800 313 740 z m 288 0 b 344 31 324 0 344 6 b 282 138 344 78 299 56 b 297 172 281 156 282 160 l 589 413 l 590 179 b 586 135 590 164 589 149 b 522 32 574 63 522 75 b 582 0 522 7 546 0 l 756 0 b 813 31 792 0 813 6 b 750 135 813 76 764 63 b 746 179 747 149 746 164 l 746 488 b 750 533 746 503 747 518 b 813 636 761 604 813 592 b 754 667 813 660 790 667 l 579 667 b 522 636 544 667 522 661 b 585 528 522 589 569 607 b 571 490 588 508 588 504 l 278 249 l 278 488 b 282 533 278 503 279 518 b 344 636 293 604 344 592 b 286 667 344 660 322 667 l 111 667 b 54 636 76 667 54 661 b 117 533 54 590 103 604 b 121 488 119 518 121 503 l 122 179 b 118 135 122 164 121 149 b 54 32 106 63 54 75 b 114 0 54 7 78 0 z "},"к":{"ha":832,"x_min":0,"x_max":0,"o":"m 621 540 b 749 639 694 619 749 603 b 700 667 749 658 732 667 l 549 667 b 501 639 514 667 501 657 b 531 549 501 604 578 600 l 279 281 l 279 479 b 347 636 279 610 347 582 b 288 667 347 660 324 667 l 114 667 b 56 636 78 667 56 661 b 122 479 56 582 122 610 l 122 188 b 54 32 122 57 54 85 b 114 0 54 7 78 0 l 288 0 b 344 31 324 0 344 6 b 279 175 344 83 283 58 l 449 356 l 551 125 b 511 28 578 68 511 69 b 571 0 511 7 528 0 l 739 0 b 800 28 782 0 800 6 b 706 142 800 69 738 71 l 560 475 z "},"л":{"ha":794,"x_min":0,"x_max":0,"o":"m 101 -14 b 236 76 160 -14 207 13 b 317 547 296 172 306 369 b 419 592 319 588 331 592 b 511 544 501 592 511 588 l 511 188 b 443 32 511 57 443 85 b 501 0 443 7 467 0 l 676 0 b 733 31 713 0 733 6 b 668 188 733 85 668 57 l 668 524 b 742 639 668 596 742 597 b 668 667 742 658 726 667 l 224 667 b 158 639 175 667 158 658 b 242 514 158 596 242 599 b 143 90 242 374 214 90 b 58 150 106 90 115 150 b -4 76 26 150 -4 119 b 101 -14 -4 6 64 -14 z "},"м":{"ha":956,"x_min":0,"x_max":0,"o":"m 849 529 b 906 643 847 608 906 607 b 857 668 906 661 892 668 l 733 668 b 699 646 717 668 706 663 l 483 211 l 272 646 b 238 668 264 661 254 668 l 113 668 b 64 643 79 668 64 661 b 124 529 64 607 126 608 l 108 158 b 36 29 104 57 36 69 b 93 0 36 8 53 0 l 188 0 b 240 28 222 0 240 7 b 181 158 240 69 176 56 l 192 465 l 385 68 b 454 49 399 42 426 42 b 504 90 478 56 493 67 l 696 476 l 697 188 b 631 32 699 57 631 85 b 689 0 631 7 654 0 l 864 0 b 921 31 900 0 921 6 b 854 188 921 85 857 57 z "},"н":{"ha":857,"x_min":0,"x_max":0,"o":"m 738 479 b 806 636 738 610 806 582 b 746 667 806 660 782 667 l 572 667 b 514 636 536 667 514 661 b 581 479 514 582 581 610 l 581 417 b 432 368 581 368 581 368 b 279 417 279 368 279 368 l 279 479 b 347 636 279 610 347 582 b 288 667 347 660 324 667 l 114 667 b 56 636 78 667 56 661 b 122 479 56 582 122 610 l 122 188 b 54 32 122 57 54 85 b 114 0 54 7 78 0 l 288 0 b 344 31 324 0 344 6 b 279 188 344 85 279 57 l 279 250 b 431 299 279 299 279 299 b 581 250 581 299 581 299 l 581 188 b 513 32 581 57 513 85 b 572 0 513 7 536 0 l 746 0 b 803 31 782 0 803 6 b 738 188 803 85 738 57 z "},"о":{"ha":793,"x_min":0,"x_max":0,"o":"m 374 -14 b 743 351 590 -14 743 144 b 422 681 743 538 610 681 b 47 308 204 681 47 517 b 374 -14 47 111 188 -14 z m 425 65 b 203 386 294 65 203 214 b 367 600 203 501 256 600 b 589 269 496 600 589 436 b 425 65 589 154 532 65 z "},"п":{"ha":854,"x_min":0,"x_max":0,"o":"m 735 488 b 739 533 735 503 736 518 b 803 633 750 604 803 592 b 735 667 803 660 778 667 l 122 667 b 54 633 78 667 54 660 b 118 533 54 592 106 604 b 122 488 121 518 122 503 l 122 188 b 54 32 122 57 54 85 b 114 0 54 7 78 0 l 288 0 b 344 31 324 0 344 6 b 279 188 344 85 279 57 l 279 544 b 438 594 279 589 294 594 b 578 544 564 594 578 589 l 578 188 b 510 32 578 57 510 85 b 569 0 510 7 533 0 l 743 0 b 800 31 779 0 800 6 b 735 188 800 85 735 57 z "},"р":{"ha":832,"x_min":0,"x_max":0,"o":"m 501 681 b 257 546 381 681 303 617 l 258 644 b 229 681 258 671 249 682 b 92 636 208 679 142 660 b 50 593 58 621 50 613 b 75 557 50 576 61 567 b 117 464 107 536 117 506 l 119 -90 b 51 -247 119 -221 51 -193 b 110 -278 51 -271 75 -278 l 285 -278 b 342 -247 321 -278 342 -272 b 276 -90 342 -193 276 -221 l 275 50 b 479 -14 326 14 401 -15 b 783 354 638 -12 783 126 b 501 681 783 549 667 681 z m 474 61 b 275 281 382 60 276 140 l 275 375 b 443 579 275 475 336 579 b 631 286 547 579 631 469 b 474 61 631 171 583 61 z "},"с":{"ha":726,"x_min":0,"x_max":0,"o":"m 376 -14 b 682 161 558 -14 653 88 b 639 190 696 199 665 215 b 444 100 590 143 533 100 b 199 394 297 100 199 218 b 364 603 199 515 260 603 b 519 446 450 601 494 536 b 601 367 532 403 551 367 b 679 453 644 367 679 396 b 404 679 679 567 576 679 b 47 311 206 679 47 522 b 376 -14 47 135 172 -14 z "},"т":{"ha":690,"x_min":0,"x_max":0,"o":"m 433 0 b 490 31 469 0 490 6 b 429 135 490 76 443 63 b 425 179 426 149 425 164 l 425 568 b 476 594 425 586 435 594 b 593 500 535 593 558 572 b 644 447 613 460 626 447 b 671 497 668 447 672 469 b 656 614 669 542 667 575 b 540 667 646 653 631 667 l 151 667 b 38 614 63 667 46 651 b 21 496 26 574 22 542 b 49 446 21 468 24 446 b 100 500 67 446 79 458 b 215 593 133 569 156 593 b 268 567 258 594 268 585 l 268 179 b 264 135 268 164 267 149 b 200 32 251 63 200 75 b 258 0 200 7 224 0 z "},"у":{"ha":768,"x_min":0,"x_max":0,"o":"m 608 667 b 551 636 574 667 551 661 b 582 493 551 592 625 606 l 440 126 l 297 493 b 335 636 253 604 335 592 b 275 667 335 660 311 667 l 92 667 b 35 636 56 667 35 661 b 132 493 35 592 88 604 l 311 40 b 335 -61 324 7 335 -24 b 254 -199 335 -129 300 -199 b 113 -94 186 -199 182 -93 b 38 -179 65 -94 38 -136 b 185 -292 38 -244 101 -292 b 478 31 350 -292 401 -165 l 657 493 b 754 636 700 604 754 592 b 696 667 754 660 731 667 z "},"ф":{"ha":1111,"x_min":0,"x_max":0,"o":"m 808 681 b 635 604 743 681 676 653 l 635 767 l 636 958 b 607 994 636 985 626 994 b 451 940 585 993 511 969 b 410 901 418 925 410 917 b 478 767 410 858 478 875 l 478 610 b 324 681 439 656 379 681 b 47 318 150 681 47 514 b 322 -14 47 90 185 -14 b 478 46 388 -14 438 10 l 478 -89 b 410 -246 478 -221 410 -192 b 469 -278 410 -271 433 -278 l 643 -278 b 701 -247 679 -278 701 -271 b 635 -89 701 -192 635 -221 l 635 46 b 790 -14 675 10 725 -14 b 1063 340 940 -14 1057 115 b 808 681 1067 556 963 681 z m 369 72 b 208 346 283 72 208 158 b 353 588 208 468 251 588 b 478 439 426 588 478 531 l 478 172 b 369 72 478 119 439 72 z m 903 308 b 764 72 899 158 858 72 b 636 171 689 72 636 119 l 636 438 b 753 588 636 529 683 588 b 903 308 860 588 908 469 z "},"х":{"ha":769,"x_min":0,"x_max":0,"o":"m 583 506 b 713 636 657 600 713 592 b 654 667 713 660 690 667 l 546 667 b 489 636 510 667 489 661 b 494 506 489 592 569 600 l 426 418 l 364 503 b 375 636 293 600 375 592 b 317 667 375 660 351 667 l 100 667 b 42 636 64 667 42 661 b 169 503 42 592 100 600 l 299 325 l 168 161 b 39 32 94 67 39 75 b 99 0 39 7 63 0 l 206 0 b 264 31 242 0 264 6 b 257 161 264 75 183 67 l 340 268 l 417 164 b 406 32 488 67 406 75 b 465 0 406 7 429 0 l 681 0 b 739 31 717 0 739 6 b 611 164 739 75 681 67 l 469 358 z "},"ч":{"ha":788,"x_min":0,"x_max":0,"o":"m 668 479 b 736 636 668 610 736 582 b 676 667 736 660 713 667 l 503 667 b 444 636 467 667 444 661 b 511 479 444 582 511 610 l 511 318 b 367 294 464 301 424 294 b 250 456 257 294 247 378 l 250 476 b 318 633 254 607 318 579 b 260 665 318 658 296 665 l 85 665 b 28 635 50 665 28 658 b 94 476 28 579 94 608 l 96 421 b 315 222 96 294 171 222 b 511 247 390 222 453 231 l 511 188 b 443 32 511 57 443 85 b 503 0 443 7 467 0 l 676 0 b 733 31 713 0 733 6 b 668 188 733 85 668 57 z "},"ц":{"ha":861,"x_min":0,"x_max":0,"o":"m 819 -164 b 851 -104 844 -164 853 -142 b 836 19 849 -54 846 -21 b 767 69 829 50 818 64 b 735 101 738 74 735 76 l 735 479 b 803 636 735 610 803 582 b 743 667 803 660 779 667 l 569 667 b 511 636 533 667 511 661 b 578 479 511 582 578 610 l 578 113 b 418 74 578 82 563 74 b 279 113 294 74 279 82 l 279 479 b 347 636 279 610 347 582 b 288 667 347 660 324 667 l 114 667 b 56 636 78 667 56 661 b 122 479 56 582 122 610 l 122 179 b 54 33 122 74 54 81 b 122 0 54 7 78 0 l 604 0 b 768 -111 717 0 732 -36 b 819 -164 785 -149 801 -164 z "},"ш":{"ha":1214,"x_min":0,"x_max":0,"o":"m 1097 135 b 1093 179 1094 149 1093 164 l 1093 479 b 1161 636 1093 610 1161 582 b 1103 667 1161 660 1138 667 l 928 667 b 871 636 892 667 871 661 b 936 479 871 582 936 610 l 936 132 b 806 74 936 89 921 74 b 686 132 703 74 686 88 l 686 479 b 749 636 686 610 749 582 b 690 667 749 660 725 667 l 526 667 b 468 636 490 667 468 661 b 529 479 468 582 529 610 l 529 132 b 397 74 529 89 514 74 b 279 132 294 74 279 88 l 279 479 b 347 636 279 610 347 582 b 288 667 347 660 324 667 l 114 667 b 56 636 78 667 56 661 b 122 479 56 582 122 610 l 122 179 b 118 135 122 164 121 149 b 54 33 106 63 54 75 b 122 0 54 7 78 0 l 1093 0 b 1161 33 1138 0 1161 7 b 1097 135 1161 75 1110 63 z "},"щ":{"ha":1254,"x_min":0,"x_max":0,"o":"m 1213 -164 b 1243 -104 1236 -164 1244 -142 b 1228 19 1240 -54 1239 -21 b 1129 71 1218 58 1201 69 b 1093 104 1097 71 1093 75 l 1093 479 b 1161 636 1093 610 1161 582 b 1103 667 1161 660 1138 667 l 928 667 b 871 636 892 667 871 661 b 936 479 871 582 936 610 l 936 108 b 806 74 936 81 921 74 b 686 108 703 74 686 79 l 686 479 b 749 636 686 610 749 582 b 690 667 749 660 725 667 l 526 667 b 468 636 490 667 468 661 b 529 479 468 582 529 610 l 529 108 b 396 74 529 81 514 74 b 279 108 294 74 279 79 l 279 479 b 347 636 279 610 347 582 b 288 667 347 660 324 667 l 114 667 b 56 636 78 667 56 661 b 122 479 56 582 122 610 l 122 179 b 54 33 122 58 54 81 b 122 0 54 7 78 0 l 996 0 b 1160 -111 1108 0 1125 -36 b 1213 -164 1176 -149 1193 -164 z "},"ь":{"ha":717,"x_min":0,"x_max":0,"o":"m 386 425 b 304 419 357 425 329 422 b 279 446 288 418 279 426 l 279 479 b 347 636 279 610 347 582 b 288 667 347 660 324 667 l 114 667 b 56 636 78 667 56 661 b 122 479 56 582 122 610 l 122 179 b 118 135 122 164 121 149 b 54 33 106 63 54 75 b 122 0 54 7 78 0 l 364 0 b 686 213 563 0 686 58 b 386 425 686 328 608 424 z m 356 69 b 282 136 294 69 282 90 l 282 325 b 317 353 282 347 296 353 l 340 353 b 531 196 454 353 531 296 b 356 69 531 100 476 69 z "},"ы":{"ha":1031,"x_min":0,"x_max":0,"o":"m 386 425 b 304 419 357 425 329 422 b 279 446 288 418 279 426 l 279 479 b 347 636 279 610 347 582 b 288 667 347 660 324 667 l 114 667 b 56 636 78 667 56 661 b 122 479 56 582 122 610 l 122 179 b 118 135 122 164 121 149 b 54 33 106 63 54 75 b 122 0 54 7 78 0 l 364 0 b 686 213 563 0 686 58 b 386 425 686 328 608 424 z m 911 479 b 978 636 911 610 978 582 b 919 667 978 660 956 667 l 744 667 b 688 636 710 667 688 661 b 754 479 688 582 754 610 l 754 188 b 686 32 754 57 686 85 b 744 0 686 7 710 0 l 919 0 b 976 31 956 0 976 6 b 911 188 976 85 911 57 z m 356 69 b 282 136 294 69 282 90 l 282 325 b 317 353 282 347 296 353 l 340 353 b 531 196 454 353 531 296 b 356 69 531 100 476 69 z "},"ъ":{"ha":788,"x_min":0,"x_max":0,"o":"m 440 425 b 360 419 411 425 385 422 b 333 446 342 418 333 426 l 333 488 b 338 533 333 503 335 518 b 401 633 350 604 401 592 b 333 667 401 660 378 667 l 85 667 b -31 614 -6 667 -21 651 b -47 506 -40 574 -44 542 b -21 454 -49 476 -46 454 b 31 503 0 454 10 467 b 135 593 67 571 89 593 b 179 531 167 593 179 572 l 179 179 b 175 135 179 164 178 149 b 111 33 163 63 111 75 b 179 0 111 7 135 0 l 421 0 b 743 213 619 0 743 58 b 440 425 743 328 665 424 z m 411 69 b 336 136 349 69 336 90 l 336 325 b 372 353 336 347 351 353 l 396 353 b 588 196 511 353 588 296 b 411 69 588 100 533 69 z "},"є":{"ha":718,"x_min":0,"x_max":0,"o":"m 631 186 b 446 104 582 138 522 104 b 206 313 311 104 228 188 b 265 331 226 325 247 331 b 421 279 325 331 361 279 b 560 375 476 279 560 329 b 538 399 560 388 551 399 b 444 367 517 399 489 367 b 301 414 394 367 358 414 b 199 372 274 414 238 399 l 199 385 b 375 607 199 524 274 607 b 597 506 483 607 526 506 b 653 560 629 506 653 529 b 417 681 653 635 525 681 b 47 307 189 681 47 510 b 382 -14 47 139 163 -14 b 672 156 542 -14 644 82 b 631 186 686 193 657 211 z "},"э":{"ha":707,"x_min":0,"x_max":0,"o":"m 332 681 b 175 663 236 681 208 663 b 118 681 147 663 138 681 b 78 625 99 681 88 669 b 63 519 69 590 64 556 b 83 476 61 493 64 476 b 129 517 100 476 110 489 b 292 607 160 565 213 607 b 499 375 415 607 481 490 b 440 360 479 365 458 360 b 286 411 381 360 346 411 b 146 315 231 411 146 360 b 169 292 146 301 154 292 b 261 322 190 292 218 322 b 404 276 311 322 347 276 b 503 314 432 276 467 289 b 292 61 503 146 419 61 b 94 138 225 61 149 90 b 54 106 68 161 36 142 b 300 -14 92 33 199 -14 b 658 350 532 -14 658 157 b 332 681 658 526 542 681 z "},"і":{"ha":407,"x_min":0,"x_max":0,"o":"m 158 771 b 293 885 221 768 290 826 b 218 964 294 926 261 963 b 85 847 154 969 86 906 b 158 771 82 806 113 772 z m 129 188 b 61 32 129 57 61 85 b 121 0 61 7 85 0 l 294 0 b 351 31 331 0 351 6 b 286 188 351 85 286 57 l 286 453 l 288 644 b 257 681 288 671 278 681 b 103 626 236 679 163 656 b 61 588 69 611 61 603 b 128 453 61 544 128 561 z "},"ї":{"ha":407,"x_min":0,"x_max":0,"o":"m 71 779 b 167 867 119 779 167 817 b 94 936 167 908 138 936 b 4 842 44 936 4 889 b 71 779 4 804 33 779 z m 286 779 b 381 867 335 779 381 817 b 310 936 381 908 351 936 b 219 842 258 936 219 889 b 286 779 219 804 249 779 z m 129 188 b 61 32 129 57 61 85 b 121 0 61 7 85 0 l 294 0 b 351 31 331 0 351 6 b 286 188 351 85 286 57 l 286 453 l 288 644 b 257 681 288 671 278 681 b 103 626 236 679 163 656 b 61 588 69 611 61 603 b 128 453 61 544 128 561 z "},"ю":{"ha":1146,"x_min":0,"x_max":0,"o":"m 776 681 b 407 379 583 681 438 553 l 279 379 l 279 479 b 347 636 279 610 347 582 b 288 667 347 660 324 667 l 114 667 b 56 636 78 667 56 661 b 122 479 56 582 122 610 l 122 188 b 54 32 122 57 54 85 b 114 0 54 7 78 0 l 288 0 b 344 31 324 0 344 6 b 279 188 344 85 279 57 l 279 308 l 400 308 b 726 -14 400 111 540 -14 b 1097 351 943 -14 1097 144 b 776 681 1097 538 964 681 z m 778 65 b 556 386 647 65 556 214 b 719 600 556 501 608 600 b 942 269 849 600 942 436 b 778 65 942 154 885 65 z "},"я":{"ha":772,"x_min":0,"x_max":0,"o":"m 651 488 b 656 533 651 503 653 518 b 719 633 668 604 719 592 b 651 667 719 660 696 667 l 449 667 b 99 439 214 667 99 571 b 239 265 99 361 147 297 b 149 150 190 240 169 199 b 57 67 117 78 93 69 b 32 43 42 65 32 57 b 138 -10 29 10 83 -10 b 296 121 243 -10 279 67 b 372 244 321 204 342 236 l 381 244 b 472 251 414 244 439 247 b 496 232 492 254 496 251 l 496 167 b 431 28 496 69 431 69 b 494 0 431 8 447 0 l 656 0 b 718 28 700 0 718 7 b 651 167 718 69 651 69 z m 494 349 b 411 318 494 328 485 318 b 256 451 299 318 256 382 b 429 597 256 549 319 597 b 494 561 486 597 494 585 z "},"⁄":{"ha":513,"x_min":0,"x_max":0,"o":"m 83 -139 b 125 -107 107 -139 118 -131 l 467 985 b 438 1028 476 1015 468 1028 l 424 1028 b 381 996 400 1028 388 1019 l 40 -96 b 72 -139 31 -126 40 -139 z "},"¹":{"ha":360,"x_min":0,"x_max":0,"o":"m 236 961 b 217 983 236 978 229 983 b 110 947 204 982 147 964 b 65 917 69 932 65 928 b 93 894 65 907 71 900 b 135 832 131 883 135 867 l 135 471 b 76 385 135 411 76 414 b 115 367 76 372 88 367 l 239 367 b 276 385 265 367 276 371 b 236 471 276 410 236 410 z "},"²":{"ha":572,"x_min":0,"x_max":0,"o":"m 429 369 b 488 413 468 369 478 383 b 504 486 496 439 501 460 b 489 515 506 503 501 515 b 346 457 464 515 439 463 b 176 457 286 453 232 453 b 463 822 365 610 461 718 b 288 986 464 921 388 986 b 89 854 183 986 113 914 b 115 835 81 831 100 818 b 249 908 157 888 201 908 b 353 806 311 908 353 868 b 71 418 353 697 229 569 b 94 369 43 392 54 369 z "},"³":{"ha":529,"x_min":0,"x_max":0,"o":"m 294 718 b 421 863 383 754 421 810 b 268 986 421 943 350 986 b 93 913 192 986 119 949 b 117 888 74 889 92 871 b 231 922 147 906 182 922 b 317 850 275 922 317 900 b 167 713 318 789 265 739 b 178 667 144 706 150 664 b 372 546 307 676 372 629 b 239 426 372 471 317 428 b 93 463 175 426 129 443 b 68 433 64 479 47 456 b 256 361 101 394 175 361 b 481 556 403 361 481 454 b 294 718 481 658 393 711 z "}," ":{"ha":278,"x_min":0,"x_max":0,"o":""}," ":{"ha":278,"x_min":0,"x_max":0,"o":""},".":{"ha":340,"x_min":0,"x_max":0,"o":"m 167 -14 b 267 83 218 -14 267 22 b 176 174 267 142 224 174 b 78 72 128 174 78 135 b 167 -14 78 15 119 -14 z "},",":{"ha":354,"x_min":0,"x_max":0,"o":"m 124 -187 b 275 54 176 -187 275 -89 b 176 172 275 138 232 172 b 85 76 131 172 85 136 b 158 -58 85 0 158 -8 b 100 -167 158 -108 100 -146 b 124 -187 100 -179 108 -187 z "},":":{"ha":340,"x_min":0,"x_max":0,"o":"m 167 419 b 267 517 218 419 267 456 b 176 607 267 575 224 607 b 78 506 128 607 78 568 b 167 419 78 449 119 419 z m 167 -14 b 267 83 218 -14 267 22 b 176 174 267 142 224 174 b 78 72 128 174 78 135 b 167 -14 78 15 119 -14 z "},";":{"ha":354,"x_min":0,"x_max":0,"o":"m 167 419 b 267 517 218 419 267 456 b 176 607 267 575 224 607 b 78 506 128 607 78 568 b 167 419 78 449 119 419 z m 124 -187 b 275 54 176 -187 275 -89 b 176 172 275 138 232 172 b 85 76 131 172 85 136 b 158 -58 85 0 158 -8 b 100 -167 158 -108 100 -146 b 124 -187 100 -179 108 -187 z "},"…":{"ha":951,"x_min":0,"x_max":0,"o":"m 167 -14 b 267 83 218 -14 267 22 b 176 174 267 142 224 174 b 78 72 128 174 78 135 b 167 -14 78 15 119 -14 z m 472 -14 b 572 83 524 -14 572 22 b 482 174 572 142 529 174 b 383 72 433 174 383 135 b 472 -14 383 15 425 -14 z m 778 -14 b 878 83 829 -14 878 22 b 788 174 878 142 835 174 b 689 72 739 174 689 135 b 778 -14 689 15 731 -14 z "},"!":{"ha":340,"x_min":0,"x_max":0,"o":"m 169 338 b 192 368 186 338 190 346 b 268 879 206 608 268 794 b 169 986 268 944 225 986 b 74 879 115 986 74 944 b 147 368 74 794 133 608 b 169 338 149 346 154 338 z m 167 -14 b 267 83 218 -14 267 22 b 176 174 267 142 224 174 b 78 72 128 174 78 135 b 167 -14 78 15 119 -14 z "},"¡":{"ha":340,"x_min":0,"x_max":0,"o":"m 174 681 b 74 583 122 681 74 644 b 164 493 74 525 117 493 b 263 594 213 493 263 532 b 174 681 263 653 221 681 z m 171 329 b 149 299 154 329 150 322 b 74 -212 135 58 74 -128 b 171 -319 74 -278 117 -319 b 268 -212 226 -319 268 -278 b 193 299 268 -128 207 58 b 171 329 192 322 188 329 z "},"?":{"ha":679,"x_min":0,"x_max":0,"o":"m 361 374 b 394 482 363 408 379 457 b 617 792 458 585 615 660 b 343 986 618 903 515 986 b 65 790 165 986 65 888 b 142 708 65 746 90 708 b 217 778 190 708 203 742 b 342 911 246 864 282 911 b 439 800 404 911 440 864 b 290 385 438 653 290 569 b 361 374 290 325 357 322 z m 329 -14 b 429 83 381 -14 429 22 b 339 174 429 142 386 174 b 240 72 290 174 240 135 b 329 -14 240 15 282 -14 z "},"¿":{"ha":833,"x_min":0,"x_max":0,"o":"m 467 681 b 367 583 415 681 367 644 b 457 493 367 525 410 493 b 556 594 506 493 556 532 b 467 681 556 653 514 681 z m 436 293 b 401 185 435 258 417 210 b 179 -125 338 83 181 7 b 453 -319 178 -236 281 -319 b 732 -124 631 -319 732 -221 b 654 -42 732 -79 706 -42 b 579 -111 606 -42 593 -75 b 454 -244 550 -197 514 -244 b 357 -133 393 -244 356 -197 b 506 282 358 15 506 97 b 436 293 506 342 439 344 z "},"·":{"ha":340,"x_min":0,"x_max":0,"o":"m 167 250 b 267 347 218 250 267 286 b 176 438 267 406 224 438 b 78 336 128 438 78 399 b 167 250 78 279 119 250 z "},"•":{"ha":446,"x_min":0,"x_max":0,"o":"m 218 197 b 360 333 292 197 360 249 b 233 461 360 417 299 461 b 93 319 164 461 93 407 b 218 197 93 238 151 197 z "},"*":{"ha":692,"x_min":0,"x_max":0,"o":"m 151 433 b 253 446 182 407 226 414 b 313 596 285 483 286 540 b 376 597 328 628 360 628 b 438 446 401 544 406 483 b 539 433 464 414 508 407 b 546 536 569 460 571 504 b 417 615 515 574 464 585 b 433 678 386 638 396 676 b 586 681 488 682 543 665 b 632 772 625 696 646 735 b 538 813 618 810 576 826 b 421 719 496 799 464 751 b 367 757 389 696 357 719 b 417 899 382 806 417 854 b 346 974 417 940 386 974 b 275 899 306 974 275 940 b 324 757 275 853 308 810 b 269 719 333 719 301 696 b 153 813 229 750 194 799 b 58 772 114 826 72 810 b 104 681 44 735 65 696 b 257 678 147 665 201 682 b 275 615 294 676 306 638 b 146 536 232 588 174 572 b 151 433 119 504 121 460 z "},"#":{"ha":990,"x_min":0,"x_max":0,"o":"m 763 942 b 738 972 767 960 757 972 l 714 972 b 683 949 697 972 688 964 l 611 654 l 400 654 l 471 942 b 446 972 475 960 465 972 l 422 972 b 392 949 406 972 396 964 l 319 654 l 96 654 b 68 626 78 654 68 644 l 68 601 b 96 574 68 583 78 574 l 299 574 l 250 376 l 68 376 b 40 349 50 376 40 367 l 40 324 b 68 296 40 306 50 296 l 231 296 l 165 31 b 190 0 161 13 171 0 l 214 0 b 244 24 231 0 240 8 l 311 296 l 522 296 l 457 31 b 482 0 453 13 463 0 l 506 0 b 536 24 522 0 532 8 l 603 296 l 868 296 b 896 324 886 296 896 306 l 896 349 b 868 376 896 367 886 376 l 624 376 l 672 574 l 896 574 b 924 601 914 574 924 583 l 924 626 b 896 654 924 644 914 654 l 692 654 z m 381 574 l 590 574 l 542 376 l 332 376 z "},"/":{"ha":513,"x_min":0,"x_max":0,"o":"m 83 -139 b 125 -107 107 -139 118 -131 l 467 985 b 438 1028 476 1015 468 1028 l 424 1028 b 381 996 400 1028 388 1019 l 40 -96 b 72 -139 31 -126 40 -139 z "},"\\":{"ha":514,"x_min":0,"x_max":0,"o":"m 439 -139 b 468 -96 468 -139 478 -126 l 126 996 b 83 1028 119 1019 108 1028 l 71 1028 b 42 985 40 1028 32 1015 l 382 -107 b 425 -139 389 -131 400 -139 z "},"-":{"ha":472,"x_min":0,"x_max":0,"o":"m 368 365 b 403 393 388 365 399 374 l 408 413 b 382 443 414 435 403 443 l 101 443 b 67 415 82 443 71 435 l 61 396 b 88 365 56 374 67 365 z "},"­":{"ha":472,"x_min":0,"x_max":0,"o":"m 368 365 b 403 393 388 365 399 374 l 408 413 b 382 443 414 435 403 443 l 101 443 b 67 415 82 443 71 435 l 61 396 b 88 365 56 374 67 365 z "},"–":{"ha":682,"x_min":0,"x_max":0,"o":"m 576 365 b 611 393 596 365 607 374 l 617 413 b 590 443 622 435 611 443 l 101 443 b 67 415 82 443 71 435 l 61 396 b 88 365 56 374 67 365 z "},"—":{"ha":958,"x_min":0,"x_max":0,"o":"m 853 365 b 889 393 874 365 883 374 l 894 413 b 867 443 899 435 888 443 l 101 443 b 67 415 82 443 71 435 l 61 396 b 88 365 56 374 67 365 z "},"_":{"ha":551,"x_min":0,"x_max":0,"o":"m 518 -108 b 550 -74 542 -108 550 -99 b 518 -42 550 -50 542 -42 l 33 -42 b 0 -75 10 -42 0 -50 b 33 -108 0 -99 10 -108 z "},"(":{"ha":519,"x_min":0,"x_max":0,"o":"m 449 -167 b 503 -158 465 -175 490 -178 b 479 -103 515 -140 500 -121 b 239 460 319 28 239 211 b 475 1011 239 696 315 885 b 499 1067 497 1029 511 1050 b 438 1068 486 1086 461 1081 b 67 464 247 964 67 760 b 449 -167 67 139 258 -72 z "},")":{"ha":519,"x_min":0,"x_max":0,"o":"m 76 -167 b 457 464 265 -72 457 139 b 86 1068 457 760 276 964 b 25 1067 63 1081 38 1086 b 49 1011 13 1050 26 1029 b 285 460 208 885 285 696 b 44 -103 285 211 204 28 b 21 -158 24 -121 8 -140 b 76 -167 33 -178 58 -175 z "},"{":{"ha":453,"x_min":0,"x_max":0,"o":"m 353 -106 b 290 42 297 -90 290 -25 l 290 285 b 156 465 290 382 238 438 b 290 647 236 494 290 550 l 290 863 b 354 1013 290 929 304 994 b 393 1051 381 1021 393 1031 b 349 1081 393 1075 379 1083 b 126 838 190 1071 126 979 l 126 592 b 61 506 126 554 107 517 b 28 467 36 500 28 490 b 61 426 28 443 35 435 b 126 340 103 415 126 378 l 126 67 b 349 -176 126 -75 190 -168 b 390 -143 379 -178 390 -169 b 353 -106 390 -122 378 -114 z "},"}":{"ha":453,"x_min":0,"x_max":0,"o":"m 392 506 b 328 592 346 517 328 554 l 328 838 b 104 1081 328 979 263 1071 b 60 1051 75 1083 60 1075 b 99 1013 60 1031 74 1021 b 164 863 149 994 164 929 l 164 647 b 297 467 164 550 217 494 b 164 285 217 438 164 382 l 164 42 b 100 -106 164 -25 156 -90 b 63 -143 75 -114 63 -122 b 104 -176 63 -169 74 -178 b 328 67 263 -168 328 -75 l 328 340 b 393 426 328 378 350 415 b 426 467 418 435 426 443 b 392 506 426 490 417 500 z "},"[":{"ha":482,"x_min":0,"x_max":0,"o":"m 379 -178 b 417 -144 407 -178 417 -168 b 379 -112 417 -121 407 -112 l 307 -112 b 278 -83 289 -112 278 -101 l 278 988 b 307 1017 278 1006 289 1017 l 379 1017 b 417 1049 407 1017 417 1025 b 379 1082 417 1072 407 1082 l 156 1082 b 118 1044 131 1082 118 1068 l 118 -140 b 156 -178 118 -164 131 -178 z "},"]":{"ha":482,"x_min":0,"x_max":0,"o":"m 326 -178 b 364 -140 351 -178 364 -164 l 364 1044 b 326 1082 364 1068 351 1082 l 104 1082 b 65 1049 75 1082 65 1072 b 104 1017 65 1025 75 1017 l 175 1017 b 204 988 193 1017 204 1006 l 204 -83 b 175 -112 204 -101 193 -112 l 104 -112 b 65 -144 75 -112 65 -121 b 104 -178 65 -168 75 -178 z "},"‚":{"ha":354,"x_min":0,"x_max":0,"o":"m 124 -187 b 275 54 176 -187 275 -89 b 176 172 275 138 232 172 b 85 76 131 172 85 136 b 158 -58 85 0 158 -8 b 100 -167 158 -108 100 -146 b 124 -187 100 -179 108 -187 z "},"„":{"ha":588,"x_min":0,"x_max":0,"o":"m 124 -187 b 275 54 176 -187 275 -89 b 176 172 275 138 232 172 b 85 76 131 172 85 136 b 158 -58 85 0 158 -8 b 100 -167 158 -108 100 -146 b 124 -187 100 -179 108 -187 z m 393 -187 b 544 54 444 -187 544 -89 b 444 172 544 138 501 172 b 354 76 400 172 354 136 b 428 -58 354 0 428 -8 b 368 -167 428 -108 368 -146 b 393 -187 368 -179 378 -187 z "},"“":{"ha":550,"x_min":0,"x_max":0,"o":"m 194 1003 b 43 761 142 1003 43 904 b 142 643 43 678 86 643 b 233 739 188 643 233 679 b 160 874 233 815 160 824 b 218 982 160 924 218 961 b 194 1003 218 993 208 1003 z m 464 1003 b 311 761 411 1003 311 904 b 411 643 311 678 356 643 b 503 739 456 643 503 679 b 429 874 503 815 429 824 b 488 982 429 924 488 961 b 464 1003 488 993 478 1003 z "},"”":{"ha":550,"x_min":0,"x_max":0,"o":"m 88 615 b 239 856 139 615 239 714 b 139 975 239 939 196 975 b 49 878 94 975 49 938 b 122 744 49 801 122 793 b 63 635 122 694 63 656 b 88 615 63 624 72 615 z m 356 615 b 508 856 408 615 508 714 b 408 975 508 939 464 975 b 318 878 364 975 318 938 b 390 744 318 801 390 793 b 332 635 390 694 332 656 b 356 615 332 624 342 615 z "},"‘":{"ha":354,"x_min":0,"x_max":0,"o":"m 231 1003 b 79 763 178 1003 79 904 b 178 643 79 679 122 643 b 269 740 224 643 269 681 b 196 874 269 817 196 825 b 256 983 196 924 256 963 b 231 1003 256 994 246 1003 z "},"’":{"ha":354,"x_min":0,"x_max":0,"o":"m 124 614 b 275 856 176 614 275 713 b 176 974 275 939 232 974 b 85 878 131 974 85 936 b 158 743 85 801 158 793 b 100 633 158 693 100 654 b 124 614 100 622 108 614 z "},"«":{"ha":624,"x_min":0,"x_max":0,"o":"m 279 104 b 299 124 290 104 299 108 b 169 347 300 163 224 274 b 299 569 224 421 300 531 b 279 590 299 586 290 590 b 135 467 256 590 188 525 b 51 347 78 407 51 381 b 135 226 51 313 78 288 b 279 104 188 169 256 104 z m 525 104 b 544 124 536 104 544 108 b 415 347 547 163 471 274 b 544 569 471 421 547 531 b 525 590 544 586 536 590 b 381 467 501 590 435 525 b 297 347 324 407 297 381 b 381 226 297 313 324 288 b 525 104 435 169 501 104 z "},"»":{"ha":619,"x_min":0,"x_max":0,"o":"m 96 104 b 240 226 119 104 186 169 b 324 347 297 288 324 313 b 240 467 324 381 297 407 b 96 590 186 525 119 590 b 75 569 85 590 76 586 b 206 347 74 531 150 421 b 75 124 150 274 74 163 b 96 104 76 108 85 104 z m 342 104 b 486 226 365 104 433 169 b 569 347 543 288 569 313 b 486 467 569 381 543 407 b 342 590 433 525 365 590 b 322 569 331 590 322 586 b 451 347 319 531 397 421 b 322 124 397 274 319 163 b 342 104 322 108 331 104 z "},"‹":{"ha":378,"x_min":0,"x_max":0,"o":"m 282 104 b 301 124 293 104 301 108 b 172 347 304 163 228 274 b 301 569 228 421 304 531 b 282 590 301 586 293 590 b 138 467 258 590 192 525 b 54 347 81 407 54 381 b 138 226 54 313 81 288 b 282 104 192 169 258 104 z "},"›":{"ha":376,"x_min":0,"x_max":0,"o":"m 94 104 b 239 226 118 104 186 169 b 322 347 296 288 322 313 b 239 467 322 381 296 407 b 94 590 186 525 118 590 b 75 569 83 590 75 586 b 204 347 72 531 150 421 b 75 124 150 274 72 163 b 94 104 75 108 83 104 z "},"\"":{"ha":564,"x_min":0,"x_max":0,"o":"m 165 597 b 200 643 186 597 194 618 b 238 904 213 708 238 872 b 165 986 238 946 219 986 b 93 903 111 986 93 946 b 129 640 93 869 115 704 b 165 597 133 619 140 597 z m 400 597 b 435 643 421 597 428 618 b 471 904 447 708 471 872 b 400 986 471 946 453 986 b 326 903 344 986 326 946 b 364 640 326 869 350 704 b 400 597 367 619 375 597 z "},"'":{"ha":331,"x_min":0,"x_max":0,"o":"m 165 597 b 200 643 186 597 194 618 b 238 904 213 708 238 872 b 165 986 238 946 219 986 b 93 903 111 986 93 946 b 129 640 93 869 115 704 b 165 597 133 619 140 597 z "}}}
